<svg width="41" height="51" viewBox="0 0 41 51" fill="none" xmlns="http://www.w3.org/2000/svg">
<g clip-path="url(#clip0_1148_5533)">
<path d="M31.9118 0.957031C32.0428 0.994846 32.1723 1.03527 32.3033 1.07178C33.7785 1.48122 34.7314 2.38225 35.0797 3.78009C35.4182 5.14011 35.0448 6.35669 33.9178 7.27598C32.6738 8.29045 31.3574 9.22669 30.0618 10.1838C29.9281 10.2816 29.7136 10.3233 29.5367 10.3233C23.8181 10.3298 18.0982 10.3311 12.3797 10.3207C12.1763 10.3207 11.9353 10.2386 11.7751 10.1199C10.5715 9.23842 9.37348 8.34783 8.19077 7.44028C6.96488 6.49882 6.48148 5.2692 6.82418 3.82833C7.17523 2.35226 8.17684 1.4082 9.76772 1.0457C9.84991 1.02614 9.92653 0.987022 10.0059 0.957031C17.3084 0.957031 24.6094 0.957031 31.9118 0.957031Z" fill="#0094DA"/>
<path d="M21.2425 50.934C18.565 50.934 15.8876 50.9849 13.2115 50.921C9.70097 50.8388 6.72539 49.6001 4.45052 47.0469C2.68133 45.061 1.71315 42.7309 1.2423 40.209C0.515119 36.3206 1.10438 32.5274 2.28988 28.7981C4.0326 23.315 6.85773 18.3861 10.9979 14.1404C11.4952 13.6306 11.9967 13.4324 12.742 13.4376C18.3909 13.4689 24.0412 13.4585 29.69 13.4467C30.0522 13.4467 30.3002 13.5458 30.5468 13.7871C34.4209 17.575 37.1206 22.0254 38.9901 26.9361C40.294 30.3603 41.0797 33.8796 40.9752 37.5359C40.8972 40.2794 40.3901 42.9408 38.9608 45.3766C36.8448 48.9846 33.5293 50.8088 29.1676 50.9236C26.5278 50.9927 23.8837 50.9366 21.2411 50.9366V50.934H21.2425ZM19.2908 39.4931C19.2908 40.0434 19.2825 40.5285 19.2922 41.0136C19.3117 41.9198 20.0459 42.6148 20.9653 42.6109C21.8903 42.6057 22.6077 41.9159 22.6258 41.0018C22.6356 40.4828 22.6272 39.9652 22.6272 39.4266C22.8027 39.3823 22.9518 39.3458 23.1008 39.3054C25.2796 38.7108 26.6336 36.8605 26.4943 34.6672C26.3704 32.7296 24.7196 31.0227 22.591 30.7241C21.79 30.6119 20.9639 30.6628 20.1489 30.6341C19.2671 30.6041 18.6876 30.0056 18.7559 29.1998C18.8144 28.4995 19.3995 28.034 20.2785 28.0275C21.7551 28.0158 23.2332 28.0184 24.7098 28.0275C25.2211 28.0301 25.6752 27.9141 26.0346 27.5633C26.5111 27.0978 26.6448 26.5423 26.4108 25.9412C26.1433 25.2553 25.5735 24.9215 24.8059 24.9045C24.0983 24.8889 23.3906 24.9006 22.6272 24.9006C22.6272 24.3347 22.6439 23.8171 22.623 23.302C22.5896 22.4544 21.8596 21.7907 20.9764 21.7803C20.0709 21.7685 19.3284 22.4414 19.295 23.3176C19.2797 23.7232 19.2671 24.1326 19.2978 24.5368C19.3229 24.8706 19.2128 25.001 18.8478 25.0936C16.6746 25.6491 15.308 27.489 15.4195 29.6509C15.5212 31.6251 17.1483 33.3515 19.2978 33.6658C20.1141 33.7858 20.9597 33.7297 21.7914 33.7623C22.7219 33.7988 23.3321 34.5251 23.1426 35.3622C23.0019 35.9816 22.4405 36.3637 21.6172 36.3689C20.1754 36.378 18.7322 36.365 17.2904 36.3767C17.0006 36.3793 16.6927 36.4028 16.4253 36.498C15.6772 36.7627 15.2872 37.4851 15.4348 38.2414C15.5713 38.9403 16.2386 39.4619 17.0828 39.4892C17.7933 39.5114 18.5051 39.4945 19.2922 39.4945L19.2908 39.4931Z" fill="#0094DA"/>
</g>
<defs>
<clipPath id="clip0_1148_5533">
<rect width="40.0617" height="50" fill="white" transform="translate(0.923828 0.957031)"/>
</clipPath>
</defs>
</svg>
