<svg width="51" height="51" viewBox="0 0 51 51" fill="none" xmlns="http://www.w3.org/2000/svg">
<g clip-path="url(#clip0_1148_5537)">
<path d="M25.1385 41.5579C16.1635 41.572 8.80742 34.2191 8.81446 25.2408C8.82854 16.2413 16.1775 8.90244 25.1456 8.93763C34.1418 8.96577 41.4063 16.2272 41.4415 25.2267C41.4767 34.1909 34.1347 41.5439 25.1315 41.5579H25.1385ZM24.0475 17.6204C23.8926 17.6345 23.8081 17.6415 23.7237 17.6486C21.4007 17.8808 19.6831 19.7384 19.6901 21.997C19.6972 24.2697 21.4218 26.1203 23.7518 26.3032C24.5543 26.3666 25.3638 26.3314 26.1663 26.3455C27.4334 26.3666 28.3837 27.2813 28.3977 28.4845C28.4118 29.7018 27.4404 30.6587 26.1592 30.6869C25.5116 30.7009 24.857 30.6869 24.2094 30.6869C22.8508 30.6798 22.0061 29.8988 21.8653 28.5408C21.7879 27.8231 21.3373 27.3798 20.7179 27.422C20.0773 27.4642 19.6549 27.9919 19.6972 28.7237C19.7676 29.8636 20.204 30.8417 21.0276 31.6368C21.8512 32.4319 22.8578 32.8048 24.0334 32.8751C24.0334 33.2059 24.0263 33.5155 24.0334 33.818C24.0615 34.5498 24.4628 35.0071 25.0963 35.0212C25.751 35.0353 26.1874 34.5779 26.2156 33.8251C26.2296 33.5084 26.2156 33.1918 26.2156 32.8751C26.3915 32.8611 26.476 32.854 26.5605 32.847C28.8764 32.6078 30.5869 30.7361 30.5658 28.4704C30.5447 26.1977 28.813 24.3682 26.476 24.1923C25.6735 24.129 24.864 24.1712 24.0615 24.1572C22.8085 24.129 21.8512 23.1861 21.8582 21.99C21.8582 20.7868 22.8156 19.8439 24.0686 19.8158C24.7373 19.8017 25.406 19.8087 26.0748 19.8158C27.3982 19.8228 28.2499 20.6109 28.3907 21.9337C28.4752 22.6866 28.9398 23.1369 29.5663 23.0806C30.2068 23.0173 30.601 22.4966 30.5588 21.7578C30.4462 19.7595 28.982 18.0989 26.9969 17.733C26.7505 17.6908 26.4971 17.6556 26.2156 17.6064C26.2156 17.2405 26.2367 16.9027 26.2156 16.565C26.1663 15.9106 25.7369 15.4884 25.1315 15.4884C24.5332 15.4884 24.0967 15.9036 24.0475 16.5579C24.0193 16.8957 24.0475 17.2405 24.0475 17.6275V17.6204Z" fill="#0094DA"/>
<path d="M7.09704 7.87499C5.88628 7.87499 4.76 7.88906 3.63371 7.87499C2.76788 7.86091 2.24697 7.02359 2.64117 6.29885C2.84531 5.92593 3.16912 5.72188 3.60555 5.72188C5.64695 5.72188 7.6813 5.71484 9.72269 5.72188C10.3844 5.72188 10.8208 6.15813 10.8279 6.81954C10.8419 8.86007 10.8419 10.8936 10.8279 12.9341C10.8279 13.5603 10.3492 14.0247 9.76492 14.0318C9.16659 14.0388 8.68088 13.5674 8.67384 12.913C8.65976 11.8083 8.67384 10.6965 8.67384 9.59185L8.54009 9.51445C7.89248 10.3166 7.20263 11.0906 6.60429 11.9279C3.51404 16.2412 2.09211 21.0681 2.32441 26.3664C2.77492 36.7098 10.4125 45.5896 20.6125 47.6231C24.4981 48.3971 28.3416 48.193 32.1287 46.9757C32.3047 46.9195 32.4877 46.8561 32.6707 46.828C33.2761 46.7295 33.7759 47.0461 33.9308 47.6161C34.0716 48.1438 33.8111 48.7137 33.248 48.8826C32.1006 49.2274 30.9532 49.5933 29.7776 49.7973C22.2174 51.1272 15.3682 49.4596 9.39184 44.6327C4.23909 40.4812 1.16996 35.0422 0.353408 28.4632C-0.603934 20.7444 1.62048 13.9895 6.83658 8.21273C6.91402 8.12829 6.97737 8.03682 7.09704 7.87499Z" fill="#0094DA"/>
<path d="M43.144 42.6149C44.3759 42.6149 45.5022 42.6009 46.6214 42.6149C47.4873 42.629 48.0011 43.4663 47.6069 44.1981C47.4028 44.571 47.072 44.7751 46.6426 44.7751C44.6012 44.7751 42.5668 44.7821 40.5254 44.7751C39.8637 44.7751 39.4273 44.3318 39.4203 43.6704C39.4062 41.6299 39.4062 39.5964 39.4203 37.5558C39.4203 36.9296 39.8989 36.4652 40.4832 36.4582C41.0886 36.4511 41.5672 36.9226 41.5743 37.5769C41.5884 38.6816 41.5743 39.7934 41.5743 40.8981L41.708 40.9755C42.3556 40.1733 43.0384 39.3993 43.6368 38.562C46.727 34.2488 48.149 29.4219 47.9167 24.1235C47.4662 13.7661 39.8426 4.90737 29.6357 2.86684C25.75 2.08581 21.9065 2.2969 18.1194 3.51418C17.9082 3.58454 17.69 3.64787 17.4718 3.67602C16.8946 3.73934 16.4229 3.38049 16.2962 2.83166C16.1766 2.31097 16.4652 1.7551 17.0424 1.59327C18.3447 1.22738 19.6399 0.819276 20.9633 0.60115C26.5173 -0.306533 31.839 0.46746 36.7876 3.16237C44.0028 7.09566 48.4446 13.1469 49.761 21.2668C51.0562 29.2811 48.7895 36.3315 43.3341 42.3476C43.2919 42.3968 43.2496 42.4531 43.1229 42.6079L43.144 42.6149Z" fill="#0094DA"/>
</g>
<defs>
<clipPath id="clip0_1148_5537">
<rect width="50" height="50" fill="white" transform="translate(0.134766 0.234375)"/>
</clipPath>
</defs>
</svg>
