<?xml version="1.0" encoding="utf-8"?>
<!-- Generator: Adobe Illustrator 21.0.0, SVG Export Plug-In . SVG Version: 6.00 Build 0)  -->
<svg version="1.1" id="Слой_3" xmlns="http://www.w3.org/2000/svg" xmlns:xlink="http://www.w3.org/1999/xlink" x="0px" y="0px"
	 viewBox="0 0 296 415" style="enable-background:new 0 0 296 415;" xml:space="preserve">
<style type="text/css">
	.st0{fill:none;stroke:#3F4D51;stroke-linejoin:round;stroke-miterlimit:10;}
</style>
<g>
	<g>
		<ellipse class="st0" cx="265.2" cy="113.8" rx="15.1" ry="15.1"/>
		<ellipse class="st0" cx="265.2" cy="113.8" rx="20.9" ry="20.9"/>
		<ellipse class="st0" cx="264.1" cy="287.4" rx="15.1" ry="15.1"/>
		<ellipse class="st0" cx="264.1" cy="287.4" rx="20.9" ry="20.9"/>
		<path class="st0" d="M220.9,161.3c0,0-3.3,2.9-4.1,6.2c-0.7,3.3-0.7,5.6,3.9,6.2c4.6,0.6,5-1.8,5-2.7s-0.6-6.2-0.6-6.2l-0.3-1.2
			C224.3,161.9,222.5,160.9,220.9,161.3L220.9,161.3z"/>
		<path class="st0" d="M272.8,139.3c0,0-30.9,2.8-32.6-22.7c0.7-33.7,32.8-25.9,33.3-29.1l-1.1-21.9c0-0.8-0.7-1.4-1.5-1.5
			c-5.3-0.3-23.9-1.1-31.2,0.7c-1.4,0.3-8.2,10.3-9.9,17.4s-5.7,46.8-5.7,46.8l-0.4,11.7c0,0-24.1,43.6-25.2,56.4
			c-0.6,7.4-2.1,45-2.5,51.1c-0.4,6,1.8,50.7,2.5,54.6c0.5,2.9,2.1,10.9,2.8,14.6c0.1,0.6,1,0.7,1.2,0.1l1.3-3.1l19.9,31.9l11,2.8"
			/>
		<line class="st0" x1="273.1" y1="133.7" x2="270.7" y2="267.5"/>
		<path class="st0" d="M225.4,153.3c-1.2,0.6-19.3,27.2-21.4,46c-2.9,5.8-1.4,67.1-1.4,69.2s-0.5,23.2,5.1,30.8
			c15.5,21.5,15.9,14.9,15.9,14.9l1.8-99c0,0,0.4-56,0.4-61.8"/>
		<path class="st0" d="M264.6,149.3c0,0-20.8-1.1-24.5-1.1s-14.6,4.8-14.6,4.8"/>
		<path class="st0" d="M264.6,139.3l0.2,109.4c0.1,3-1.6,5.8-4.4,7.1c-8.1,3.9-23.8,13.6-24.2,28.2c-1.1,34.4,35.1,29.2,35.1,29.2"
			/>
		<path class="st0" d="M234.8,349.3l-6.3-1.7c0,0-3.6-18.6-0.8-18.6s9.9,4.6,9.9,4.6L234.8,349.3z"/>
		<path class="st0" d="M271.4,307.5c0,0-0.4,4.6-0.4,5.7c0,0.9-3.5,27.3-4.6,35.9c-0.2,1.7-1.4,3-3,3.5l-6.3,2c0,0-6.4,0.7-7.8-0.7
			c-1.4-1.4-2.8-5.3-2.8-5.3l-11.7-2.5"/>
		<path class="st0" d="M202.6,224.1c2.1-0.4,17.7-5.7,22-6.4s32.6-5,40.8-3.2"/>
		<path class="st0" d="M202.3,264.7c0,0,15.5,11.9,22.2,12.2c6.7,0.4,17-6.4,17-6.4"/>
		<path class="st0" d="M221.1,342.4c0,0,1.6-6.6,1.6-10.9c0-3.5-11-18.1-15.2-23.4c-0.6-0.7-1.7-0.5-2,0.4l-1.6,6"/>
		<path class="st0" d="M254.7,312.3c0,0-0.7,32.7-5.3,41.6"/>
		<path class="st0" d="M257.2,63.8c0,0-1.8,12.8-0.4,14.5s11.7,7.1,11.7,7.1l-1.4-21.6"/>
		<path class="st0" d="M245.5,65.6c0,0-1.4,2.8,0.4,3.9c1.8,1.1,2.8,0.7,2.8,3.2s-2.8,15.3-2.8,15.3l-8.2,6c0,0,0-15.6,0-18.8
			c0-3.2,2.1-10.3,2.1-10.3S244.1,64.1,245.5,65.6z"/>
		<path class="st0" d="M237.5,82.5c0,0-6.3,12.1-7.3,27.4c-0.4,5.7-4.9,39.9-4.6,44.5"/>
		<path class="st0" d="M223.8,140.8c-0.2,0.4,0.9,6.7,0.3,8.4s-21.3,41-22.2,41.8s-2.4,1.3-2.4,1.3"/>
	</g>
	<path class="st0" d="M267.5,343.2c-1.6,1.3-9.5,5-9.9,6.9c-0.5,1.9-0.9,4.6-0.9,4.6"/>
	<line class="st0" x1="273.5" y1="87.6" x2="273.7" y2="95"/>
</g>
<g>
	<g>
		<ellipse class="st0" cx="31.9" cy="115.4" rx="15.1" ry="15.1"/>
		<ellipse class="st0" cx="31.9" cy="115.4" rx="20.9" ry="20.9"/>
		<ellipse class="st0" cx="33.1" cy="288.9" rx="15.1" ry="15.1"/>
		<ellipse class="st0" cx="33.1" cy="288.9" rx="20.9" ry="20.9"/>
		<path class="st0" d="M76.3,162.9c0,0,3.3,2.9,4.1,6.2c0.7,3.3,0.7,5.6-3.9,6.2c-4.6,0.6-5-1.8-5-2.7s0.6-6.2,0.6-6.2l0.3-1.2
			C72.8,163.4,74.6,162.5,76.3,162.9L76.3,162.9z"/>
		<path class="st0" d="M24.4,140.9c0,0,30.9,2.8,32.6-22.7c-0.7-33.7-32.8-25.9-33.3-29.1l1.1-21.9c0-0.8,0.7-1.4,1.5-1.5
			c5.3-0.3,23.9-1.1,31.2,0.7c1.4,0.3,8.2,10.3,9.9,17.4c1.8,7.1,5.7,46.8,5.7,46.8l0.4,11.7c0,0,24.1,43.6,25.2,56.4
			c0.6,7.4,2.1,45,2.5,51.1s-1.8,50.7-2.5,54.6c-0.5,2.9-2.1,10.9-2.8,14.6c-0.1,0.6-1,0.7-1.2,0.1l-1.3-3.1L73.3,348l-11,2.8"/>
		<line class="st0" x1="24" y1="135.2" x2="26.4" y2="269.1"/>
		<path class="st0" d="M71.8,154.8c1.2,0.6,19.3,27.2,21.4,46c2.9,5.8,1.4,67.1,1.4,69.2s0.5,23.2-5.1,30.8
			c-15.5,21.5-15.9,14.9-15.9,14.9l-1.8-99c0,0-0.4-56-0.4-61.8"/>
		<path class="st0" d="M32.5,150.8c0,0,20.8-1.1,24.5-1.1s14.6,4.8,14.6,4.8"/>
		<path class="st0" d="M32.5,140.9l-0.2,109.4c-0.1,3,1.6,5.8,4.4,7.1c8.1,3.9,23.8,13.6,24.2,28.2c1.1,34.4-35.1,29.2-35.1,29.2"/>
		<path class="st0" d="M62.3,350.9l6.3-1.7c0,0,3.6-18.6,0.8-18.6c-2.8,0-9.9,4.6-9.9,4.6L62.3,350.9z"/>
		<path class="st0" d="M25.8,309c0,0,0.4,4.6,0.4,5.7c0,0.9,3.5,27.3,4.6,35.9c0.2,1.7,1.4,3,3,3.5l6.3,2c0,0,6.4,0.7,7.8-0.7
			c1.4-1.4,2.8-5.3,2.8-5.3l11.7-2.5"/>
		<path class="st0" d="M94.6,225.7c-2.1-0.4-17.7-5.7-22-6.4s-32.6-5-40.8-3.2"/>
		<path class="st0" d="M94.8,266.3c0,0-15.5,11.9-22.2,12.2c-6.7,0.4-17-6.4-17-6.4"/>
		<path class="st0" d="M76.1,344c0,0-1.6-6.6-1.6-10.9c0-3.5,11-18.1,15.2-23.4c0.6-0.7,1.7-0.5,2,0.4l1.6,6"/>
		<path class="st0" d="M42.5,313.9c0,0,0.7,32.7,5.3,41.6"/>
		<path class="st0" d="M40,65.3c0,0,1.8,12.8,0.4,14.5C38.9,81.7,28.6,87,28.6,87L30,65.3"/>
		<path class="st0" d="M51.7,67.1c0,0,1.4,2.8-0.4,3.9c-1.8,1.1-2.8,0.7-2.8,3.2c0,2.5,2.8,15.3,2.8,15.3l8.2,6c0,0,0-15.6,0-18.8
			c0-3.2-2.1-10.3-2.1-10.3S53.1,65.7,51.7,67.1z"/>
		<path class="st0" d="M59.7,84c0,0,6.3,12.1,7.3,27.4c0.4,5.7,4.9,39.9,4.6,44.5"/>
		<path class="st0" d="M73.3,142.3c0.2,0.4-0.9,6.7-0.3,8.4s21.3,41,22.2,41.8s2.4,1.3,2.4,1.3"/>
	</g>
	<path class="st0" d="M29.7,344.8c1.6,1.3,9.5,5,9.9,6.9s0.9,4.6,0.9,4.6"/>
	<line class="st0" x1="23.7" y1="89.1" x2="23.4" y2="96.5"/>
</g>
<g>
	<polygon class="st0" points="118,45.4 108.7,55.6 107.4,55.8 104.9,41.1 	"/>
	<polygon class="st0" points="123.4,65.5 115.9,61.2 103.3,62.6 102.8,68.9 	"/>
	<polygon class="st0" points="105.4,55.9 103.5,43.9 101.8,47.2 103,56.3 	"/>
	<polygon class="st0" points="177.6,45.4 186.9,55.6 188.2,55.8 190.7,41.1 	"/>
	<polygon class="st0" points="172.2,65.5 179.6,61.2 192.3,62.6 192.7,68.9 	"/>
	<path class="st0" d="M151,44.3c0,0,15.1,0.5,18.1,1.4c2.9,0.9,7.9,12.6,7.9,12.6s-9.3,5.9-9.9,5.9c-0.7,0-18.1,0.2-18.1,0.2h-1.9
		c0,0-17.4-0.2-18.1-0.2c-0.7,0-9.9-5.9-9.9-5.9s5-11.7,7.9-12.6c2.9-0.9,18.1-1.4,18.1-1.4H151z"/>
	<polygon class="st0" points="115.5,39.7 145.7,39.7 150.3,39.7 180.5,39.7 170.6,42.4 149.6,42.4 146.4,42.4 125.4,42.4 	"/>
	<path class="st0" d="M190.9,36.9c0,0,5,1.4,5.2,2.3c0.2,0.9,1.8,31.3,1.8,31.3l-3.4,1.6l-25-4.7l-20.1,0.2h-2.8l-20.1-0.2l-25,4.7
		l-3.4-1.6c0,0,1.6-30.4,1.8-31.3s5.2-2.3,5.2-2.3H190.9z"/>
	<polygon class="st0" points="190.2,55.9 192.1,43.9 193.8,47.2 192.6,56.3 	"/>
</g>
<g>
	<g>
		<path class="st0" d="M172.3,82.6c0,0,15.6,39.3,17.2,57.9c0.8,8.5,0,15.8,0,15.8"/>
		<path class="st0" d="M148.4,81.2c10.4,0,20.4,0.2,22.4,0.7c2.4,0.6,15.9,10.4,19.6,14.8c1.3,1.5,5.1,2.2,5.3,2.8
			c0.9,3.2,1,70.6,1,70.6l-0.1,0.3c0,0-7.9,20.2-9.9,27.2c-1.5,5.6-3.4,70.9-3.7,103.9c-0.1,6.8,13.4,31.2,13.4,34.4"/>
	</g>
	<g>
		<path class="st0" d="M123.8,82.6c0,0-15.8,39.3-17.4,57.9c-0.8,8.5-0.3,16.7-0.3,16.7"/>
		<path class="st0" d="M149.7,81.3c-10.4,0-22.6,0.2-24.6,0.7c-2.4,0.6-15.9,10.4-19.6,14.8c-1.3,1.5-5.1,2.2-5.3,2.8
			c-0.9,3.2-1,70.6-1,70.6l0.1,0.3c0,0,7.9,20.2,9.9,27.2c1.5,5.6,3.4,70.9,3.7,103.9c0.1,6.8-13.4,31.2-13.4,34.4"/>
	</g>
	<path class="st0" d="M139.7,188.8c-11.9,1-25.7,4.5-26.9,4.5l-6.8-37c0,0,13.3-8.9,30.5-11.1c1-0.1,2-0.2,3-0.1l18,0.1
		c1.1,0,2.1,0.1,3.2,0.2c16.4,2.5,28.6,10.8,28.6,10.8l-6.8,37c-1,0-13.4-3.1-24.8-4.4c-4.5-0.5-8.8-0.7-12.3-0.3L139.7,188.8z"/>
	<path class="st0" d="M147,310.9c0,0,14-0.7,20.4-2.1c6.5-1.4,11.6-3.9,12.9-0.7c1.4,3.2,6.3,24.7,5.5,27.3
		c-0.8,2.6-9,12.2-38.3,11.5c-26.5-0.7-32.2-5.2-37-9.6c-1.8-1.7,2-21.2,5.4-29.2c1.4-3.2,6.5-0.7,12.9,0.7
		c8.6,1.9,15.8,1.9,20.4,2.1"/>
	<path class="st0" d="M196.8,334.9h-0.4l0.1,5.4c-0.6,2.1-4.9,7.5-5.5,8.9c-0.6,1.4-4.5,4.4-5.5,4.4h-6.1c-10.4,0-30.2,0-30.2,0
		h-2.3c0,0-19.9,0-30.2,0h-6.1c-1,0-4.9-3.1-5.5-4.4c-0.6-1.4-4.9-6.8-5.5-8.9c-0.2-0.6-0.1-2.7,0.1-5.4"/>
</g>
<g>
	<path class="st0" d="M165.6,372.9c0,0,1.9,4.8,3.1,4.9c1.2,0.2,17.8,2.3,18.4,1.3s0.4-7.2-1-7.8
		C184.8,370.8,165.2,371.6,165.6,372.9z"/>
	<line class="st0" x1="179" y1="366.8" x2="178.6" y2="371"/>
	<path class="st0" d="M195.8,380.3c-0.6-2.1-4.8-7.4-5.4-8.8c-0.6-1.3-4.5-4.4-5.4-4.4c-1,0-35.8,0-35.8,0h-2.2c0,0-34.8,0-35.8,0
		c-1,0-4.8,3-5.4,4.4c-0.6,1.3-4.8,6.7-5.4,8.8"/>
	<path class="st0" d="M130.5,372.9c0,0-1.9,4.8-3.1,4.9c-1.2,0.2-17.8,2.3-18.4,1.3c-0.6-1-0.4-7.2,1-7.8
		C111.3,370.8,130.9,371.6,130.5,372.9z"/>
	<line class="st0" x1="117.1" y1="366.8" x2="117.5" y2="371"/>
	<path class="st0" d="M118.5,379c0,0,0,7.6,2.9,8.4c2.9,0.8,23.4,0.4,23.4,0.4h6.5c0,0,20.5,0.4,23.4-0.4c2.9-0.8,2.9-8.4,2.9-8.4"
		/>
	<g>
		<line class="st0" x1="117" y1="366.8" x2="117.4" y2="371"/>
		<path class="st0" d="M195.7,380.3c0.6,2.1-1.7,22.6-1.9,23.8c-0.2,1.1-2.7,2.9-3.9,2.3l-1.8-2.5l-1.7-8.5
			c-0.3-1.6-1.7-2.7-3.4-2.7l-5.8,0.5c-0.7,0-1.4,0.3-2,0.7l-9.3,8.4H130l-9.3-8.4c-0.6-0.4-1.3-0.7-2-0.7l-5.8-0.5
			c-1.6,0-3,1.1-3.4,2.7l-1.7,8.5l-1.8,2.5c-1.2,0.6-3.7-1.1-3.9-2.3c-0.2-1.1-2.5-21.7-1.9-23.8"/>
		<line class="st0" x1="178.9" y1="366.8" x2="178.5" y2="371"/>
	</g>
	<polygon class="st0" points="165.4,399.2 170,395.3 126,395.3 130.6,399.2 	"/>
</g>
</svg>
