<svg width="326" height="409" viewBox="0 0 326 409" fill="none" xmlns="http://www.w3.org/2000/svg">
<g clip-path="url(#clip0_631_2777)">
<path d="M297.704 313.284C286.818 313.284 277.976 304.703 277.976 294.15C277.976 283.597 286.829 275.016 297.704 275.016C308.578 275.016 317.432 283.597 317.432 294.15C317.432 304.703 308.578 313.284 297.704 313.284ZM297.704 276.205C287.483 276.205 279.164 284.25 279.164 294.15C279.164 304.05 287.483 312.095 297.704 312.095C307.924 312.095 316.243 304.05 316.243 294.15C316.243 284.25 307.924 276.205 297.704 276.205Z" fill="#3F4D51"/>
<path d="M297.704 320.296C282.765 320.296 270.607 308.566 270.607 294.15C270.607 279.734 282.765 268.004 297.704 268.004C312.642 268.004 324.8 279.734 324.8 294.15C324.8 308.566 312.642 320.296 297.704 320.296ZM297.704 269.193C283.419 269.193 271.796 280.388 271.796 294.15C271.796 307.912 283.419 319.107 297.704 319.107C311.989 319.107 323.612 307.912 323.612 294.15C323.612 280.388 311.989 269.193 297.704 269.193Z" fill="#3F4D51"/>
<path d="M247.825 158.383C246.256 158.383 244.521 157.884 242.75 156.921C238.282 154.556 241.289 147.663 241.419 147.354C241.538 147.069 244.379 140.794 248.895 141.056C250.036 141.163 250.986 141.911 251.735 143.278C253.601 146.689 253.815 153.392 252.603 155.721C251.985 156.897 250.986 157.729 249.691 158.122C249.109 158.3 248.491 158.383 247.825 158.383ZM248.609 142.256C245.044 142.256 242.537 147.794 242.513 147.853C242.489 147.913 239.815 154.021 243.309 155.875C245.508 157.076 247.706 157.48 249.334 156.981C250.333 156.683 251.07 156.066 251.533 155.174C252.484 153.344 252.424 147.057 250.677 143.86C250.131 142.862 249.501 142.327 248.8 142.256C248.74 142.256 248.669 142.256 248.598 142.256H248.609Z" fill="#3F4D51"/>
<path d="M267.28 62.0484C267.28 62.0484 267.22 62.0484 267.185 62.0484C266.983 62.0127 266.804 61.882 266.733 61.6919C266.626 61.4304 264.059 55.3218 264.546 50.9365C265.034 46.5987 270.441 35.7483 270.667 35.2848C270.762 35.0947 270.94 34.9758 271.154 34.952C271.344 34.9402 271.558 35.0234 271.689 35.1897C272.307 36.0216 273.483 37.2101 274.173 37.2101C274.505 37.2101 274.933 37.0556 275.361 36.9011C276.3 36.5564 277.726 36.0454 278.606 37.4953C279.699 39.2661 277.857 50.0214 276.906 51.2455C275.955 52.5409 268.064 61.4779 267.731 61.8582C267.612 61.989 267.458 62.0603 267.28 62.0603V62.0484ZM271.332 36.6396C270.049 39.3017 266.127 47.597 265.735 51.0554C265.39 54.1809 266.792 58.4712 267.482 60.3133C269.443 58.0909 275.183 51.5783 275.943 50.5206C276.775 49.4153 278.308 39.3017 277.583 38.1133C277.251 37.5785 276.906 37.6141 275.765 38.0182C275.254 38.2084 274.719 38.3985 274.173 38.3985C273.115 38.3985 272.01 37.4002 271.332 36.6396Z" fill="#3F4D51"/>
<path d="M302.576 43.2711C301.067 43.2711 289.598 40.6209 289.028 36.9367C288.624 33.3952 293.14 31.7195 293.342 31.6482L293.746 32.7772C293.746 32.7772 289.919 34.2033 290.216 36.7822C290.597 39.278 300.663 42.0708 302.576 42.0708C303.218 41.7737 303.955 37.7092 304.121 33.3714L305.321 33.419C305.179 37.0912 304.632 43.2592 302.588 43.2592L302.576 43.2711Z" fill="#3F4D51"/>
<path d="M302.564 112.949C296.016 112.949 287.578 111.784 280.97 107.34C270.773 100.577 265.984 90.1311 267.802 78.6745C269.549 67.7409 277.084 58.3641 286.128 55.8684C303.36 51.1147 311.953 54.5611 312.309 54.7038L311.846 55.809C311.763 55.7734 303.23 52.3982 286.449 57.0212C277.833 59.3981 270.655 68.3708 268.991 78.8528C267.244 89.8221 271.843 99.8406 281.636 106.329C293.033 114.007 310.681 111.499 312.297 110.691L312.832 111.761C312.048 112.153 307.936 112.937 302.564 112.937V112.949Z" fill="#3F4D51"/>
<path d="M301.055 324.491C295.35 324.491 287.245 323.564 280.388 319.25C269.621 312.416 264.475 301.922 266.281 290.49C268.064 279.188 276.181 269.502 286.033 266.947C303.42 262.419 311.109 266.471 311.43 266.65L310.86 267.695C310.788 267.66 303.194 263.714 286.342 268.099C277.084 270.5 269.157 279.996 267.482 290.668C265.758 301.613 270.702 311.668 281.054 318.228C292.593 325.501 307.924 322.803 308.079 322.779L308.293 323.956C308.221 323.956 305.321 324.479 301.079 324.479L301.055 324.491Z" fill="#3F4D51"/>
<path d="M293.782 365.397C290.288 365.397 285.201 365.159 279.972 364.874C278.546 364.802 277.548 364.743 277.274 364.743C275.943 364.743 268.516 361.938 266.804 361.285C266.044 361.237 260.767 360.94 258.378 360.94C256.786 360.94 256.298 360.31 255.918 359.609C255.692 359.205 255.597 359.039 254.932 359.039C252.697 359.039 248.241 356.519 247.742 356.222C247.552 356.115 247.445 355.913 247.445 355.699C247.445 351.825 242.774 325.061 242.346 323.017C242.097 321.864 237.212 312.012 232.91 303.313C229.119 295.671 225.197 287.768 223.842 284.619C221.121 278.617 218.387 268.551 217.876 266.59C217.46 264.938 217.258 263.488 217.258 262.157V261.943C216.617 229.404 216.26 188.914 218.233 180.844C220.8 170.244 247.968 130.609 250.083 127.543C250.297 124.762 253.256 87.2432 255.193 76.3096C257.166 64.9125 264.071 35.6532 267.933 33.1337C271.463 30.8162 290.24 29.295 291.036 29.2356C291.191 29.2356 291.357 29.2712 291.476 29.3782L293.948 31.5174L304.585 32.6464C304.977 32.2186 305.892 31.6957 307.924 31.969C310.717 32.48 312.535 48.726 313.189 55.6783V61.2045H311.989V55.7377C311.002 45.3627 309.089 33.7398 307.71 33.1456C306.118 32.9316 305.512 33.3357 305.417 33.5021C305.321 33.7635 305.072 33.8943 304.799 33.8705L293.627 32.6821C293.508 32.6702 293.39 32.6226 293.294 32.5394L290.87 30.4478C285.344 30.8994 271.261 32.3731 268.587 34.132C265.461 36.1761 258.604 63.5814 256.37 76.5116C254.373 87.7661 251.295 127.4 251.271 127.793C251.271 127.9 251.224 127.995 251.164 128.09C250.867 128.518 221.965 170.553 219.409 181.13C217.9 187.333 217.567 216.022 218.471 261.92V262.145C218.471 263.381 218.661 264.736 219.053 266.293C219.564 268.23 222.262 278.213 224.959 284.131C226.302 287.257 230.224 295.148 234.003 302.778C239.767 314.401 243.285 321.543 243.547 322.767C243.927 324.598 248.431 350.244 248.657 355.331C250.142 356.151 253.446 357.814 254.956 357.814C256.322 357.814 256.703 358.504 256.988 359.003C257.225 359.431 257.38 359.716 258.402 359.716C261.005 359.716 266.757 360.061 266.994 360.073C267.054 360.073 267.113 360.084 267.173 360.108C270.619 361.427 276.431 363.519 277.298 363.519C277.583 363.519 278.605 363.578 280.067 363.65C284.476 363.887 296.206 364.517 297.763 363.911C299.415 363.364 301.198 354.974 302.16 350.47L302.505 348.889C303.753 343.767 307.021 323.374 307.247 322.019L306.902 317.455L308.091 317.36L308.447 321.995C308.447 321.995 308.447 322.09 308.447 322.138C308.304 323.017 304.977 343.85 303.681 349.163L303.349 350.72C301.709 358.397 300.282 364.339 298.179 365.028C297.585 365.266 296.016 365.349 293.829 365.349L293.782 365.397Z" fill="#3F4D51"/>
<path d="M266.234 360.857L259.983 337.944C259.08 338.312 257.368 339.311 257.059 341.533C256.703 344.956 255.395 358.504 255.395 358.504L254.207 358.385C254.207 358.385 255.514 344.837 255.871 341.39C256.394 337.564 260.09 336.625 260.244 336.589C260.565 336.518 260.874 336.696 260.957 337.017L267.375 360.548L266.222 360.869L266.234 360.857Z" fill="#3F4D51"/>
<path d="M249.108 292.534C248.431 292.534 247.849 292.427 247.361 292.201C246.672 291.892 246.363 291.44 246.232 291.179C244.533 289.669 226.231 273.091 223.676 258.235C220.455 240.242 222.796 188.593 223.676 182.461C224.579 176.281 241.086 144.336 250.368 135.993C250.677 135.684 251.022 135.339 251.224 135.042C252.448 133.378 257.273 127.935 268.896 126.818C280.935 125.737 300.092 129.338 303.67 130.039L303.883 111.844H305.084L303.301 260.054C303.301 260.375 303.04 260.636 302.707 260.648C302.505 260.648 282.967 261.135 272.105 271.997C270.607 273.495 268.908 275.824 267.113 278.296C263.488 283.276 259.388 288.921 254.694 291.024C252.424 292.046 250.558 292.546 249.108 292.546V292.534ZM247.302 290.644C247.302 290.644 247.433 290.941 247.92 291.143C248.609 291.428 250.356 291.642 254.207 289.919C258.616 287.946 262.621 282.444 266.151 277.583C267.969 275.076 269.692 272.711 271.261 271.142C281.398 261.004 298.726 259.638 302.113 259.459L303.658 131.251C300.782 130.68 281.161 126.913 269.003 128.006C257.594 129.112 253.007 134.626 252.198 135.731C251.949 136.112 251.568 136.492 251.2 136.86C241.491 145.607 225.625 177.362 224.852 182.651C223.985 188.759 221.644 240.147 224.852 258.045C227.408 272.877 246.922 290.204 247.124 290.383C247.207 290.454 247.266 290.549 247.302 290.656V290.644Z" fill="#3F4D51"/>
<path d="M223.295 211.779L223.082 210.603L249.049 205.861C250 205.457 260.838 200.965 272.057 201.202C287.364 201.559 303.812 203.924 303.978 203.948L303.812 205.136C303.646 205.112 287.269 202.759 272.033 202.414C260.66 202.165 249.584 206.954 249.465 207.002C249.417 207.026 249.382 207.037 249.334 207.037L223.307 211.791L223.295 211.779Z" fill="#3F4D51"/>
<path d="M310.777 271.463L310.658 265.865L312.322 108.861L312.203 104.963L313.403 104.927L313.522 108.849L311.858 265.865L311.977 271.427L310.777 271.463Z" fill="#3F4D51"/>
<path d="M247.67 288.921C247.504 288.921 247.349 288.849 247.231 288.731C246.387 287.816 226.528 266.234 225.328 254.634C223.509 236.998 224.032 189.282 226.671 182.223C229.261 175.378 240.136 153.736 240.243 153.522L241.312 154.057C241.205 154.271 230.367 175.853 227.788 182.639C225.197 189.591 224.71 236.962 226.516 254.504C227.526 264.261 243 282.194 247.112 286.805L250.867 155.911L252.067 155.947L248.264 288.338C248.264 288.576 248.11 288.79 247.872 288.885C247.801 288.909 247.73 288.921 247.658 288.921H247.67Z" fill="#3F4D51"/>
<path d="M298.892 101.861C288.006 101.861 279.164 93.2804 279.164 82.7271C279.164 72.1738 288.018 63.5933 298.892 63.5933C309.766 63.5933 318.62 72.1738 318.62 82.7271C318.62 93.2804 309.766 101.861 298.892 101.861ZM298.892 64.7817C288.672 64.7817 280.352 72.8274 280.352 82.7271C280.352 92.6268 288.672 100.672 298.892 100.672C309.113 100.672 317.432 92.6268 317.432 82.7271C317.432 72.8274 309.113 64.7817 298.892 64.7817Z" fill="#3F4D51"/>
<path d="M298.892 108.873C283.954 108.873 271.796 97.1429 271.796 82.7271C271.796 68.3114 283.954 56.5815 298.892 56.5815C313.831 56.5815 325.989 68.3114 325.989 82.7271C325.989 97.1429 313.831 108.873 298.892 108.873ZM298.892 57.77C284.607 57.77 272.984 68.9651 272.984 82.7271C272.984 96.4892 284.607 107.684 298.892 107.684C313.177 107.684 324.8 96.4892 324.8 82.7271C324.8 68.9651 313.177 57.77 298.892 57.77Z" fill="#3F4D51"/>
<path d="M28.2847 313.284C17.3986 313.284 8.55664 304.703 8.55664 294.15C8.55664 283.597 17.4105 275.016 28.2847 275.016C39.1589 275.016 48.0127 283.597 48.0127 294.15C48.0127 304.703 39.1589 313.284 28.2847 313.284ZM28.2847 276.205C18.0641 276.205 9.74508 284.25 9.74508 294.15C9.74508 304.05 18.0641 312.095 28.2847 312.095C38.5052 312.095 46.8243 304.05 46.8243 294.15C46.8243 284.25 38.5052 276.205 28.2847 276.205Z" fill="#3F4D51"/>
<path d="M28.2848 320.296C13.3462 320.296 1.18848 308.566 1.18848 294.15C1.18848 279.734 13.3462 268.004 28.2848 268.004C43.2235 268.004 55.3812 279.734 55.3812 294.15C55.3812 308.566 43.2235 320.296 28.2848 320.296ZM28.2848 269.193C13.9998 269.193 2.37691 280.388 2.37691 294.15C2.37691 307.912 13.9998 319.107 28.2848 319.107C42.5698 319.107 54.1927 307.912 54.1927 294.15C54.1927 280.388 42.5698 269.193 28.2848 269.193Z" fill="#3F4D51"/>
<path d="M78.294 158.383C77.6404 158.383 77.0105 158.3 76.4282 158.122C75.1328 157.729 74.1226 156.897 73.5165 155.721C72.3043 153.403 72.5182 146.701 74.3841 143.278C75.1328 141.911 76.0835 141.163 77.2126 141.056C81.6335 140.806 84.5809 147.081 84.6997 147.342C84.8304 147.64 87.8491 154.544 83.3687 156.921C81.6098 157.884 79.8628 158.383 78.294 158.383ZM77.4859 142.256C77.4265 142.256 77.3552 142.256 77.2957 142.256C76.6065 142.315 75.9766 142.862 75.4299 143.86C73.6829 147.057 73.6235 153.344 74.5742 155.174C75.0377 156.066 75.7864 156.672 76.7728 156.981C78.401 157.48 80.5996 157.076 82.7863 155.875C86.2566 154.033 83.6776 148.032 83.5945 147.853C83.5113 147.675 80.9205 142.256 77.474 142.256H77.4859Z" fill="#3F4D51"/>
<path d="M58.7089 62.0483C58.5425 62.0483 58.3762 61.977 58.2573 61.8463C57.9127 61.4541 49.9145 52.315 49.0826 51.2454C48.1794 50.0807 46.3611 39.3848 47.3594 37.519C48.2626 36.0453 49.6887 36.5563 50.6276 36.901C51.0435 37.0555 51.4832 37.21 51.816 37.21C52.5053 37.21 53.6937 36.0334 54.2998 35.2015C54.4187 35.0351 54.6207 34.9401 54.8346 34.9638C55.0367 34.9876 55.2268 35.1064 55.3219 35.2966C55.5477 35.7601 60.967 46.6105 61.4423 50.9483C61.9296 55.3336 59.3744 61.4422 59.2556 61.7036C59.1724 61.8938 59.006 62.0245 58.804 62.0602C58.7683 62.0602 58.7446 62.0602 58.7089 62.0602V62.0483ZM49.035 37.7091C48.7498 37.7091 48.5716 37.8398 48.4052 38.1132C47.7397 39.3373 49.2609 49.4627 50.0333 50.5086C50.7107 51.3761 56.5341 58.0551 58.5069 60.3132C59.1843 58.4711 60.5985 54.1808 60.2539 51.0552C59.8736 47.5969 55.9518 39.2897 54.6564 36.6395C53.9789 37.3882 52.8737 38.3984 51.816 38.3984C51.2693 38.3984 50.7464 38.2083 50.2235 38.0181C49.6768 37.8161 49.3084 37.7091 49.035 37.7091Z" fill="#3F4D51"/>
<path d="M23.4121 43.2711C21.3561 43.2711 20.8213 37.0318 20.6787 33.312L21.879 33.2645C22.0454 37.6498 22.7822 41.7737 23.4478 42.0827C25.3255 42.0827 35.3916 39.278 35.7837 36.7585C36.0808 34.1914 32.2897 32.7891 32.2541 32.7772L32.6581 31.6482C32.8483 31.7195 37.3762 33.3952 36.9722 36.913C36.4017 40.6209 24.9333 43.2711 23.424 43.2711H23.4121Z" fill="#3F4D51"/>
<path d="M23.5547 112.949C18.183 112.949 14.0829 112.165 13.2866 111.773L13.8214 110.703C15.4258 111.511 33.0741 114.019 44.4712 106.341C54.2639 99.8525 58.875 89.834 57.1162 78.8647C55.4405 68.3827 48.2623 59.41 39.658 57.0332C22.8773 52.3983 14.3443 55.7853 14.2611 55.821L13.7976 54.7157C14.1542 54.5731 22.7466 51.1266 39.9789 55.8804C49.0229 58.3761 56.5695 67.7529 58.3046 78.6865C60.1348 90.143 55.3335 100.589 45.1367 107.352C38.529 111.796 30.103 112.961 23.5428 112.961L23.5547 112.949Z" fill="#3F4D51"/>
<path d="M24.9455 324.491C20.7028 324.491 17.7911 323.98 17.7317 323.968L17.9456 322.791C18.1001 322.815 33.431 325.513 44.9707 318.24C55.3101 311.667 60.254 301.625 58.5426 290.68C56.8669 280.008 48.9282 270.512 39.6821 268.111C22.8301 263.726 15.236 267.66 15.1647 267.707L14.5942 266.661C14.9151 266.483 22.6043 262.442 39.9911 266.959C49.8433 269.514 57.9603 279.199 59.7429 290.501C61.5375 301.946 56.4034 312.428 45.6362 319.262C38.7908 323.576 30.6738 324.503 24.9693 324.503L24.9455 324.491Z" fill="#3F4D51"/>
<path d="M32.2662 365.385C30.0438 365.385 28.4513 365.29 27.8452 365.052C25.7655 364.363 24.3512 358.432 22.7112 350.743L22.3784 349.163C21.083 343.862 17.7554 323.041 17.6128 322.15C17.6128 322.102 17.6128 322.054 17.6128 322.007L17.9693 317.372L19.1578 317.467L18.8012 322.031C19.0152 323.385 22.2834 343.779 23.5312 348.889L23.8759 350.482C24.8385 354.986 26.633 363.376 28.2493 363.911C29.8299 364.529 41.5598 363.899 45.9808 363.662C47.4307 363.578 48.4646 363.531 48.738 363.531C49.6055 363.531 55.417 361.439 58.8634 360.12C58.9229 360.096 58.9823 360.084 59.0417 360.084C59.2913 360.073 65.0314 359.728 67.6341 359.728C68.6562 359.728 68.8106 359.443 69.0483 359.015C69.3217 358.516 69.7139 357.826 71.0806 357.826C72.5899 357.826 75.9056 356.163 77.3793 355.343C77.6051 350.375 81.9548 325.346 82.4896 322.779C82.751 321.555 86.2688 314.413 92.0327 302.79C95.8119 295.16 99.7219 287.281 101.065 284.167C103.763 278.225 106.46 268.242 106.983 266.305C107.364 264.76 107.554 263.405 107.554 262.181V262.027C108.469 216.082 108.136 187.369 106.615 181.153C104.06 170.564 75.145 128.529 74.8479 128.114C74.7885 128.03 74.7528 127.923 74.7409 127.816C74.7053 127.412 71.6272 87.778 69.6426 76.5354C67.4083 63.6052 60.551 36.1998 57.4254 34.1438C54.7396 32.3849 40.6685 30.9113 35.1422 30.4597L32.7178 32.5513C32.6228 32.6345 32.5158 32.6821 32.3851 32.6939L21.2138 33.8824C20.9285 33.918 20.6552 33.7398 20.572 33.4545C20.572 33.4545 20.2036 32.8128 18.2783 33.1574C16.9116 33.7398 14.9982 45.3627 14.0118 55.7971V61.2045H12.8115V55.7377C13.4652 48.726 15.2954 32.48 18.0525 31.969C20.1323 31.5887 21.0474 32.171 21.4396 32.6345L32.0523 31.5055L34.5243 29.3663C34.6431 29.2594 34.7976 29.2118 34.964 29.2237C35.7602 29.2831 54.5256 30.8043 58.0672 33.1218C61.9296 35.6531 68.8344 64.9006 70.8072 76.3096C72.7444 87.2432 75.6917 124.762 75.9175 127.543C78.0329 130.621 105.201 170.244 107.768 180.856C109.301 187.167 109.645 215.987 108.742 262.038V262.181C108.742 263.5 108.54 264.95 108.124 266.59C107.601 268.551 104.88 278.617 102.146 284.642C100.791 287.78 96.8815 295.671 93.0904 303.313C88.7764 312.012 83.8919 321.864 83.6542 323.017C83.2264 325.061 78.5558 351.789 78.5558 355.699C78.5558 355.913 78.437 356.115 78.2587 356.222C77.7596 356.507 73.3029 359.039 71.0687 359.039C70.4032 359.039 70.3081 359.205 70.0823 359.609C69.6901 360.31 69.2147 360.94 67.6222 360.94C65.2335 360.94 59.9568 361.249 59.1962 361.285C57.4849 361.938 50.0571 364.743 48.7261 364.743C48.4527 364.743 47.4544 364.803 46.0283 364.874C40.8111 365.159 35.7602 365.397 32.2543 365.397L32.2662 365.385Z" fill="#3F4D51"/>
<path d="M59.7666 360.857L58.6138 360.536L65.0313 337.005C65.1145 336.696 65.4354 336.518 65.7444 336.577C65.8989 336.613 69.5949 337.552 70.1178 341.355C70.4744 344.825 71.7816 358.373 71.7816 358.373L70.5932 358.492C70.5932 358.492 69.2859 344.944 68.9294 341.497C68.6204 339.287 66.9209 338.3 66.0177 337.932L59.7666 360.845V360.857Z" fill="#3F4D51"/>
<path d="M77.0105 292.534C75.5606 292.534 73.6948 292.023 71.4249 291.013C66.7306 288.909 62.6186 283.264 59.0057 278.284C57.2112 275.824 55.5236 273.495 54.0143 271.998C43.152 261.135 23.6022 260.648 23.4121 260.648C23.0912 260.648 22.8297 260.375 22.8297 260.054L20.9282 111.856H22.1285L22.3662 130.063C25.6582 129.409 45.0891 125.737 57.235 126.818C68.8697 127.947 73.6948 133.378 74.8951 135.018C75.1209 135.351 75.4537 135.684 75.7864 136.017C85.0444 144.348 101.552 176.281 102.455 182.461C103.334 188.593 105.676 240.242 102.455 258.235C99.781 273.091 81.5741 289.67 79.8984 291.167C79.7677 291.428 79.4587 291.88 78.7694 292.189C78.2822 292.415 77.6998 292.522 77.0224 292.522L77.0105 292.534ZM24.0063 259.46C27.3933 259.638 44.7207 261.004 54.8581 271.142C56.4268 272.711 58.15 275.076 59.9684 277.571C63.498 282.432 67.503 287.934 71.9121 289.907C75.7627 291.631 77.5097 291.417 78.199 291.131C78.6981 290.929 78.8288 290.632 78.8288 290.62C78.8645 290.537 78.9239 290.43 78.9952 290.371C79.1854 290.192 98.6044 272.865 101.267 258.033C104.463 240.136 102.134 188.748 101.267 182.639C100.494 177.35 84.6403 145.595 74.9545 136.884C74.5624 136.492 74.1821 136.112 73.9087 135.696C73.1243 134.626 68.537 129.1 57.1161 127.995C44.8158 126.901 24.8382 130.764 22.3662 131.263L24.0063 259.448V259.46Z" fill="#3F4D51"/>
<path d="M102.693 211.78L76.6658 207.026C76.6658 207.026 76.5707 207.002 76.5351 206.99C76.4281 206.943 65.3043 202.153 53.9667 202.403C38.7309 202.759 22.3542 205.101 22.1879 205.124L22.0215 203.936C22.1879 203.912 38.6358 201.547 53.9429 201.191C65.1261 200.977 76.0003 205.445 76.951 205.849L102.906 210.591L102.693 211.768V211.78Z" fill="#3F4D51"/>
<path d="M15.2238 271.463L14.0235 271.427L14.1423 265.841L12.4785 108.873L12.5974 104.927L13.7977 104.963L13.6788 108.884L15.3426 265.853L15.2238 271.463Z" fill="#3F4D51"/>
<path d="M78.3178 288.921C78.2465 288.921 78.1752 288.909 78.1039 288.885C77.8781 288.802 77.7236 288.588 77.7117 288.338L73.9087 155.947L75.109 155.911L78.8645 286.805C82.9765 282.194 98.4499 264.261 99.4601 254.504C101.267 236.962 100.779 189.591 98.1885 182.639C95.6214 175.734 84.771 154.39 84.664 154.176L85.7336 153.629C85.8406 153.843 96.7148 175.247 99.3056 182.211C101.932 189.27 102.455 236.986 100.649 254.622C99.4482 266.21 79.5894 287.804 78.7456 288.719C78.6268 288.849 78.4723 288.909 78.3059 288.909L78.3178 288.921Z" fill="#3F4D51"/>
<path d="M27.0962 101.861C16.2101 101.861 7.36816 93.2804 7.36816 82.7271C7.36816 72.1738 16.222 63.5933 27.0962 63.5933C37.9704 63.5933 46.8243 72.1738 46.8243 82.7271C46.8243 93.2804 37.9704 101.861 27.0962 101.861ZM27.0962 64.7817C16.8757 64.7817 8.5566 72.8274 8.5566 82.7271C8.5566 92.6268 16.8757 100.672 27.0962 100.672C37.3168 100.672 45.6358 92.6268 45.6358 82.7271C45.6358 72.8274 37.3168 64.7817 27.0962 64.7817Z" fill="#3F4D51"/>
<path d="M27.0963 108.873C12.1577 108.873 0 97.1429 0 82.7271C0 68.3114 12.1577 56.5815 27.0963 56.5815C42.035 56.5815 54.1927 68.3114 54.1927 82.7271C54.1927 97.1429 42.035 108.873 27.0963 108.873ZM27.0963 57.77C12.8113 57.77 1.18844 68.9651 1.18844 82.7271C1.18844 96.4892 12.8113 107.684 27.0963 107.684C41.3814 107.684 53.0043 96.4892 53.0043 82.7271C53.0043 68.9651 41.3814 57.77 27.0963 57.77Z" fill="#3F4D51"/>
<path d="M104.594 52.1249C104.428 52.1249 104.333 52.0655 104.249 52.0298C104.131 51.9704 103.774 51.7208 103.881 51.1266C104.024 50.366 103.097 48.108 102.395 46.7532C102.348 46.6462 102.324 46.5274 102.336 46.4204C102.491 44.9468 106.032 10.2444 106.496 6.8217C107.054 2.74537 109.966 0.0119629 113.745 0.0119629C117.524 0.0119629 137.561 6.1443 139.273 6.66721H164.848V7.86753H139.178C139.118 7.86753 139.059 7.86753 138.999 7.84376C138.785 7.77245 117.417 1.21228 113.745 1.21228C109.859 1.21228 108.052 4.32599 107.684 6.98809C107.232 10.2563 103.822 43.6276 103.548 46.361C103.917 47.0978 104.939 49.2132 105.081 50.6512C105.723 50.2234 106.781 49.3321 107.636 48.5239L108.456 49.4034C106.02 51.6852 105.058 52.113 104.606 52.113L104.594 52.1249Z" fill="#3F4D51"/>
<path d="M109.693 50.5204C108.777 50.5204 107.993 50.152 107.435 49.4389C105.331 46.7887 106.781 40.0503 107.09 38.7311C107.886 35.3441 118.915 31.9333 124.12 30.8161C129.682 29.6158 130.241 30.3526 130.49 30.6616C131.691 32.2185 130.264 34.4527 128.47 37.2931C128.03 37.9943 127.555 38.743 127.079 39.5274C125.142 42.9738 126.343 45.5052 126.39 45.6122C126.461 45.7667 126.473 45.9568 126.402 46.1113C126.331 46.2658 126.2 46.3965 126.034 46.4441C125.523 46.6104 113.424 50.5085 109.681 50.5085L109.693 50.5204ZM128.862 31.2915C126.473 31.2915 119.046 32.991 113.412 35.4391C109.075 37.3169 108.361 38.5647 108.255 39.0044C107.387 42.6648 107.09 47.0858 108.373 48.6902C108.718 49.118 109.134 49.3201 109.693 49.3201C112.794 49.3201 122.563 46.2896 125.083 45.4933C124.75 44.3762 124.37 41.9161 126.057 38.9213C126.533 38.1131 127.02 37.3525 127.472 36.6395C128.957 34.2982 130.241 32.266 129.551 31.3747C129.432 31.3034 129.195 31.2796 128.874 31.2796L128.862 31.2915Z" fill="#3F4D51"/>
<path d="M117.893 18.2306C115.73 18.2306 113.567 17.8979 112.39 16.852C110.679 15.2833 109.859 11.9438 109.586 10.5771C109.49 9.98288 109.621 9.42431 109.942 9.04401C110.215 8.72313 110.584 8.55675 111 8.55675C111.618 8.55675 112.485 8.55675 113.484 8.53298C120.899 8.46168 125.118 8.50922 126.105 8.96082C126.331 9.02024 126.699 9.07966 127.079 9.15097C128.208 9.34112 129.492 9.56692 130.015 10.5414C130.336 11.1475 130.288 11.9081 129.848 12.847C129.825 12.9064 129.789 12.9659 129.741 13.0015C129.587 13.156 126.022 16.9352 123.502 17.5651C122.421 17.8503 120.163 18.2187 117.893 18.2187V18.2306ZM117.881 9.70954C116.241 9.70954 114.66 9.72142 113.495 9.7333C112.497 9.7333 111.63 9.75707 111 9.75707C110.94 9.75707 110.893 9.78084 110.845 9.82838C110.774 9.91157 110.703 10.1017 110.75 10.3751C110.94 11.3258 111.689 14.6059 113.175 15.9726C114.957 17.5651 120.567 17.1254 123.193 16.4242C124.964 15.9845 127.757 13.3462 128.779 12.2647C128.945 11.8844 129.088 11.3971 128.933 11.1C128.696 10.6484 127.674 10.4701 126.854 10.3275C126.438 10.2562 126.022 10.1849 125.677 10.078C124.988 9.76896 121.292 9.69765 117.857 9.69765L117.881 9.70954Z" fill="#3F4D51"/>
<path d="M129.012 44.9267L125.799 45.2837L125.932 46.4767L129.145 46.1197L129.012 44.9267Z" fill="#3F4D51"/>
<path d="M192.408 22.5923H187.297C187.155 22.5923 187.012 22.5448 186.905 22.4497L183.744 19.7401H141.162L138.001 22.4497C137.894 22.5448 137.751 22.5923 137.609 22.5923H132.499C132.273 22.5923 132.083 22.4735 131.976 22.2833C131.869 22.0932 131.881 21.8555 131.999 21.6653C132.213 21.3445 137.157 13.7504 138.952 11.837C140.354 10.3395 157.289 10.2207 162.447 10.2207C167.605 10.2207 184.54 10.3395 185.943 11.837C187.737 13.7504 192.693 21.3445 192.895 21.6653C193.014 21.8436 193.026 22.0813 192.919 22.2833C192.812 22.4735 192.61 22.5923 192.396 22.5923H192.408ZM187.523 21.392H191.302C189.9 19.2766 186.477 14.1425 185.099 12.6689C182.686 10.9813 142.149 10.9813 139.831 12.6689C138.476 14.1069 135.042 19.2647 133.628 21.3801H137.407L140.568 18.6705C140.675 18.5754 140.818 18.5279 140.96 18.5279H183.982C184.124 18.5279 184.267 18.5754 184.374 18.6705L187.535 21.3801L187.523 21.392Z" fill="#3F4D51"/>
<path d="M220.336 52.125C219.873 52.125 218.922 51.6971 216.486 49.4153L217.306 48.5359C218.161 49.344 219.219 50.2235 219.861 50.6632C220.003 49.2252 221.025 47.0979 221.394 46.3729C221.109 43.6395 217.71 10.2682 217.258 7.00005C216.89 4.33795 215.083 1.22425 211.197 1.22425C207.525 1.22425 186.157 7.78441 185.943 7.85572C185.883 7.87949 185.824 7.87949 185.764 7.87949H160.094V6.67917H185.669C187.369 6.15626 207.43 0.0239258 211.197 0.0239258C214.964 0.0239258 217.888 2.75733 218.446 6.83367C218.922 10.2564 222.463 44.9587 222.606 46.4324C222.606 46.5512 222.606 46.67 222.547 46.7651C221.845 48.1199 220.918 50.378 221.061 51.1386C221.168 51.7328 220.811 51.9824 220.693 52.0418C220.609 52.0893 220.514 52.1369 220.348 52.1369L220.336 52.125Z" fill="#3F4D51"/>
<path d="M215.226 50.5204C211.494 50.5204 199.396 46.6223 198.873 46.4559C198.706 46.3965 198.576 46.2777 198.504 46.1232C198.433 45.9687 198.445 45.7785 198.516 45.624C198.576 45.5171 199.764 42.9738 197.815 39.5274C197.292 38.5885 196.734 37.7091 196.223 36.889C194.571 34.2388 193.263 32.1591 194.416 30.6616C194.654 30.3526 195.224 29.6158 200.786 30.8161C206.003 31.9451 217.02 35.3559 217.816 38.7311C218.125 40.0503 219.575 46.7887 217.472 49.4389C216.913 50.152 216.129 50.5204 215.214 50.5204H215.226ZM199.835 45.5052C202.355 46.3014 212.124 49.332 215.226 49.332C215.784 49.332 216.212 49.1299 216.545 48.7021C217.816 47.0977 217.519 42.6767 216.664 39.0163C216.557 38.5647 215.844 37.3288 211.506 35.451C205.1 32.6701 196.365 30.8518 195.319 31.4579C194.737 32.2304 195.902 34.1081 197.245 36.2592C197.767 37.0911 198.326 37.9824 198.861 38.945C200.548 41.9399 200.168 44.3999 199.835 45.5171V45.5052Z" fill="#3F4D51"/>
<path d="M166.262 50.164H158.656C158.371 50.164 130.039 50.0452 128.494 45.7193C127.056 41.5241 131.726 32.492 133.473 30.4003C134.424 29.1881 139.95 23.1628 154.069 24.2442H170.873C183.637 23.2578 189.496 28.2136 191.433 30.3885C193.24 32.6821 197.851 41.7143 196.425 45.7193C194.915 50.1046 166.559 50.164 166.274 50.164H166.262ZM150.86 25.3257C139.368 25.3257 134.911 30.5192 134.4 31.1609C132.689 33.2169 128.399 41.7737 129.623 45.3271C130.526 47.8822 150.753 48.9637 158.644 48.9637H166.25C175.627 48.9637 194.404 47.8704 195.272 45.3271C196.484 41.9282 192.241 33.3596 190.494 31.1609C189.104 29.5922 183.506 24.4819 170.921 25.4446H153.997C152.892 25.3614 151.835 25.3257 150.836 25.3257H150.86Z" fill="#3F4D51"/>
<path d="M199.895 3.81497C193.358 3.81497 186.691 3.48221 180.238 3.14945C174.498 2.86422 168.568 2.55523 162.804 2.50769C156.766 2.50769 150.67 2.78103 144.775 3.04249C138.286 3.3396 131.572 3.63671 124.893 3.57729V2.37697C131.548 2.43639 138.239 2.13928 144.716 1.84217C150.622 1.58071 156.731 1.30737 162.804 1.30737C168.603 1.36679 174.545 1.6639 180.286 1.94913C186.715 2.27001 193.37 2.61465 199.883 2.61465V3.81497H199.895Z" fill="#3F4D51"/>
<path d="M191.077 6.31058C190.863 6.31058 169.614 5.12214 162.578 5.0033C155.435 5.0033 133.723 6.06101 133.497 6.07289L133.438 4.87257C133.651 4.87257 155.4 3.80298 162.578 3.80298C169.649 3.92182 190.922 5.09837 191.136 5.11026L191.065 6.31058H191.077Z" fill="#3F4D51"/>
<path d="M207.026 18.2308C204.756 18.2308 202.498 17.8624 201.416 17.5771C198.909 16.9473 195.343 13.168 195.189 13.0135C195.141 12.966 195.106 12.9066 195.082 12.859C194.654 11.9202 194.595 11.1596 194.915 10.5535C195.426 9.57895 196.71 9.35315 197.851 9.163C198.231 9.10358 198.588 9.03227 198.909 8.94908C199.824 8.53313 204.031 8.48559 211.447 8.5569C212.445 8.5569 213.3 8.58066 213.93 8.58066C214.346 8.58066 214.727 8.75893 214.988 9.06792C215.309 9.44822 215.44 10.0068 215.345 10.5772C215.071 11.9558 214.251 15.2953 212.54 16.8641C211.351 17.9218 209.189 18.2545 207.026 18.2545V18.2308ZM196.128 12.2648C197.15 13.3344 199.942 15.9727 201.713 16.4125C204.352 17.1018 209.949 17.5415 211.744 15.949C213.229 14.5942 213.978 11.3141 214.168 10.3395C214.204 10.09 214.144 9.89983 214.073 9.81664C214.037 9.7691 213.99 9.74533 213.93 9.74533C213.312 9.74533 212.445 9.74533 211.435 9.72156C207.81 9.68591 200.263 9.6146 199.313 10.0424C198.885 10.1732 198.469 10.2445 198.053 10.3158C197.233 10.4584 196.223 10.6248 195.973 11.0883C195.819 11.3854 195.961 11.8726 196.128 12.2529V12.2648Z" fill="#3F4D51"/>
<path d="M195.943 44.9298L195.811 46.1228L199.023 46.4803L199.156 45.2874L195.943 44.9298Z" fill="#3F4D51"/>
<path d="M198.422 370.471C197.839 370.471 197.316 370.448 196.853 370.4C195.914 370.305 194.642 370.067 194.428 369.14C193.929 366.894 204.673 353.084 207.977 348.913C208.072 348.782 208.226 348.711 208.381 348.687C210.876 348.402 214.263 352.93 214.632 353.441C214.691 353.536 214.739 353.643 214.739 353.75C214.763 354.095 215.321 362.259 213.741 365.801C212.457 368.653 203.52 370.459 198.41 370.459L198.422 370.471ZM208.749 349.888C202.177 358.207 195.51 367.548 195.617 368.903C195.819 369.128 197.768 369.556 202.118 369.01C207.489 368.332 212.029 366.751 212.671 365.325C214.014 362.319 213.657 355.212 213.586 354.023C212.374 352.383 210.14 350.018 208.761 349.888H208.749Z" fill="#3F4D51"/>
<path d="M220.847 374.144C220.586 373.977 214.549 369.865 213.574 361.95L214.763 361.808C215.666 369.152 221.454 373.11 221.513 373.145L220.847 374.144Z" fill="#3F4D51"/>
<path d="M126.497 370.471C121.399 370.471 112.45 368.665 111.167 365.813C109.574 362.271 110.145 354.107 110.168 353.762C110.168 353.655 110.216 353.548 110.275 353.453C110.644 352.942 113.995 348.414 116.526 348.699C116.681 348.711 116.835 348.794 116.931 348.925C120.234 353.108 130.978 366.906 130.479 369.152C130.277 370.079 129.005 370.317 128.054 370.412C127.591 370.459 127.068 370.483 126.486 370.483L126.497 370.471ZM111.345 354.012C111.274 355.2 110.905 362.319 112.26 365.314C112.902 366.752 117.442 368.332 122.813 368.998C127.151 369.544 129.1 369.105 129.326 368.831C129.409 367.524 122.742 358.195 116.17 349.876C114.779 350.006 112.557 352.371 111.345 354.012Z" fill="#3F4D51"/>
<path d="M104.083 374.144L103.418 373.145C103.418 373.145 109.265 369.152 110.168 361.808L111.357 361.95C110.382 369.853 104.345 373.965 104.083 374.144Z" fill="#3F4D51"/>
<path d="M160.914 375.201C160.071 375.177 140.675 374.559 136.29 371.03C132.297 367.928 127.567 356.768 126.64 354.522H120.983V353.322H127.044C127.294 353.322 127.507 353.465 127.603 353.702C127.65 353.833 132.939 366.906 137.039 370.091C141.115 373.383 160.736 374.001 160.938 374.001H164.135C164.313 374.001 183.934 373.371 187.999 370.091C192.111 366.787 197.399 353.821 197.447 353.69C197.542 353.465 197.756 353.322 198.005 353.322H204.067V354.522H198.41C197.483 356.745 192.753 367.809 188.759 371.03C184.374 374.559 164.979 375.177 164.159 375.201H160.938H160.914Z" fill="#3F4D51"/>
<path d="M210.116 408.834C209.961 408.834 209.819 408.775 209.712 408.68C209.593 408.573 209.522 408.406 209.522 408.24C209.522 408.24 209.498 407.063 208.595 404.14C207.62 401.335 205.362 400.23 205.338 400.23C205.184 400.158 205.077 400.028 205.029 399.861L203.366 394.43C200.632 394.264 194.488 394.074 193.014 394.751C191.422 395.5 191.802 398.138 191.802 398.162C191.826 398.34 191.778 398.507 191.66 398.637C191.541 398.768 191.374 398.851 191.208 398.851H133.569C133.39 398.851 133.224 398.78 133.117 398.637C133.01 398.495 132.951 398.328 132.975 398.162C132.975 398.138 133.355 395.5 131.762 394.751C130.301 394.062 124.156 394.264 121.411 394.43L119.747 399.861C119.7 400.028 119.581 400.158 119.426 400.23C119.403 400.23 117.038 401.359 116.182 404.14C115.279 407.063 115.255 408.228 115.255 408.24C115.255 408.406 115.184 408.573 115.053 408.68C114.922 408.787 114.756 408.846 114.589 408.834C114.518 408.834 107.209 407.955 105.973 398.091C104.797 388.678 103.489 373.264 103.478 373.11L104.666 373.003C104.678 373.157 105.985 388.547 107.162 397.936C108.089 405.316 112.498 407.111 114.114 407.515C114.209 406.837 114.447 405.637 115.017 403.771C115.873 401.002 117.929 399.647 118.654 399.255L120.365 393.67C120.437 393.432 120.65 393.266 120.9 393.242C121.839 393.182 130.146 392.671 132.25 393.658C134.02 394.49 134.211 396.558 134.187 397.639H190.531C190.507 396.546 190.697 394.49 192.468 393.658C194.571 392.671 202.878 393.182 203.817 393.242C204.067 393.254 204.281 393.432 204.352 393.67L206.063 399.255C206.765 399.659 208.749 401.002 209.7 403.748C210.282 405.625 210.52 406.837 210.615 407.515C212.208 407.123 216.557 405.388 217.579 397.924C218.863 388.429 220.063 373.157 220.075 373.003L221.263 373.098C221.263 373.252 220.063 388.559 218.768 398.091C217.413 408.073 210.223 408.822 210.14 408.822C210.128 408.822 210.104 408.822 210.092 408.822L210.116 408.834Z" fill="#3F4D51"/>
<path d="M219.16 396.225H217.96C217.96 393.551 214.038 392.065 208.512 390.259C202.962 388.405 163.458 388.381 163.066 388.381H161.877C161.485 388.381 122.089 388.405 116.432 390.259C110.893 392.065 106.984 393.551 106.984 396.225H105.783C105.783 392.731 109.848 391.15 116.063 389.118C121.91 387.205 160.261 387.193 161.889 387.193H163.078C164.718 387.193 203.176 387.216 208.904 389.13C215.107 391.162 219.172 392.743 219.172 396.237L219.16 396.225Z" fill="#3F4D51"/>
<path d="M197.875 354.522H187.536C187.393 354.522 174.843 354.178 162.46 354.166C149.969 354.178 137.526 354.522 137.407 354.522H127.056V353.322H137.396C137.503 353.322 149.304 353.001 161.461 352.966C161.485 352.966 161.497 352.966 161.521 352.966H163.422C163.422 352.966 163.458 352.966 163.482 352.966C175.544 353.001 187.441 353.31 187.571 353.322H197.899V354.522H197.875Z" fill="#3F4D51"/>
<path d="M215.226 141.745L214.037 141.602C214.037 141.531 214.964 133.96 214.037 125.225C212.159 106.115 201.915 66.6475 201.808 66.2434L202.961 65.9463C203.068 66.3385 213.336 105.902 215.226 125.107C216.176 133.984 215.226 141.685 215.226 141.757V141.745Z" fill="#3F4D51"/>
<path d="M119.438 181.011C119.153 181.011 118.915 180.809 118.855 180.535L110.418 141.792C110.358 141.531 110.477 141.27 110.703 141.139C110.869 141.044 127.579 131.667 148.852 129.421C150.171 129.29 151.442 129.183 152.655 129.302L175.057 129.421C176.328 129.421 177.386 129.516 178.61 129.611L179.145 129.658C199.372 132.261 214.774 140.937 214.929 141.02C215.154 141.151 215.273 141.412 215.214 141.662L206.776 180.405C206.717 180.678 206.479 180.88 206.194 180.88C205.801 180.88 204.542 180.666 201.725 180.167C195.973 179.157 185.277 177.279 175.247 176.364C168.794 175.817 163.85 175.699 160.142 176.008L152.88 176.364C142.339 177.125 130.585 179.157 124.275 180.25C121.244 180.773 119.889 180.999 119.45 180.999L119.438 181.011ZM111.677 141.983L119.901 179.763C120.674 179.656 122.219 179.395 124.049 179.074C130.383 177.98 142.184 175.936 152.785 175.176H152.797L160.047 174.819C163.802 174.51 168.817 174.617 175.342 175.176C185.432 176.103 196.163 177.98 201.927 178.99C203.543 179.276 204.993 179.525 205.718 179.632L213.942 141.852C211.458 140.509 197.209 133.188 179.014 130.847L178.503 130.799C177.303 130.692 176.269 130.609 175.045 130.609L152.583 130.49C151.43 130.372 150.218 130.49 148.959 130.609C129.73 132.641 114.268 140.568 111.665 141.971L111.677 141.983Z" fill="#3F4D51"/>
<path d="M110.287 141.864C110.287 141.792 109.336 134.091 110.287 125.202C112.414 105.866 126.687 62.999 126.83 62.5593L127.971 62.9396C127.828 63.3675 113.591 106.127 111.475 125.333C110.548 134.068 111.475 141.638 111.475 141.709L110.287 141.852V141.864Z" fill="#3F4D51"/>
<path d="M159.25 305.167C149.897 305.167 140.544 305.024 136.503 304.727C124.892 303.776 110.679 298.084 110.536 298.024L110.988 296.907C111.13 296.966 125.178 302.588 136.599 303.527C144.644 304.121 173.856 304.121 181.902 303.527C193.334 302.707 213.633 295.552 213.835 295.481L214.239 296.61C214.037 296.681 193.584 303.895 181.997 304.727C177.956 305.024 168.603 305.167 159.25 305.167Z" fill="#3F4D51"/>
<path d="M207.596 270.595C207.477 270.571 196.151 267.755 186.941 267.755H131.678C122.527 267.755 116.502 270.072 116.443 270.084L116.003 268.967C116.253 268.872 122.278 266.542 131.667 266.542H186.929C196.282 266.542 207.762 269.383 207.869 269.418L207.584 270.583L207.596 270.595Z" fill="#3F4D51"/>
<path d="M109.181 335.044C109.074 335.044 108.968 335.02 108.861 334.973C106.971 334.26 105.355 333.452 104.939 330.825C104.594 328.543 104.784 326.202 104.891 324.8C104.927 324.408 104.962 323.956 104.951 323.849C104.178 321.627 105.26 319.939 106.222 318.442C107.03 317.17 107.732 316.077 107.446 314.698C105.521 305.927 110.263 295.624 110.465 295.184L111.546 295.695C111.499 295.802 106.781 306.082 108.623 314.448C109.003 316.314 108.112 317.717 107.232 319.083C106.305 320.533 105.509 321.793 106.103 323.528C106.175 323.754 106.163 324.015 106.103 324.895C105.996 326.238 105.818 328.496 106.139 330.647C106.424 332.441 107.316 333.095 109.205 333.82C109.681 333.594 111.012 332.323 111.903 331.455C114.387 329.066 115.492 328.116 116.312 328.389C118.689 329.043 121.541 331.93 122.314 332.739C124.928 332.62 145.096 331.681 152.607 331.681H172.216C179.703 331.788 199.74 332.62 202.474 332.739C203.246 331.764 206.098 328.318 208.523 327.545C209.272 327.26 210.234 328.187 212.742 330.92C213.657 331.919 215.012 333.392 215.511 333.677C217.163 333 218.268 332.382 218.565 330.516C218.874 328.484 218.708 326.238 218.601 324.895C218.541 324.039 218.506 323.683 218.577 323.445C219.183 321.734 218.399 320.51 217.496 319.083C216.652 317.752 215.689 316.255 216.069 314.318C217.793 305.939 213.182 295.647 213.146 295.552L214.239 295.053C214.441 295.493 219.052 305.785 217.246 314.555C216.961 316.005 217.709 317.182 218.506 318.43C219.445 319.903 220.502 321.567 219.718 323.778C219.718 323.825 219.765 324.336 219.801 324.788C219.908 326.178 220.086 328.508 219.754 330.683C219.35 333.226 217.733 334.07 215.82 334.83C215.119 335.139 214.394 334.474 211.862 331.705C210.84 330.599 209.319 328.936 208.796 328.698C206.384 329.577 203.282 333.642 203.246 333.689C203.127 333.844 202.949 333.927 202.747 333.927C202.521 333.927 180.202 332.976 172.216 332.857H152.619C144.644 332.857 122.326 333.915 122.1 333.927C121.933 333.951 121.743 333.868 121.624 333.725C121.589 333.689 118.38 330.16 115.967 329.506C115.551 329.589 113.793 331.277 112.735 332.287C110.726 334.212 109.847 335.008 109.193 335.008L109.181 335.044Z" fill="#3F4D51"/>
<path d="M214.18 298.488C214.097 298.226 205.718 271.581 206.312 255.383C205.718 235.619 206.039 183.768 208.357 176.542C208.891 174.89 209.545 171.86 210.306 168.342C211.565 162.471 213.146 155.174 215.143 149.553C217.317 143.409 221.227 140.152 221.394 140.022H221.406C221.073 121.922 220.051 75.5133 219.207 72.1738C218.732 71.4845 218.209 71.1398 217.614 71.1161C216.367 71.0566 214.952 72.5422 214.525 73.1007C214.334 73.3503 213.978 73.4097 213.705 73.2315C213.657 73.1958 209.165 70.1297 204.839 67.8003C201.297 65.5661 194.69 62.6069 191.932 62.0364C185.978 60.9074 178.218 59.505 170.956 58.7207H152.952V57.5322H171.016C178.384 58.3166 186.18 59.7308 192.158 60.8717C195.082 61.4778 201.785 64.4608 205.433 66.7783C208.975 68.6916 212.659 71.1161 213.918 71.9598C214.572 71.2349 216.01 69.8801 217.626 69.9276C218.637 69.9633 219.516 70.5218 220.229 71.5914C220.265 71.639 220.288 71.6865 220.3 71.734C221.382 75.1092 222.535 137.585 222.582 140.247C222.582 140.414 222.523 140.568 222.404 140.675L222.166 140.913C222.083 140.984 218.292 144.145 216.248 149.957C214.275 155.507 212.706 162.768 211.458 168.603C210.698 172.157 210.032 175.211 209.486 176.923C207.239 183.899 206.919 236.202 207.501 255.395C206.919 271.427 215.226 297.87 215.321 298.131L214.18 298.488Z" fill="#3F4D51"/>
<path d="M110.738 298.488L109.597 298.131C109.681 297.87 118 271.427 117.417 255.431C117.988 236.202 117.667 183.899 115.421 176.923C114.874 175.223 114.209 172.157 113.448 168.603C112.188 162.768 110.631 155.507 108.659 149.957C106.603 144.134 102.823 140.984 102.788 140.949L102.502 140.675C102.384 140.556 102.324 140.402 102.324 140.236C102.372 137.573 103.525 75.0973 104.606 71.7222C104.618 71.6746 104.642 71.6152 104.677 71.5795C105.39 70.51 106.27 69.9514 107.28 69.9157C107.304 69.9157 107.339 69.9157 107.363 69.9157C108.932 69.9157 110.346 71.2349 110.988 71.948C112.248 71.1042 115.932 68.6798 119.509 66.7545C123.134 64.4608 129.825 61.4778 132.748 60.8717C138.738 59.7308 146.534 58.3166 153.843 57.5322H171.967V58.7207H153.902C146.712 59.505 138.94 60.9074 132.974 62.0364C130.229 62.6069 123.609 65.5661 120.115 67.7765C115.754 70.1297 111.261 73.1958 111.226 73.2315C110.964 73.4097 110.608 73.3503 110.406 73.1007C109.978 72.5303 108.599 71.0566 107.316 71.1161C106.721 71.1398 106.199 71.4845 105.723 72.1738C104.879 75.5133 103.857 121.91 103.525 140.01L103.584 140.069C103.703 140.164 107.613 143.409 109.788 149.565C111.784 155.186 113.353 162.495 114.625 168.354C115.385 171.872 116.039 174.902 116.574 176.554C118.903 183.78 119.212 235.631 118.618 255.431C119.212 271.593 110.833 298.226 110.75 298.5L110.738 298.488Z" fill="#3F4D51"/>
<g clip-path="url(#clip1_631_2777)">
<path d="M40.0616 125.321C44.0329 125.321 47.2522 122.102 47.2522 118.13C47.2522 114.159 44.0329 110.94 40.0616 110.94C36.0904 110.94 32.8711 114.159 32.8711 118.13C32.8711 122.102 36.0904 125.321 40.0616 125.321Z" fill="#EB4643"/>
<path d="M40.2064 121.062C40.1484 121.062 40.1021 121.045 40.0673 121.01C40.0326 120.975 40.0152 120.929 40.0152 120.871V116.195L38.6304 117.261C38.584 117.296 38.5377 117.308 38.4913 117.302C38.4392 117.302 38.3986 117.273 38.3638 117.227L38.1495 116.948C38.1147 116.896 38.1031 116.85 38.1147 116.798C38.1205 116.746 38.1495 116.705 38.1958 116.67L40.0152 115.268C40.0557 115.239 40.0905 115.222 40.1253 115.216C40.16 115.216 40.1948 115.21 40.2354 115.21H40.6583C40.7163 115.21 40.7568 115.228 40.7916 115.262C40.8264 115.297 40.8437 115.343 40.8437 115.401V120.86C40.8437 120.917 40.8264 120.964 40.7916 120.999C40.7568 121.033 40.7163 121.051 40.6583 121.051H40.218L40.2064 121.062Z" fill="white"/>
</g>
</g>
<defs>
<clipPath id="clip0_631_2777">
<rect width="326" height="408.834" fill="white"/>
</clipPath>
<clipPath id="clip1_631_2777">
<rect width="14.3811" height="14.3811" fill="white" transform="translate(32.8711 110.94)"/>
</clipPath>
</defs>
</svg>
