<svg width="256" height="256" viewBox="0 0 256 256" fill="none" xmlns="http://www.w3.org/2000/svg">
<path d="M169.519 0C171.784 0.47426 174.055 0.908441 176.306 1.43614C214.125 10.3602 228.742 57.1783 202.321 85.7141C190.329 98.666 177.442 110.79 164.956 123.287C164.843 123.401 164.669 123.441 164.341 123.608C163.981 123.301 163.533 122.974 163.146 122.586C151.528 110.99 139.83 99.4676 128.313 87.7714C102.713 61.774 110.449 19.2509 143.531 4.56892C148.028 2.57169 153.065 1.79684 157.855 0.4609C158.409 0.307267 158.964 0.153633 159.525 0.00667971H169.526L169.519 0ZM165.471 18.7299C148.014 17.8883 132.729 31.9958 131.881 49.7371C131.019 67.8058 144.941 83.0556 163.079 83.9106C180.629 84.7322 196.041 70.7382 196.969 53.1304C197.931 34.9015 183.949 19.625 165.471 18.7366V18.7299Z" fill="#0094DA"/>
<path d="M0 144.002C2.57202 143.935 5.15073 143.815 7.72275 143.808C18.0509 143.788 28.3858 143.801 38.9411 143.801V256.007H0C0 218.667 0 181.335 0 144.002Z" fill="#0094DA"/>
<path d="M-0.00113192 101.5H39.0201V128.8H35.9337C24.9442 128.8 13.9546 128.8 2.96505 128.807C1.97632 128.807 0.987594 128.934 -0.0078125 129V101.5H-0.00113192Z" fill="#0094DA"/>
<path d="M108.459 101.418C112.434 101.418 116.088 101.311 119.729 101.492C120.631 101.538 121.626 102.373 122.341 103.088C135.682 116.361 148.99 129.673 162.298 142.986C162.939 143.627 163.494 144.369 164.375 145.411C176.868 132.846 189.1 120.535 201.686 107.877V171.174C200.724 171.174 199.909 171.174 199.094 171.174C177.603 171.174 156.118 171.148 134.627 171.221C132.696 171.228 131.667 170.58 130.665 168.99C123.697 157.935 116.623 146.954 109.608 135.932C109.094 135.117 108.506 134.149 108.499 133.247C108.419 122.767 108.452 112.279 108.452 101.425L108.459 101.418Z" fill="#0094DA"/>
<path d="M120.518 213.082H54.3398V143.786H57.1056C69.5114 143.786 81.9173 143.82 94.3298 143.746C96.1068 143.733 97.1757 144.241 98.1444 145.784C105.159 156.899 112.301 167.94 119.308 179.055C120.01 180.171 120.451 181.654 120.464 182.97C120.564 192.208 120.518 201.452 120.518 210.697V213.082Z" fill="#0094DA"/>
<path d="M255.865 255.913H217.051V186.324H255.865V255.913Z" fill="#0094DA"/>
<path d="M217.031 101.512H255.852V170.994H217.031V101.512Z" fill="#0094DA"/>
<path d="M54.3125 255.825V228.398H120.397V255.825H54.3125Z" fill="#0094DA"/>
<path d="M135.633 255.835V228.395H201.717V255.835H135.633Z" fill="#0094DA"/>
<path d="M201.859 213.069H135.641V186.143H138.286C158.522 186.143 178.757 186.177 198.993 186.09C201.277 186.083 201.965 186.671 201.919 188.989C201.772 196.15 201.865 203.31 201.865 210.471V213.063L201.859 213.069Z" fill="#0094DA"/>
<path d="M93.3122 101.59V128.563H54.3711V101.59H93.3122Z" fill="#0094DA"/>
<path d="M181.999 51.321C181.992 60.9732 173.955 68.9822 164.329 68.9288C154.635 68.8753 146.772 60.8864 146.852 51.1741C146.932 41.5085 154.702 33.7601 164.349 33.7267C174.029 33.6933 182.005 41.6488 181.999 51.3277V51.321Z" fill="#0094DA"/>
</svg>
