<svg width="96" height="105" viewBox="0 0 96 105" fill="none" xmlns="http://www.w3.org/2000/svg">
<g clip-path="url(#clip0_1495_1555)">
<path d="M77.0582 86.4179C77.7438 85.9997 78.6037 85.474 79.458 84.9512C76.8221 81.6474 76.7996 78.3662 79.4299 75.9838C81.7174 73.9094 85.2301 73.9829 87.4444 76.1477C89.9033 78.5527 89.8246 81.9357 87.1831 84.9879C87.4922 85.1405 87.7901 85.2762 88.0739 85.4316C90.3951 86.6949 91.6709 88.6591 91.744 91.3043C91.8198 94.0881 91.7749 96.8775 91.758 99.6613C91.7496 100.964 91.1117 101.586 89.7937 101.592C86.0085 101.606 82.226 101.597 78.3677 101.597C78.112 102.99 77.1846 103.318 75.9088 103.307C71.1428 103.267 66.3768 103.29 61.5406 103.29C61.2848 104.683 60.3575 105.006 59.0817 105C51.6854 104.969 44.2891 104.986 36.8928 104.983C35.3304 104.983 35.0241 104.771 34.4424 103.29C29.6651 103.29 24.8654 103.29 20.0657 103.29C18.5033 103.29 18.1942 103.078 17.6153 101.597C13.9958 101.597 10.3511 101.597 6.70912 101.597C4.72516 101.597 4.26148 101.122 4.26148 99.0876C4.26148 96.9708 4.34298 94.8512 4.24462 92.74C4.07601 89.1141 5.4024 86.4434 8.83358 85.0077C6.16957 81.7209 6.12742 78.4369 8.69026 76.0459C10.9805 73.9094 14.5438 73.9602 16.7835 76.1618C19.2311 78.5669 19.1468 81.9102 16.5558 84.9455C17.4045 85.4627 18.2532 85.9771 18.995 86.4292C20.4816 85.3355 21.9766 84.2361 23.5194 83.1C21.8305 81.5909 20.8216 79.5165 21.156 76.9531C21.3865 75.1727 22.2211 73.6833 23.629 72.5557C26.3885 70.3456 30.3817 70.6537 32.7704 73.2537C35.4035 76.1194 35.1084 79.9291 31.9863 83.2498C32.9558 83.7698 33.9225 84.287 34.9904 84.8579C36.3589 81.1782 38.9695 78.8128 43.047 77.9338C40.5432 75.7775 39.2899 73.1859 39.6749 69.9754C39.9418 67.754 40.9675 65.9001 42.7042 64.4729C46.0511 61.7202 50.966 61.9802 53.9925 65.0664C57.4827 68.6273 57.2017 72.9683 53.1017 77.9451C57.0191 78.7986 59.6606 81.1302 61.0347 84.8551C62.0857 84.2983 63.0637 83.7811 64.036 83.2639C60.8324 79.5673 60.6357 75.8057 63.5189 72.9909C66.0733 70.4926 70.1396 70.4332 72.7615 72.8552C75.7739 75.6362 75.6334 79.361 72.5198 83.1198C73.9895 84.1853 75.4704 85.262 77.0638 86.4179H77.0582ZM58.1066 101.552C58.1066 96.9934 58.1291 92.5535 58.101 88.1164C58.0757 84.2277 55.1615 81.3224 51.2976 81.2856C49.1956 81.2659 47.0936 81.2772 44.9917 81.2828C40.7849 81.2969 37.927 84.157 37.9185 88.3764C37.9073 92.4659 37.9157 96.5525 37.9185 100.642C37.9185 100.944 37.9579 101.247 37.9775 101.555H58.1094L58.1066 101.552ZM34.5492 99.8619C34.5492 99.3984 34.5492 99.048 34.5492 98.6976C34.5464 96.1625 34.6082 93.6246 34.5183 91.0952C34.4311 88.5375 32.287 86.4745 29.741 86.3727C28.5523 86.3247 27.3608 86.3444 26.1721 86.3642C23.2946 86.4094 21.1364 88.563 21.0914 91.4485C21.0661 93.2092 21.0858 94.9699 21.0858 96.7277C21.0858 97.7678 21.0858 98.8078 21.0858 99.8619H34.5492ZM74.914 99.8619C74.914 96.8182 75.0124 93.8648 74.8831 90.92C74.7735 88.4471 72.6209 86.4801 70.1621 86.3755C68.8694 86.3218 67.5711 86.3247 66.2785 86.3755C63.7746 86.4716 61.6895 88.4923 61.4956 90.9935C61.4394 91.7283 61.4731 92.4715 61.4731 93.2092C61.4731 95.4136 61.4731 97.6208 61.4731 99.8648H74.914V99.8619ZM17.7164 98.1662C17.7164 95.7951 17.7558 93.5398 17.7024 91.2874C17.6602 89.5408 16.272 88.1447 14.5466 88.0684C13.2877 88.0119 12.0231 88.0119 10.7641 88.0684C9.23543 88.1391 7.8135 89.2695 7.72077 90.7928C7.57183 93.2346 7.68142 95.6934 7.68142 98.1662H17.7136H17.7164ZM88.369 98.1578C88.369 95.7188 88.4617 93.3279 88.3381 90.9482C88.2538 89.3176 86.7644 88.1108 85.0952 88.0599C83.9402 88.026 82.7824 88.026 81.6275 88.0599C79.7278 88.1164 78.3593 89.521 78.3087 91.4485C78.2862 92.3302 78.3031 93.212 78.3031 94.0909C78.3031 95.4503 78.3031 96.8069 78.3031 98.1549H88.369V98.1578ZM53.0539 71.1426C53.0652 68.3758 50.8311 66.0838 48.0856 66.047C45.2895 66.0103 42.9908 68.2797 42.9683 71.1002C42.9459 73.8557 45.2024 76.1703 47.9339 76.1957C50.7384 76.2212 53.0399 73.9461 53.0511 71.1426H53.0539ZM31.1798 77.8829C31.1742 76.0375 29.6764 74.5255 27.8357 74.5113C26.0035 74.4944 24.4776 76.0036 24.458 77.8462C24.4383 79.7426 25.9726 81.2913 27.8526 81.2743C29.6876 81.2574 31.1826 79.7313 31.1798 77.8858V77.8829ZM68.2371 74.5113C66.4049 74.4887 64.8734 75.9923 64.8481 77.8321C64.8228 79.686 66.2897 81.2263 68.1247 81.2715C70.0019 81.3167 71.5671 79.785 71.57 77.8971C71.57 76.0516 70.0806 74.534 68.2399 74.5113H68.2371ZM12.7284 82.9672C14.1082 82.9389 15.2351 81.7435 15.1929 80.353C15.1508 79.0049 14.0127 77.8943 12.675 77.8999C11.2868 77.9056 10.1459 79.0643 10.1572 80.4604C10.1684 81.848 11.343 82.9955 12.7284 82.9672ZM83.3922 82.9672C84.7748 82.9474 85.9073 81.7604 85.8708 80.37C85.837 79.0219 84.7074 77.9056 83.3669 77.9027C81.9815 77.8999 80.8322 79.053 80.835 80.4491C80.835 81.8367 82.004 82.9898 83.3894 82.97L83.3922 82.9672Z" fill="white"/>
<path d="M92.9498 68.7778C91.8426 68.4075 90.8562 68.0797 89.7715 67.7179C90.741 64.6968 91.6852 61.7633 92.6575 58.7336C91.5616 58.4058 90.5303 58.0977 89.5017 57.7869C87.529 57.1905 86.8152 56.0036 86.863 53.9235C86.9389 50.6876 86.9277 47.4488 86.8574 44.2129C86.8152 42.2572 87.5094 41.0758 89.3697 40.4512C90.4572 40.0838 91.5531 39.7391 92.7474 39.3519C91.7555 36.4098 90.7944 33.5583 89.7968 30.6049C88.6699 30.9639 87.6133 31.3086 86.5567 31.6393C84.5924 32.2526 83.3279 31.6647 82.1841 29.9719C80.439 27.3831 78.6124 24.8452 76.7072 22.3724C75.4257 20.7078 75.2571 19.2834 76.4655 17.5707C77.1118 16.655 77.775 15.7507 78.4916 14.7559C75.9541 12.9471 73.4839 11.1864 70.8958 9.3438C70.2579 10.3047 69.6678 11.2034 69.0692 12.0965C67.8693 13.8854 66.4474 14.1991 64.4297 13.4474C61.5184 12.3621 58.5649 11.3673 55.589 10.4771C53.4448 9.83555 52.6187 8.93118 52.6102 6.65613C52.6074 5.57371 52.6102 4.48847 52.6102 3.39475H43.3873C43.3873 4.62978 43.3873 5.74893 43.3873 6.86809C43.3902 8.82661 42.4712 9.86663 40.6137 10.4234C37.5366 11.3447 34.4764 12.3452 31.4499 13.4248C29.5839 14.0917 28.2266 13.8119 27.0239 12.1926C26.3354 11.2656 25.6694 10.3245 24.9472 9.32684C22.449 11.1978 20.0098 13.0263 17.5031 14.9057C18.2225 15.8298 18.9195 16.7003 19.5883 17.5933C20.7404 19.1336 20.5999 20.5834 19.4478 22.1208C17.4947 24.735 15.6063 27.3972 13.7909 30.1075C12.709 31.7241 11.4501 32.3261 9.5926 31.7637C8.49102 31.4302 7.39788 31.0628 6.22043 30.6841C5.26498 33.6346 4.32359 36.537 3.34566 39.5582C4.38822 39.8691 5.38301 40.1658 6.3778 40.4654C8.49102 41.0984 9.19918 42.2543 9.13736 44.4531C9.05024 47.5816 9.05305 50.7158 9.12893 53.8472C9.18232 56.029 8.54161 57.1227 6.47896 57.8095C5.45326 58.1514 4.42756 58.4934 3.27259 58.8749L6.2401 67.7321C5.19192 68.0854 4.18027 68.4273 3.06745 68.8032C2.57568 67.294 2.09796 65.8329 1.62585 64.3718C1.12846 62.8315 0.600151 61.2998 0.144909 59.7482C-0.377777 57.9649 0.473695 56.3144 2.20193 55.6701C2.82578 55.4383 3.46368 55.2518 4.09597 55.0427C4.68891 54.8477 5.28184 54.6498 5.68931 54.5113V43.642C4.70015 43.3424 3.66882 43.0315 2.64031 42.7122C0.409062 42.0198 -0.462081 40.3636 0.251694 38.1168C1.13408 35.3331 2.03613 32.555 2.94943 29.7825C3.68006 27.5612 5.24531 26.7557 7.45127 27.4453C8.35333 27.7279 9.23852 28.0812 10.1546 28.2931C10.4469 28.361 10.9696 28.1914 11.1326 27.954C13.0182 25.2098 14.856 22.4317 16.8315 19.4784C16.3931 18.8934 15.7412 18.0342 15.0977 17.1666C13.687 15.2674 13.9511 13.3485 15.8564 11.9326C18.1944 10.1945 20.5437 8.46769 22.9099 6.76635C24.7336 5.45501 26.4844 5.75741 27.8445 7.57745C28.5386 8.50443 29.213 9.44271 29.834 10.2906C32.2901 9.42858 34.6534 8.58074 37.0308 7.77528C37.7586 7.52941 38.5146 7.3344 39.2733 7.23549C39.9281 7.1507 40.0601 6.837 40.0405 6.25199C40.0039 5.3024 40.0124 4.34716 40.0377 3.39475C40.091 1.39101 41.454 0.0259754 43.4492 0.0118447C46.4644 -0.00793838 49.4797 -0.00511222 52.4922 0.0118447C54.6054 0.0231493 55.943 1.39101 55.974 3.54171C55.9908 4.73717 55.9768 5.92981 55.9768 6.92744C59.467 8.03811 62.8223 9.1064 66.3209 10.2199C66.8548 9.45119 67.5012 8.49595 68.1728 7.55767C69.4317 5.7998 71.2864 5.46066 73.0259 6.70982C75.451 8.45073 77.8565 10.2143 80.2536 11.9947C81.993 13.2891 82.2797 15.2081 81.0264 17.0027C80.3632 17.9523 79.6775 18.8849 79.0902 19.7045C81.2399 22.6239 83.3363 25.4698 85.5423 28.4627C86.3488 28.1914 87.3969 27.8353 88.4479 27.4849C90.7017 26.7303 92.3231 27.5244 93.0566 29.7656C93.9642 32.5408 94.8663 35.319 95.7487 38.1027C96.4484 40.3099 95.6335 41.9265 93.464 42.6754C92.3737 43.0513 91.2749 43.3904 90.3111 43.7041V54.5481C91.2665 54.842 92.2922 55.1585 93.3179 55.4779C95.611 56.1901 96.4737 57.8349 95.7374 60.1439C94.8298 62.9898 93.8996 65.8301 92.947 68.7778H92.9498Z" fill="white"/>
<path d="M36.2286 37.3136V67.6636H32.8986V55.9662H16.0602V71.0635H12.7302C12.7106 70.7865 12.6712 70.4841 12.6712 70.1845C12.6684 65.0353 12.6656 59.886 12.6712 54.7396C12.6712 53.0354 13.222 52.5013 14.9643 52.4985C20.5031 52.4985 26.0391 52.4985 31.5778 52.4985H32.8649V51.3228C32.8649 46.2809 32.8649 41.2363 32.8649 36.1944C32.8649 34.397 33.3876 33.877 35.1861 33.877C43.7373 33.877 52.2886 33.877 60.8426 33.877C62.6299 33.877 63.1554 34.4054 63.1554 36.2057C63.1554 41.2136 63.1554 46.2216 63.1554 51.2295C63.1554 51.6111 63.1554 51.9926 63.1554 52.5041C63.6022 52.5041 63.9731 52.5041 64.3469 52.5041C69.9194 52.5041 75.4919 52.5041 81.0644 52.5041C82.7983 52.5041 83.3462 53.0439 83.3462 54.7566C83.349 59.8691 83.3462 64.9844 83.3462 70.0969V71.0748H80.0218V55.9577H63.1835V67.6636H59.8057V37.322H36.2286V37.3136Z" fill="white"/>
<path d="M17.6801 49.0642H14.3164C14.6508 37.8472 18.9335 28.5746 27.954 22.0038C39.3042 13.7373 51.621 12.7652 63.9828 19.3981C75.5381 25.5987 81.1191 35.852 81.7457 49.0332H78.3483C78.0363 39.1331 74.1668 30.9627 66.3349 24.8724C60.4505 20.2968 53.6921 18.262 46.2817 18.6859C30.5674 19.5847 17.8881 32.486 17.6773 49.0642H17.6801Z" fill="white"/>
<path d="M45.4159 47.3937H40.5234V42.4141H45.4159V47.3937Z" fill="white"/>
<path d="M55.5597 42.4258V47.3348H50.6055V42.4258H55.5597Z" fill="white"/>
<path d="M40.4844 57.4985V52.5527H45.4021V57.4985H40.4844Z" fill="white"/>
<path d="M55.502 57.5322H50.5898V52.5469H55.502V57.5322Z" fill="white"/>
<path d="M22.7448 61.0312V64.2615H19.4766V61.0312H22.7448Z" fill="white"/>
<path d="M26.1836 64.2891V61.0391H29.4321V64.2891H26.1836Z" fill="white"/>
<path d="M69.807 64.3061H66.5781V61.0137H69.807V64.3061Z" fill="white"/>
<path d="M73.3008 64.2891V61.0391H76.5493V64.2891H73.3008Z" fill="white"/>
</g>
<defs>
<clipPath id="clip0_1495_1555">
<rect width="96" height="105" fill="white"/>
</clipPath>
</defs>
</svg>
