<?xml version="1.0" encoding="UTF-8"?><svg id="Layer_1" xmlns="http://www.w3.org/2000/svg" viewBox="0 0 55.3 55.31"><defs><style>.cls-1{fill:#0094da;}</style></defs><path class="cls-1" d="M41.2,30.39c2.32-2.15,4.56-4.3,6.89-6.35,1.63-1.44,4.15-1.31,5.74,.15,1.64,1.5,1.97,3.92,.69,5.75-1.76,2.51-3.58,4.98-5.38,7.47-1.06,1.46-2.1,2.93-3.17,4.38-2.1,2.84-4.92,4.3-8.46,4.3-4.79,0-9.59,0-14.38,0-.93,0-1.74,.22-2.36,.84l-12.41-12.42c1.12-1.02,2.26-2.2,3.55-3.18,1.64-1.25,3.57-1.8,5.65-1.8,6.1,0,12.2,0,18.3,0,2.45,0,4.47,1.78,4.68,4.11,.23,2.48-1.4,4.61-3.87,5.05-.28,.05-.57,.05-.86,.05-2.88,0-5.75,0-8.63,0-.19,0-.39-.01-.57,.02-.46,.1-.76,.4-.78,.87-.01,.5,.29,.82,.78,.93,.15,.03,.31,.02,.46,.02,2.92,0,5.83,.02,8.75,0,3.17-.02,5.71-2.02,6.41-5.07,.42-1.81,.02-3.49-1.02-5.09Z"/><path class="cls-1" d="M44.24,15.11c-.73,.74-1.36,1.39-2,2.03-.56,.56-1.02,.55-1.59-.01-.64-.63-1.26-1.28-1.96-1.99-.64,.64-1.25,1.24-1.83,1.87-.35,.38-.74,.54-1.26,.53-2.01-.02-4.03,0-6.04-.02-.38,0-.56,.13-.76,.44-2.58,4.23-6.38,6.25-11.31,5.98-5.52-.3-10.26-4.83-10.92-10.32C5.79,7.09,10.01,1.33,16.44,.18c4.82-.86,9.82,1.47,12.32,5.78,.24,.41,.49,.53,.94,.53,5.66-.01,11.32,0,16.97-.02,.5,0,.87,.15,1.22,.5,1.38,1.41,2.79,2.8,4.18,4.2,.62,.62,.61,1.05,0,1.67-1.41,1.41-2.82,2.82-4.23,4.23-.64,.64-1.06,.64-1.71,0-.62-.62-1.22-1.26-1.89-1.95Zm-24.89-3.12c0-2.5-2.08-4.59-4.57-4.6-2.54-.01-4.65,2.1-4.64,4.64,.01,2.49,2.11,4.57,4.6,4.57,2.53,0,4.61-2.1,4.61-4.61Z"/><path class="cls-1" d="M5.17,35.26c.89-.02,1.56,.4,2.17,1.01,3.13,3.14,6.26,6.27,9.39,9.4,.8,.8,1.61,1.59,2.4,2.4,1.27,1.29,1.26,2.89-.01,4.18-.88,.89-1.76,1.77-2.64,2.64-.57,.56-1.02,.57-1.59,0-4.83-4.83-9.66-9.65-14.48-14.48-.54-.54-.54-1,0-1.54,.93-.94,1.87-1.88,2.81-2.81,.54-.53,1.19-.82,1.96-.8Z"/><path class="cls-1" d="M17.51,11.99c0,1.55-1.21,2.77-2.76,2.78-1.52,0-2.75-1.21-2.76-2.72,0-1.56,1.2-2.8,2.73-2.8,1.55,0,2.78,1.21,2.79,2.74Z"/></svg>