<?xml version="1.0" encoding="UTF-8"?><svg id="Layer_1" xmlns="http://www.w3.org/2000/svg" viewBox="0 0 58.93 58.93"><defs><style>.cls-1{fill:#0094da;}</style></defs><path class="cls-1" d="M43.04,58.93c-4.28-1.91-8.02-4.55-10.95-8.24-2.58-3.24-3.93-6.92-3.88-11.09,.03-3.03,0-6.06,0-9.09,0-1.5,.58-2.29,2-2.78,4.11-1.4,8.22-2.79,12.32-4.2,.7-.24,1.38-.25,2.08-.02,4.16,1.42,8.32,2.84,12.48,4.24,.93,.31,1.48,.96,1.84,1.82v11.97c-.04,.13-.1,.25-.11,.38-.17,1.63-.62,3.19-1.28,4.69-1.55,3.51-4.06,6.24-7.06,8.56-1.94,1.5-4.06,2.72-6.28,3.76h-1.15Zm-.3-17.28c-.08-.03-.12-.04-.15-.06-.9-.89-1.79-1.79-2.69-2.68-1.09-1.07-2.6-1.12-3.58-.11-.99,1-.93,2.5,.15,3.59,1.54,1.55,3.09,3.1,4.64,4.64,1.25,1.24,2.86,1.14,3.92-.26,2.41-3.2,4.81-6.4,7.21-9.61,.88-1.18,.67-2.68-.46-3.52-1.11-.82-2.56-.58-3.45,.59-.8,1.05-1.59,2.11-2.38,3.17-1.07,1.42-2.13,2.84-3.19,4.25Z"/><path class="cls-1" d="M25.99,24.53c-1.66,1.47-2.47,3.17-2.64,5.08-.96-.05-1.89-.14-2.83-.14-3.51-.02-7.02-.01-10.53,0-1.35,0-2.3,.75-2.57,2.01-.28,1.28,.66,2.65,1.97,2.84,.3,.04,.61,.05,.92,.05,3.66,0,7.33,.01,10.99,0,.66,0,1.32-.1,2.02-.16,0,.09,.02,.27,.02,.45,0,1.73,.02,3.45,0,5.18-.04,4.01,1.04,7.71,3.07,11.15,.1,.16,.19,.33,.31,.55-.24,.01-.41,.03-.59,.03-6.46,0-12.93,0-19.39,0C2.98,51.55,0,48.56,0,44.79c0-12.68,0-25.36,0-38.03C0,2.99,2.99,0,6.75,0c9.42,0,18.83,0,28.25,0,3.67,0,6.7,2.93,6.74,6.6,.05,3.87,.02,7.75,0,11.62,0,.17-.16,.44-.3,.49-2.38,.83-4.77,1.64-7.2,2.46-.1-.15-.2-.31-.31-.46-.47-.67-1.12-1.05-1.94-1.06-7.42,0-14.85,0-22.27,0-1.3,0-2.35,1.12-2.36,2.42,0,1.31,1.07,2.43,2.41,2.43,5.14,.01,10.28,0,15.42,0,.21,0,.41,0,.8,0ZM14.7,14.73c1.57,0,3.14,.02,4.71-.01,.45,0,.92-.1,1.33-.28,1-.46,1.53-1.59,1.29-2.62-.28-1.24-1.17-1.97-2.53-1.98-3.18-.02-6.36-.01-9.54,0-.41,0-.85,.09-1.22,.26-1.01,.46-1.55,1.59-1.33,2.61,.26,1.21,1.19,2,2.45,2.01,1.61,.02,3.22,0,4.83,0Z"/></svg>