<?xml version="1.0" encoding="UTF-8"?><svg id="Layer_1" xmlns="http://www.w3.org/2000/svg" viewBox="0 0 46.05 46.04"><defs><style>.cls-1{fill:#0094da;}</style></defs><path class="cls-1" d="M0,10.12c0-2.13,0-4.26,0-6.39C0,1.59,1.6,0,3.76,0,8.01,0,12.27,0,16.53,0c2.14,0,3.73,1.59,3.73,3.75,0,4.26,0,8.51,0,12.77,0,2.14-1.6,3.73-3.75,3.73-4.26,0-8.52,0-12.77,0C1.59,20.25,0,18.66,0,16.5c0-2.13,0-4.26,0-6.39Z"/><path class="cls-1" d="M35.93,0c2.13,0,4.26,0,6.39,0,2.14,0,3.73,1.6,3.73,3.75,0,4.26,0,8.51,0,12.77,0,2.14-1.6,3.73-3.75,3.73-4.26,0-8.52,0-12.77,0-2.14,0-3.73-1.6-3.73-3.75,0-4.26,0-8.51,0-12.77C25.8,1.59,27.39,0,29.54,0c2.13,0,4.26,0,6.39,0Z"/><path class="cls-1" d="M20.26,35.97c0,2.11,0,4.22,0,6.33,0,2.15-1.6,3.74-3.74,3.74-4.26,0-8.52,0-12.77,0-2.15,0-3.74-1.59-3.74-3.74,0-4.26,0-8.51,0-12.77,0-2.15,1.59-3.74,3.74-3.74,4.26,0,8.52,0,12.77,0,2.15,0,3.73,1.59,3.74,3.74,0,2.15,0,4.3,0,6.44Z"/><path class="cls-1" d="M46.05,35.88c0,5.65-4.51,10.17-10.14,10.16-5.66,0-10.13-4.53-10.12-10.24,.01-5.55,4.57-10.02,10.22-10.02,5.51,0,10.04,4.55,10.03,10.09Z"/></svg>