<svg width="257" height="250" viewBox="0 0 257 250" fill="none" xmlns="http://www.w3.org/2000/svg">
<path d="M256.998 59.001C256.397 61.586 256.217 64.3648 255.114 66.716C252.656 71.9596 250.217 77.3301 246.897 82.0259C240.076 91.6714 232.694 100.93 225.499 110.308C223.802 112.519 222.119 112.652 220.602 110.628C211.978 99.0993 202.912 87.8573 194.969 75.8672C184.921 60.6976 187.467 39.6031 199.699 27.4794C214.904 12.41 246.242 14.7612 255.007 42.2883C255.856 44.9669 256.343 47.759 256.998 50.491V58.9943V59.001ZM245.06 51.9472C245.1 39.6031 235.179 29.6169 222.894 29.6369C210.728 29.657 200.841 39.5296 200.734 51.7535C200.634 63.8905 210.541 73.9368 222.693 74.017C235.072 74.0971 245.02 64.2913 245.053 51.9472H245.06Z" fill="#242E69"/>
<path d="M188.242 146.293C190.827 171.476 195.958 196.07 204.576 219.843C172.603 248.847 117.401 259.574 70.9843 236.596C74.3045 229.823 78.1058 223.544 84.7863 219.429C94.707 213.324 103.739 206.123 111.168 197.079C115.063 192.343 118.249 187.2 119.532 181.088C121.229 173.045 118.951 166.212 112.304 161.476C108.509 158.771 103.933 157.161 99.6974 155.084C99.1162 154.796 98.4615 154.656 97.6932 154.396C99.7041 151.27 101.688 148.317 103.552 145.291C114.682 127.236 112.25 102.448 97.8602 87.652C90.6452 80.2375 81.7734 76.2964 71.4853 75.4682C70.7705 75.408 70.0623 75.3613 68.5859 75.2477C70.6569 73.5912 72.0598 72.1884 73.7166 71.1998C78.4999 68.3543 83.1563 65.1413 88.2603 63.0239C113.566 52.5434 133.922 35.8975 150.383 14.2352C152.648 11.2561 154.993 8.34372 157.451 5.21094C170.244 8.59087 182.256 14.0682 193.573 21.5295C180.532 36.1514 177.593 52.7638 183.198 71.4403C182.009 71.7943 180.786 72.1817 179.544 72.5157C172.142 74.5063 164.786 76.6505 158.132 80.5915C152.367 84.0048 147.711 88.3867 146.294 95.3002C145.96 96.9167 145.927 98.6 145.854 100.263C145.64 105.119 143.315 108.366 138.732 110.089C136.173 111.051 133.548 111.986 131.216 113.376C124.188 117.557 121.823 124.284 124.456 132.059C126.633 138.478 130.902 143.474 135.752 147.996C143.883 155.585 153.008 161.523 163.824 164.662C169.409 166.286 173.838 164.836 177.239 160.214C179.904 156.593 182.443 152.879 185.069 149.232C185.823 148.184 186.705 147.215 187.527 146.213L188.235 146.3L188.242 146.293Z" fill="#242E69"/>
<path d="M246.41 97.5557C254.768 142.771 243.417 181.313 211.491 214.357C210.215 210.343 209.092 206.889 208.017 203.422C202.946 187.091 199.78 170.358 197.435 153.438C196.954 149.945 195.885 146.424 194.475 143.185C191.656 136.719 186.352 135.79 181.455 140.827C179.21 143.138 177.406 145.883 175.462 148.475C173.912 150.539 172.403 152.63 170.98 154.781C169.31 157.306 166.931 157.853 164.453 156.678C159.89 154.507 155.334 152.249 151.078 149.544C145.3 145.863 140.169 141.328 136.034 135.797C134.844 134.207 133.796 132.477 132.967 130.674C130.589 125.53 132.232 121.563 137.517 119.438C139.601 118.603 141.752 117.935 143.823 117.074C150.11 114.449 153.991 109.639 153.897 102.913C153.777 94.0622 158.427 89.0257 165.842 86.1C172.316 83.5416 179.07 81.6914 185.737 79.6607C186.318 79.4871 187.454 80.0548 187.875 80.6226C196.439 92.0917 204.85 103.674 213.475 115.097C218.973 122.377 226.916 122.257 232.515 115.07C236.603 109.813 240.698 104.563 244.8 99.3124C245.141 98.8783 245.542 98.4975 246.403 97.5557H246.41Z" fill="#242E69"/>
<path d="M3.53906 100.677C15.4105 37.1459 78.876 -10.0663 147.98 3.14614C147.993 3.29978 148.073 3.50685 148.007 3.59368C137.632 17.2203 126.575 30.1723 112.446 40.1651C103.768 46.3038 94.3883 51.1198 84.6947 55.3748C73.6317 60.231 63.8914 66.884 56.0752 76.2088C55.5207 76.8635 54.6789 77.4045 53.8639 77.6984C42.2196 81.9267 34.2363 89.9624 29.4731 101.258C28.6981 103.088 27.7294 103.729 25.8255 103.776C18.2697 103.97 10.9077 102.888 3.53906 100.67V100.677Z" fill="#242E69"/>
<path d="M63.2769 232.669C40.9504 219.57 24.2089 201.461 12.9922 178.356C19.2519 167.161 25.4381 156.086 31.8181 144.684C32.5863 145.539 32.9137 145.853 33.1809 146.213C41.9191 157.976 50.5437 169.819 59.4222 181.469C63.965 187.42 72.1888 187.307 76.8919 181.449C81.6351 175.537 86.2447 169.519 90.8143 163.474C91.8297 162.131 92.805 161.657 94.3817 162.271C97.7019 163.567 101.223 164.476 104.356 166.125C111.604 169.94 113.415 175.591 110.161 183.085C107.803 188.529 104.262 193.252 99.8397 197.053C93.5466 202.463 87.0197 207.673 80.1587 212.342C73.4381 216.918 68.795 222.977 65.0272 229.937C64.633 230.672 64.279 231.426 63.8848 232.154C63.8114 232.288 63.6443 232.362 63.2702 232.669H63.2769Z" fill="#242E69"/>
<path d="M102.089 120.394C102.135 128.183 100.285 135.537 95.7823 141.85C87.5718 153.359 78.9873 164.607 70.5029 175.923C68.9998 177.927 67.2361 177.967 65.7664 176.003C57.095 164.414 48.0094 153.091 40.0194 141.048C30.994 127.435 32.1096 108.805 41.743 96.4943C49.8666 86.114 60.7961 82.193 73.596 84.1501C86.2758 86.0873 94.9004 93.6153 99.3297 105.532C101.073 110.214 101.668 115.318 102.783 120.234L102.082 120.394H102.089ZM45.9251 117.101C45.8716 129.399 55.7656 139.411 68.0111 139.451C80.2299 139.492 90.2908 129.479 90.3109 117.261C90.3309 105.165 80.4036 95.1383 68.2983 95.0381C56.0328 94.9379 45.9785 104.857 45.9251 117.094V117.101Z" fill="#242E69"/>
<path d="M8.94968 168.487C2.05532 152.048 -0.924195 125.63 2.04198 109.605C9.97851 110.648 17.9017 111.69 25.8716 112.738C25.8716 116.385 25.6378 120.453 25.9451 124.481C26.1989 127.774 27.1342 131.007 27.6754 134.287C27.8223 135.195 27.9827 136.411 27.5217 137.052C20.6207 146.685 14.7418 156.918 9.48416 167.525C9.37727 167.739 9.25699 167.939 8.94968 168.487Z" fill="#242E69"/>
<path d="M222.835 65.5929C215.199 65.5662 208.979 59.2806 209.079 51.7058C209.186 44.2045 215.372 38.0592 222.861 38.0391C230.511 38.0191 236.677 44.1844 236.677 51.8594C236.677 59.5678 230.571 65.6196 222.835 65.5929Z" fill="#242E69"/>
<path d="M68.206 103.477C75.8085 103.517 82.0282 109.849 81.9146 117.424C81.801 125.039 75.5213 131.111 67.852 131.024C60.3029 130.937 54.3171 124.812 54.3438 117.203C54.3639 109.508 60.4967 103.436 68.206 103.483V103.477Z" fill="#242E69"/>
</svg>
