<svg width="40" height="29" viewBox="0 0 40 29" fill="none" xmlns="http://www.w3.org/2000/svg">
<path d="M34.3681 6.68632C35.8008 5.70124 37.3026 6.17194 38.7339 6.42843C39.4758 6.5609 39.3777 7.41914 39.3169 8.04627C39.263 8.60011 38.9079 8.92988 38.3608 8.98343C37.6314 9.0553 36.8978 9.09899 36.0122 9.16523C36.3009 9.33575 36.4639 9.4358 36.6311 9.53022C38.8527 10.7943 40.1196 12.5742 39.9911 15.3167C39.875 17.7942 39.9759 20.2815 39.9731 22.7661C39.9731 23.6807 39.846 24.5319 38.7283 24.7813C38.7283 25.4831 38.7394 26.161 38.7256 26.8374C38.7007 28.0466 38.0541 28.6991 36.8784 28.7132C36.2581 28.7202 35.6378 28.7188 35.0161 28.7132C33.7298 28.7033 33.1081 28.0762 33.1012 26.7825C33.0985 26.1539 33.1012 25.524 33.1012 24.8433H6.91086C6.91086 25.4916 6.91362 26.137 6.91086 26.7811C6.90534 28.0762 6.28225 28.7047 4.99877 28.7118C4.35496 28.716 3.71116 28.7202 3.06735 28.7104C2.00768 28.6935 1.34039 28.0551 1.29479 26.977C1.2644 26.2766 1.28927 25.5733 1.28927 24.7926C0.0693449 24.5248 0.0417141 23.5468 0.038951 22.5519C0.02928 19.9292 -0.0301273 17.3052 0.0196091 14.6825C0.0638193 12.3713 1.25335 10.7323 3.19859 9.62465C3.4155 9.50063 3.63931 9.3893 3.85898 9.14831C3.26215 9.11167 2.66669 9.06235 2.06985 9.04262C1.15526 9.01443 0.720063 8.65084 0.679998 7.85179C0.624735 6.72719 0.896904 6.37065 1.93446 6.26918C2.6432 6.20013 3.35885 6.09302 4.06483 6.13389C4.58983 6.16489 5.10101 6.40588 5.70061 6.5764C6.1662 5.68715 6.70639 4.68375 7.21895 3.66626C8.29381 1.5284 9.94616 0.384076 12.3515 0.24174C17.6373 -0.0725264 22.9163 -0.106349 28.1967 0.295293C30.2731 0.453131 31.6754 1.62564 32.6522 3.40837C33.2449 4.48927 33.7989 5.59132 34.3681 6.68069V6.68632ZM6.46323 8.67762C15.5401 8.12519 24.4927 8.12659 33.5544 8.6748C32.6094 6.90899 31.757 5.20095 30.7954 3.55916C30.0922 2.35705 28.9634 1.80321 27.5763 1.70879C22.4825 1.35929 17.39 1.33815 12.2976 1.70879C10.9685 1.80603 9.88814 2.40779 9.21532 3.55634C8.25513 5.19954 7.40546 6.90899 6.46323 8.67762ZM33.9122 17.4193V17.2065C34.8517 17.2065 35.7939 17.2319 36.732 17.1995C37.612 17.1685 38.061 16.6724 38.0804 15.7691C38.0901 15.3026 38.0679 14.8347 38.0486 14.3682C38.0141 13.5227 37.5706 13.1563 36.743 13.3042C35.2109 13.5805 33.6787 13.8595 32.1493 14.1526C31.0095 14.3711 30.4776 14.9291 30.2676 16.0777C30.106 16.9627 30.4749 17.4151 31.366 17.4179C32.2143 17.4207 33.0625 17.4179 33.9108 17.4179L33.9122 17.4193ZM6.04876 17.2079V17.4207C6.94126 17.4207 7.83513 17.4207 8.72762 17.4207C9.27334 17.4207 9.67261 17.2023 9.77899 16.6259C9.95307 15.6859 9.12689 14.4105 8.19019 14.2217C6.53231 13.8877 4.86752 13.5847 3.20412 13.2859C2.49123 13.1577 2.03531 13.5227 1.98005 14.2499C1.94137 14.76 1.93308 15.2758 1.94275 15.7874C1.95933 16.6823 2.4111 17.1699 3.30083 17.2009C4.21543 17.2333 5.13278 17.2079 6.04876 17.2079Z" fill="white"/>
</svg>
