<svg width="30" height="40" viewBox="0 0 30 40" fill="none" xmlns="http://www.w3.org/2000/svg">
<g clip-path="url(#clip0_1136_3202)">
<path d="M23.2051 0C23.3032 0.0302517 23.4002 0.0625896 23.4983 0.0917981C24.603 0.419351 25.3165 1.14017 25.5773 2.25844C25.8308 3.34646 25.5512 4.31973 24.7073 5.05516C23.7757 5.86674 22.79 6.61573 21.8198 7.38141C21.7197 7.45964 21.559 7.49302 21.4265 7.49302C17.1444 7.49824 12.8611 7.49928 8.57897 7.49094C8.42667 7.49094 8.24621 7.42522 8.12624 7.33029C7.22495 6.62511 6.32783 5.91263 5.44219 5.18659C4.52421 4.43343 4.16223 3.44973 4.41885 2.29704C4.68173 1.11618 5.43176 0.360934 6.62305 0.0709349C6.68459 0.0552875 6.74197 0.0239927 6.80143 0C12.2697 0 17.7369 0 23.2051 0Z" fill="white"/>
<path d="M15.2145 39.9796C13.2096 39.9796 11.2046 40.0203 9.2007 39.9692C6.57194 39.9035 4.34375 38.9125 2.64027 36.87C1.31545 35.2812 0.590456 33.4171 0.237868 31.3996C-0.306662 28.2889 0.134595 25.2544 1.02232 22.2709C2.32732 17.8844 4.44285 13.9413 7.54312 10.5448C7.91553 10.1369 8.29107 9.97833 8.84916 9.9825C13.0792 10.0075 17.3102 9.99919 21.5403 9.9898C21.8115 9.9898 21.9972 10.0691 22.1818 10.2621C25.0828 13.2925 27.1045 16.8528 28.5044 20.7813C29.4808 23.5206 30.0691 26.3361 29.9909 29.2612C29.9325 31.456 29.5528 33.5851 28.4825 35.5337C26.8979 38.4201 24.4152 39.8795 21.1491 39.9713C19.1723 40.0266 17.1924 39.9817 15.2135 39.9817V39.9796H15.2145ZM13.7531 30.8269C13.7531 31.2672 13.7468 31.6552 13.7541 32.0433C13.7687 32.7683 14.3185 33.3243 15.0069 33.3211C15.6996 33.317 16.2368 32.7651 16.2504 32.0339C16.2577 31.6187 16.2514 31.2046 16.2514 30.7737C16.3829 30.7383 16.4945 30.7091 16.6061 30.6767C18.2376 30.201 19.2516 28.7208 19.1472 26.9662C19.0544 25.4161 17.8183 24.0506 16.2243 23.8117C15.6245 23.722 15.0059 23.7627 14.3956 23.7397C13.7353 23.7157 13.3014 23.2369 13.3525 22.5922C13.3963 22.0321 13.8344 21.6596 14.4927 21.6544C15.5984 21.645 16.7052 21.6471 17.811 21.6544C18.1938 21.6565 18.5339 21.5637 18.803 21.2831C19.1598 20.9107 19.2599 20.4663 19.0847 19.9854C18.8844 19.4367 18.4577 19.1696 17.8829 19.1561C17.353 19.1435 16.8231 19.1529 16.2514 19.1529C16.2514 18.7002 16.2639 18.2861 16.2483 17.874C16.2233 17.196 15.6766 16.665 15.0153 16.6566C14.3372 16.6473 13.7812 17.1855 13.7562 17.8865C13.7447 18.211 13.7353 18.5385 13.7583 18.8619C13.7771 19.1289 13.6946 19.2333 13.4213 19.3073C11.794 19.7517 10.7707 21.2236 10.8541 22.9532C10.9303 24.5325 12.1487 25.9137 13.7583 26.1651C14.3696 26.261 15.0028 26.2162 15.6255 26.2422C16.3224 26.2715 16.7793 26.8525 16.6374 27.5222C16.532 28.0177 16.1116 28.3234 15.4951 28.3275C14.4155 28.3348 13.3348 28.3244 12.2551 28.3338C12.0381 28.3359 11.8076 28.3546 11.6073 28.4308C11.0471 28.6426 10.755 29.2205 10.8656 29.8255C10.9678 30.3846 11.4675 30.8019 12.0996 30.8238C12.6317 30.8415 13.1647 30.828 13.7541 30.828L13.7531 30.8269Z" fill="white"/>
</g>
<defs>
<clipPath id="clip0_1136_3202">
<rect width="29.9992" height="40" fill="white"/>
</clipPath>
</defs>
</svg>
