<svg width="40" height="37" viewBox="0 0 40 37" fill="none" xmlns="http://www.w3.org/2000/svg">
<g clip-path="url(#clip0_1136_3272)">
<path d="M6.34561 1.80922C6.52517 0.683051 7.16496 0.0380305 8.09937 0.00316448C9.11745 -0.0334448 9.72587 0.517438 10.0431 1.78307H14.1905C14.4293 0.40761 15.3428 -0.0613376 16.2388 0.00839438C17.1209 0.076383 17.7224 0.710944 17.9037 1.7883H22.0981C22.1626 1.21824 22.3491 0.672591 22.8669 0.365771C23.1824 0.177494 23.5694 0.0380305 23.932 0.0188542C24.8804 -0.0317015 25.3702 0.463395 25.82 1.80922H29.929C30.4188 0.390177 30.9784 -0.0840005 32.0279 0.011881C32.8908 0.0920727 33.4818 0.731863 33.6561 1.80922C34.5539 1.80922 35.4587 1.80051 36.3652 1.81097C38.0737 1.83189 39.4875 2.9476 39.8832 4.60547C39.9686 4.95936 39.9965 5.33592 39.9965 5.70201C40.0017 14.6172 40.0017 23.5325 40 32.4477C40 34.4316 38.8581 35.9047 37.0346 36.2655C36.7313 36.3248 36.414 36.3283 36.102 36.3283C25.3685 36.3318 14.6333 36.3318 3.89976 36.3283C1.51318 36.3283 0 34.8046 0 32.4059C0 26.245 0 20.0842 0 13.9234C0 11.1986 0 8.47211 0 5.74734C0.0017433 3.32938 1.5219 1.80922 3.93288 1.80922C4.72608 1.80922 5.52103 1.80922 6.34387 1.80922H6.34561ZM33.6317 5.46841C33.6317 6.09948 33.6387 6.68 33.63 7.26052C33.616 8.04849 33.1523 8.70223 32.4393 8.96372C31.2382 9.40303 30.0318 8.54707 29.9935 7.21694C29.9778 6.64165 29.99 6.06462 29.99 5.48584H25.759C25.759 5.78917 25.7625 6.05764 25.759 6.32611C25.7538 6.70964 25.7729 7.0949 25.7294 7.4732C25.616 8.46165 24.8071 9.11713 23.8065 9.06135C22.8825 9.01079 22.1486 8.24723 22.1294 7.29538C22.1172 6.69046 22.1277 6.08554 22.1277 5.47712H17.8758C17.8758 6.09774 17.8862 6.69046 17.8723 7.28318C17.8566 8.01537 17.5114 8.55928 16.8594 8.88353C15.6635 9.47974 14.316 8.65167 14.2515 7.27447C14.2236 6.68349 14.2462 6.09076 14.2462 5.47712H10.0118C10.0118 6.0559 10.0205 6.60678 10.0118 7.15766C9.99259 8.29081 9.2238 9.07704 8.16213 9.06483C7.12661 9.05263 6.37873 8.25246 6.3735 7.14372C6.37002 6.59283 6.3735 6.0437 6.3735 5.47538H3.67836V10.8447H36.3321V5.46841H33.6317ZM17.5097 25.9469C17.4016 25.7935 17.3284 25.6488 17.2186 25.539C16.1796 24.4913 15.1318 23.4523 14.0911 22.4063C13.5786 21.892 12.9701 21.6898 12.2659 21.8816C10.8991 22.2529 10.4737 23.9038 11.4866 24.9341C13.019 26.4909 14.5722 28.0284 16.1185 29.573C17.0808 30.5336 18.0798 30.5301 19.049 29.5608C22.0893 26.5222 25.1297 23.4819 28.17 20.4416C28.3304 20.2812 28.4977 20.1261 28.6441 19.9517C29.4949 18.9371 29.0312 17.4065 27.7603 17.0422C26.9985 16.8243 26.3831 17.084 25.8374 17.6314C23.2051 20.276 20.564 22.9119 17.9246 25.5512C17.8165 25.6593 17.7032 25.7639 17.5097 25.9487V25.9469Z" fill="white"/>
</g>
<defs>
<clipPath id="clip0_1136_3272">
<rect width="40" height="36.3304" fill="white"/>
</clipPath>
</defs>
</svg>
