<svg width="40" height="40" viewBox="0 0 40 40" fill="none" xmlns="http://www.w3.org/2000/svg">
<g clip-path="url(#clip0_1136_3211)">
<path d="M19.9944 33.0592C12.8173 33.0705 6.93499 27.1882 6.94062 20.0055C6.95187 12.8059 12.8286 6.93485 20 6.96299C27.1939 6.98551 33.0031 12.7947 33.0312 19.9942C33.0594 27.1656 27.1883 33.048 19.9887 33.0592H19.9944ZM19.1219 13.9092C18.998 13.9205 18.9305 13.9261 18.8629 13.9318C17.0054 14.1175 15.6319 15.6036 15.6375 17.4105C15.6431 19.2287 17.0222 20.7091 18.8855 20.8555C19.5272 20.9061 20.1745 20.878 20.8162 20.8893C21.8294 20.9061 22.5894 21.6379 22.6006 22.6005C22.6119 23.5743 21.8351 24.3399 20.8106 24.3624C20.2927 24.3736 19.7692 24.3624 19.2513 24.3624C18.1649 24.3567 17.4894 23.7319 17.3769 22.6455C17.3149 22.0714 16.9547 21.7167 16.4593 21.7505C15.9471 21.7843 15.6093 22.2064 15.6431 22.7919C15.6994 23.7038 16.0484 24.4862 16.707 25.1223C17.3656 25.7584 18.1706 26.0567 19.1106 26.113C19.1106 26.3776 19.105 26.6252 19.1106 26.8673C19.1331 27.4527 19.454 27.8186 19.9606 27.8299C20.4841 27.8411 20.8331 27.4752 20.8556 26.8729C20.8669 26.6196 20.8556 26.3663 20.8556 26.113C20.9963 26.1017 21.0639 26.0961 21.1314 26.0905C22.9834 25.8991 24.3513 24.4018 24.3344 22.5892C24.3175 20.771 22.9327 19.3075 21.0639 19.1668C20.4222 19.1161 19.7748 19.1499 19.1331 19.1386C18.1312 19.1161 17.3656 18.3618 17.3712 17.4049C17.3712 16.4423 18.1368 15.688 19.1388 15.6655C19.6735 15.6542 20.2083 15.6599 20.743 15.6655C21.8013 15.6711 22.4824 16.3016 22.595 17.3598C22.6625 17.9621 23.0341 18.3224 23.535 18.2774C24.0473 18.2267 24.3625 17.8102 24.3287 17.2191C24.2387 15.6205 23.0678 14.292 21.4804 13.9993C21.2834 13.9655 21.0808 13.9374 20.8556 13.898C20.8556 13.6053 20.8725 13.3351 20.8556 13.0649C20.8162 12.5414 20.4728 12.2036 19.9887 12.2036C19.5103 12.2036 19.1613 12.5357 19.1219 13.0592C19.0994 13.3294 19.1219 13.6053 19.1219 13.9149V13.9092Z" fill="white"/>
<path d="M5.56712 6.11366C4.59893 6.11366 3.69828 6.12492 2.79763 6.11366C2.10526 6.1024 1.68871 5.43255 2.00394 4.85276C2.16718 4.55442 2.42612 4.39117 2.77512 4.39117C4.40754 4.39117 6.03434 4.38554 7.66676 4.39117C8.19589 4.39117 8.54489 4.74017 8.55052 5.2693C8.56178 6.90173 8.56178 8.52852 8.55052 10.1609C8.55052 10.6619 8.16774 11.0334 7.70053 11.0391C7.22206 11.0447 6.83366 10.6676 6.82803 10.1441C6.81677 9.2603 6.82803 8.37091 6.82803 7.48715L6.72108 7.42523C6.20321 8.06694 5.65156 8.68614 5.17309 9.35599C2.70194 12.8066 1.56487 16.6681 1.75063 20.9068C2.11089 29.1815 8.2184 36.2853 16.3749 37.9121C19.4821 38.5313 22.5556 38.3681 25.584 37.3943C25.7247 37.3492 25.8711 37.2986 26.0175 37.2761C26.5015 37.1973 26.9012 37.4506 27.025 37.9065C27.1376 38.3287 26.9294 38.7846 26.479 38.9197C25.5615 39.1956 24.644 39.4883 23.7039 39.6515C17.6583 40.7154 12.1813 39.3813 7.40219 35.5198C3.28173 32.1987 0.827468 27.8474 0.174499 22.5842C-0.591052 16.4092 1.18773 11.0053 5.35885 6.38386C5.42077 6.31631 5.47143 6.24313 5.56712 6.11366Z" fill="white"/>
<path d="M34.3935 33.9033C35.3786 33.9033 36.2792 33.892 37.1742 33.9033C37.8666 33.9145 38.2775 34.5844 37.9623 35.1698C37.7991 35.4682 37.5345 35.6314 37.1911 35.6314C35.5587 35.6314 33.9319 35.637 32.2995 35.6314C31.7703 35.6314 31.4213 35.2768 31.4157 34.7476C31.4045 33.1152 31.4045 31.4884 31.4157 29.856C31.4157 29.355 31.7985 28.9835 32.2657 28.9779C32.7498 28.9722 33.1326 29.3494 33.1382 29.8729C33.1495 30.7566 33.1382 31.646 33.1382 32.5298L33.2452 32.5917C33.763 31.95 34.309 31.3308 34.7875 30.661C37.2587 27.2103 38.3957 23.3488 38.21 19.1101C37.8497 10.8242 31.7535 3.73722 23.5913 2.1048C20.4841 1.47998 17.4107 1.64885 14.3822 2.62267C14.2134 2.67896 14.0389 2.72963 13.8644 2.75214C13.4028 2.8028 13.0256 2.51572 12.9243 2.07666C12.8286 1.66011 13.0594 1.21541 13.521 1.08594C14.5624 0.793233 15.5981 0.466749 16.6564 0.292248C21.0977 -0.433898 25.3532 0.185296 29.3105 2.34122C35.0802 5.48786 38.6322 10.3288 39.6848 16.8248C40.7205 23.2362 38.908 28.8765 34.5455 33.6894C34.5117 33.7288 34.4779 33.7738 34.3766 33.8977L34.3935 33.9033Z" fill="white"/>
</g>
<defs>
<clipPath id="clip0_1136_3211">
<rect width="39.9831" height="40" fill="white"/>
</clipPath>
</defs>
</svg>
