<svg width="39" height="40" viewBox="0 0 39 40" fill="none" xmlns="http://www.w3.org/2000/svg">
<g clip-path="url(#clip0_1136_3293)">
<path d="M29.021 0C29.4013 0.0752273 29.7827 0.143141 30.1609 0.225682C34.8647 1.25901 38.0242 5.67652 37.4862 10.4493C37.2803 12.2704 36.6022 13.8888 35.4623 15.3192C35.3495 15.4602 35.2273 15.5929 35.1029 15.7371C34.7404 15.3589 34.3998 15.0037 34.0341 14.6223C35.6034 12.7677 36.2658 10.6018 35.8897 8.16007C35.6128 6.36193 34.7717 4.8438 33.4333 3.60882C30.7585 1.14199 26.27 0.646745 22.8879 3.53255C22.5274 3.18775 22.1649 2.84087 21.7825 2.47623C23.0258 1.34469 24.4363 0.607042 26.0412 0.239264C26.456 0.142096 26.8802 0.0783617 27.3002 0C27.8738 0 28.4474 0 29.021 0Z" fill="white"/>
<path d="M16.5646 0.897485C17.4036 0.89435 18.1559 1.19839 18.8685 1.57975C21.1953 2.82414 22.9642 4.62959 24.2378 6.94074C25.0831 8.47454 25.034 9.99058 24.3078 11.5432C23.5221 13.2233 22.4532 14.7111 21.2632 16.1153C18.5571 19.3114 15.5093 22.145 12.1565 24.6536C10.4346 25.9419 8.62501 26.1289 6.69522 25.1708C3.89614 23.7812 1.82217 21.6832 0.513006 18.8423C-0.265387 17.1539 -0.180757 15.4968 0.922576 13.9943C4.18033 9.55698 7.89677 5.56366 12.4929 2.46576C13.5106 1.78036 14.6066 1.22974 15.8301 0.991519C16.0725 0.944502 16.3201 0.927785 16.5646 0.897485ZM5.09455 14.2043C4.8929 14.4708 4.69125 14.7414 4.48542 15.0089C3.67046 16.0662 3.63598 17.1716 4.25452 18.3335C4.97336 19.6813 5.98892 20.7293 7.3263 21.469C8.88935 22.3331 10.4127 22.0457 11.5641 20.6728C9.41699 18.5268 7.27197 16.3818 5.09455 14.2043ZM10.4367 8.98128L16.8196 15.362C17.3263 14.6505 17.8226 13.9087 17.9762 13.0247C18.0504 12.5964 18.041 12.0907 17.8801 11.6957C17.156 9.91535 15.875 8.6438 14.0957 7.91452C13.752 7.77347 13.3236 7.73167 12.9548 7.78496C12.0071 7.92183 11.2183 8.43588 10.4378 8.98128H10.4367ZM6.55104 12.3519C8.89144 14.6923 11.1159 16.9167 13.3466 19.1474C14.0079 18.5048 14.6933 17.8403 15.3255 17.226C13.0571 14.9577 10.8275 12.728 8.49023 10.3918C8.14857 10.7794 7.78497 11.2235 7.3869 11.6351C7.12569 11.9057 6.81538 12.1283 6.55104 12.3519ZM17.3576 6.5552C17.3503 7.61047 18.1757 8.44738 19.2247 8.44842C20.2487 8.44947 21.0908 7.62092 21.1065 6.59699C21.1221 5.56784 20.2622 4.6996 19.2279 4.69855C18.2029 4.69751 17.365 5.52919 17.3576 6.5552Z" fill="white"/>
<path d="M28.3095 29.8025C27.5415 29.79 26.7464 29.4818 26.1101 28.858C24.6766 27.4558 23.2442 26.0495 21.8567 24.6014C20.6144 23.3037 20.5799 21.5359 21.6937 20.1233C23.4343 17.9135 25.2053 15.7277 26.9073 13.4886C27.763 12.3634 28.8705 12.2213 29.9885 12.5598C30.6373 12.7562 31.1932 13.1115 31.6707 13.5879C33.4876 15.3996 35.3098 17.2061 37.1111 19.0335C37.9835 19.9185 38.4558 20.9727 38.2646 22.2505C38.1862 22.775 37.9365 23.2107 37.5217 23.5388C35.1416 25.4205 32.7615 27.3023 30.373 29.1725C29.813 29.6113 29.1547 29.8056 28.3095 29.8025ZM34.7665 21.4126C34.591 21.1085 34.4687 20.7523 34.2315 20.5088C32.9057 19.1464 31.5547 17.809 30.2058 16.4685C29.6364 15.9022 28.8455 15.8855 28.3272 16.4121C27.8069 16.9418 27.8383 17.7129 28.4108 18.2907C29.0618 18.9468 29.7179 19.5988 30.3709 20.2528C31.0803 20.9623 31.7825 21.678 32.5003 22.377C32.9015 22.7677 33.3873 22.8649 33.9045 22.6382C34.405 22.4187 34.6557 22.0165 34.7654 21.4126H34.7665Z" fill="white"/>
<path d="M13.6757 39.9996H10.7115C10.7115 39.6674 10.7167 39.3727 10.7105 39.0791C10.699 38.493 10.6854 37.9068 10.6624 37.3207C10.6541 37.119 10.6948 36.9853 10.9268 36.9905C10.9393 36.9905 10.9529 36.9895 10.9654 36.9864C11.3813 36.8954 11.9131 36.9278 12.1805 36.6771C12.4344 36.4389 12.4135 35.906 12.5107 35.5017C12.5953 35.1496 12.6747 34.7964 12.7615 34.4213H14.5606C14.6401 33.832 14.7289 33.2793 14.7822 32.7245C14.8083 32.4435 14.8971 32.3129 15.2001 32.293C15.6671 32.2627 16.1289 32.1729 16.5949 32.1248C16.8248 32.1008 16.9334 32.0036 16.9564 31.7675C17.0024 31.3015 17.0515 30.8334 17.1424 30.3747C17.1842 30.1616 17.2855 29.9286 17.4329 29.7729C18.0514 29.1209 18.6919 28.4898 19.3355 27.863C19.5016 27.701 19.5768 27.5485 19.5194 27.3155C19.4703 27.1149 19.4462 26.9028 19.4483 26.6959C19.4494 26.5695 19.487 26.4107 19.5695 26.3239C20.0073 25.86 20.4639 25.4139 20.9226 24.9531C22.5326 26.5642 24.1312 28.1639 25.7528 29.7875C25.292 30.2483 24.8365 30.7289 24.3454 31.173C24.2409 31.267 24.0038 31.2701 23.8439 31.2367C23.3382 31.1301 22.9443 31.2043 22.5765 31.6337C22.0614 32.2355 21.4711 32.7747 20.8975 33.3242C20.7773 33.4392 20.5966 33.5249 20.4326 33.5531C19.8454 33.6544 19.2519 33.7244 18.6407 33.8101C18.5581 34.4025 18.4631 34.9782 18.4035 35.5581C18.3795 35.7963 18.3074 35.8893 18.0587 35.9133C17.4778 35.9697 16.9011 36.0669 16.2752 36.1536C16.2752 36.6604 16.2627 37.1525 16.2804 37.6446C16.2888 37.8859 16.2125 37.9842 15.9691 38.0312C15.3944 38.1409 14.8271 38.2892 14.2556 38.4125C14.0476 38.4575 13.9202 38.5306 13.892 38.7793C13.847 39.1909 13.7509 39.5963 13.6767 39.9996H13.6757Z" fill="white"/>
<path d="M22.8555 17.2094C22.5776 16.9973 22.3237 16.8051 22.0468 16.593C22.3759 16.1782 22.6852 15.7874 23.008 15.3789C23.2849 15.5889 23.5388 15.7812 23.8188 15.9933C23.4949 16.4018 23.1857 16.7926 22.8555 17.2094Z" fill="white"/>
</g>
<defs>
<clipPath id="clip0_1136_3293">
<rect width="38.3074" height="40" fill="white"/>
</clipPath>
</defs>
</svg>
