<svg width="41" height="40" viewBox="0 0 41 40" fill="none" xmlns="http://www.w3.org/2000/svg">
<g clip-path="url(#clip0_1136_3284)">
<path d="M3.6115 40.0001C3.10512 39.8101 2.5622 39.6859 2.10071 39.4175C0.745485 38.6313 0.0428149 37.4129 0.0240213 35.8478C-0.00208081 33.7377 -0.0135658 31.6266 0.0261095 29.5165C0.0710052 27.1819 1.16834 25.432 3.13436 24.2C3.30454 24.0935 3.46846 23.916 3.54886 23.7322C4.62427 21.2922 5.66209 18.8365 6.75525 16.4048C7.65107 14.4117 9.22347 13.3624 11.4192 13.33C13.2286 13.3028 15.038 13.3248 16.8286 13.3248C17.1721 14.4346 17.5072 15.5205 17.856 16.6471H17.4718C15.5308 16.6471 13.5898 16.6596 11.6499 16.6418C10.7165 16.6335 10.1068 17.0302 9.74238 17.8937C9.02927 19.583 8.28275 21.2588 7.55189 22.9398C7.50699 23.0442 7.47149 23.1528 7.40571 23.3303H7.89748C12.8987 23.3303 17.9009 23.3271 22.902 23.3407C23.1505 23.3407 23.4387 23.442 23.6392 23.5902C24.866 24.5007 26.1648 25.2806 27.5232 25.9812C29.2219 26.8572 30.8841 26.8645 32.5609 25.9614C33.202 25.6158 33.8462 25.2785 34.5582 24.9016C34.8307 25.1971 35.1523 25.4978 35.4186 25.8423C36.2235 26.8812 36.6715 28.0621 36.6819 29.3818C36.6986 31.5316 36.7101 33.6813 36.685 35.8301C36.66 37.9454 35.2995 39.5272 33.2145 39.9364C33.1665 39.9458 33.1236 39.9782 33.0777 40.0001H31.9835C31.925 39.9761 31.8687 39.9427 31.8081 39.9312C29.8149 39.5554 28.4378 37.9464 28.3741 35.9136C28.3647 35.6192 28.3731 35.3237 28.3731 35.0219H8.35896C8.35896 35.2777 8.3621 35.5106 8.35896 35.7424C8.32555 37.6739 7.20734 39.2369 5.45223 39.7976C5.20687 39.8759 4.95524 39.9333 4.70571 40.0012H3.6115V40.0001ZM8.33913 31.6527C8.91129 31.6527 9.48449 31.6662 10.0556 31.6495C10.9838 31.6224 11.676 30.9082 11.6771 29.9967C11.6781 29.0853 10.9869 28.3565 10.0608 28.3408C8.93008 28.322 7.79725 28.3231 6.6665 28.3398C5.74144 28.3534 5.02937 29.0759 5.01893 29.9717C5.00849 30.8874 5.7216 31.6245 6.66128 31.6506C7.21987 31.6652 7.7795 31.6537 8.33913 31.6527ZM28.3584 31.6527C28.9181 31.6527 29.4777 31.6642 30.0363 31.6506C30.9895 31.6276 31.6891 30.9135 31.6859 29.9853C31.6828 29.0602 30.9781 28.3502 30.0196 28.3377C28.9139 28.3241 27.8082 28.3241 26.7036 28.3377C25.7524 28.3492 25.033 29.0696 25.0278 29.9832C25.0226 30.9114 25.7482 31.6339 26.7203 31.6527C27.2663 31.6631 27.8124 31.6548 28.3595 31.6527H28.3584Z" fill="white"/>
<path d="M40.0324 11.7797C39.8914 12.4781 39.7953 13.1902 39.6001 13.873C38.9465 16.1523 37.6195 18.0118 35.9124 19.6187C34.3838 21.0584 32.6538 22.2028 30.765 23.1163C30.2691 23.3554 29.8118 23.3669 29.3127 23.1226C26.3412 21.6651 23.7519 19.745 21.8924 16.9573C20.6625 15.1134 20.0203 13.0795 20.0245 10.8525C20.0287 8.6902 20.0245 6.52685 20.0256 4.36455C20.0256 3.60863 20.3158 3.2077 21.0279 2.96652C23.8344 2.01431 26.643 1.06628 29.4474 0.104674C29.8515 -0.0341891 30.2232 -0.0310569 30.6241 0.106763C33.416 1.06419 36.2089 2.0164 39.0071 2.95294C39.504 3.11895 39.8152 3.43844 40.0324 3.88636V11.7797ZM29.3775 11.7515C28.8251 11.2795 28.3104 10.8212 27.7758 10.3879C27.0272 9.78127 26.027 9.86584 25.4298 10.5685C24.82 11.2858 24.9035 12.2996 25.6417 12.9407C26.5751 13.7519 27.5138 14.559 28.4597 15.3567C29.3044 16.0688 30.3015 15.9644 30.9895 15.0936C32.4742 13.2132 33.9547 11.3297 35.4311 9.44194C36.0742 8.62025 35.9823 7.61375 35.2275 7.01131C34.4778 6.41305 33.4682 6.56339 32.8188 7.37883C32.1693 8.19426 31.5304 9.01595 30.8862 9.83556C30.3881 10.4683 29.8901 11.101 29.3775 11.7525V11.7515Z" fill="white"/>
</g>
<defs>
<clipPath id="clip0_1136_3284">
<rect width="40.0324" height="40" fill="white"/>
</clipPath>
</defs>
</svg>
