<svg width="40" height="40" viewBox="0 0 40 40" fill="none" xmlns="http://www.w3.org/2000/svg">
<g clip-path="url(#clip0_1136_3262)">
<path d="M34.6552 10.6934V19.3021C29.9424 17.9111 25.6937 18.7134 22.2028 22.2132C18.7242 25.7007 17.9218 29.9361 19.3229 34.6555H18.8655C14.0059 34.6555 9.14621 34.6555 4.28656 34.6555C1.70373 34.6555 0.0133667 32.9641 0.0133667 30.3801C0.0133667 23.9792 0.0133667 17.5783 0.0133667 11.1774V10.6934H34.6552ZM9.36432 15.9959C8.90584 15.9959 8.44848 15.9848 7.99 15.9981C7.23996 16.0204 6.67354 16.6057 6.67688 17.3346C6.68022 18.0435 7.23996 18.6377 7.9644 18.6544C8.88025 18.6744 9.79609 18.6733 10.7119 18.6544C11.4375 18.6388 11.9983 18.049 12.005 17.3402C12.0117 16.6157 11.4397 16.0215 10.6952 15.9981C10.2512 15.9848 9.80722 15.9959 9.36321 15.9959H9.36432ZM17.3499 15.9959C16.8914 15.9959 16.4329 15.9837 15.9755 15.9981C15.2455 16.0215 14.6858 16.5935 14.6747 17.3046C14.6635 18.0312 15.2311 18.6388 15.9744 18.6544C16.8758 18.6733 17.7783 18.6711 18.6808 18.6555C19.4308 18.6433 20.0028 18.0524 20.0039 17.3279C20.0039 16.6035 19.4297 16.0182 18.683 15.997C18.239 15.9848 17.795 15.9948 17.351 15.9959H17.3499ZM9.35764 23.9915C9.80165 23.9915 10.2468 24.0026 10.6897 23.9892C11.4375 23.967 12.0084 23.3794 12.0061 22.6539C12.0028 21.9294 11.4275 21.3418 10.6774 21.3307C9.78941 21.3174 8.90139 21.3174 8.01225 21.3307C7.25554 21.3418 6.68467 21.9161 6.67688 22.6438C6.66909 23.3861 7.25109 23.9725 8.02449 23.9903C8.46851 24.0004 8.91252 23.9926 9.35653 23.9915H9.35764ZM9.3365 26.6589C8.90584 26.6589 8.4763 26.6533 8.04564 26.66C7.26222 26.6733 6.68022 27.2397 6.67688 27.9842C6.67354 28.7265 7.25665 29.3118 8.0334 29.3218C8.90807 29.3329 9.78274 29.3329 10.6563 29.3218C11.4297 29.3118 12.0128 28.7187 12.005 27.9775C11.9972 27.2531 11.4208 26.68 10.6685 26.6622C10.2245 26.6522 9.78051 26.66 9.3365 26.66V26.6589Z" fill="white"/>
<path d="M30.6557 39.9869C25.5134 39.9803 21.3382 35.7961 21.3404 30.6527C21.3426 25.4904 25.539 21.3117 30.7047 21.3262C35.8459 21.3418 40.0111 25.5338 40 30.6805C39.9889 35.8228 35.8003 39.9925 30.6557 39.9858V39.9869ZM32.0022 29.324C32.0022 28.4215 32.0089 27.5646 32 26.7078C31.9922 25.9221 31.4258 25.3357 30.6869 25.3268C29.9257 25.3168 29.3437 25.9065 29.3393 26.7122C29.3315 28.0031 29.3326 29.2939 29.3393 30.5837C29.3437 31.4316 29.9001 31.9836 30.7548 31.9881C32.0312 31.9936 33.3087 31.9936 34.5851 31.9881C35.4008 31.9847 35.995 31.4227 36.0006 30.6671C36.0072 29.8949 35.4063 29.3295 34.565 29.3251C33.7327 29.3206 32.9014 29.3251 32.0033 29.3251L32.0022 29.324Z" fill="white"/>
<path d="M0.0422557 7.9669C-0.0879432 6.42455 0.0300148 4.98123 1.20292 3.82057C2.35802 2.67771 3.80022 2.56977 5.34369 2.68995C5.34369 2.26041 5.34369 1.88984 5.34369 1.52039C5.34703 0.601205 5.88229 -0.00527663 6.68574 0.000287428C7.48362 0.00585148 8.00776 0.614559 8.00998 1.53931C8.00998 1.89763 8.00998 2.25596 8.00998 2.63876H16.0078C16.0078 2.21367 16.0033 1.80082 16.0078 1.38908C16.02 0.582288 16.5931 -0.00750225 17.3543 0.000287428C18.0943 0.00807711 18.6585 0.594529 18.6718 1.37795C18.6785 1.7908 18.6729 2.20477 18.6729 2.64099H26.6707C26.6707 2.25929 26.6685 1.86313 26.6707 1.46697C26.6752 0.592303 27.2327 -0.0119535 28.0228 -0.000825383C28.7917 0.00918992 29.3303 0.610108 29.3359 1.46586C29.3381 1.85089 29.3359 2.23704 29.3359 2.62763C30.0336 2.66436 30.7013 2.64655 31.3523 2.74225C33.1528 3.00822 34.5572 4.58062 34.6551 6.40006C34.683 6.91085 34.6596 7.42385 34.6596 7.96579H0.0422557V7.9669Z" fill="white"/>
</g>
<defs>
<clipPath id="clip0_1136_3262">
<rect width="40" height="39.9866" fill="white"/>
</clipPath>
</defs>
</svg>
