<svg width="192" height="56" viewBox="0 0 192 56" fill="none" xmlns="http://www.w3.org/2000/svg">
<g clip-path="url(#clip0_1529_1641)">
<path d="M15.8048 31.7117L0 10.0027C0 10.0027 10.7191 14.7935 17.803 14.7935C24.8869 14.7935 34.0833 12.4282 47.3362 6.52392C60.6012 0.619682 86.4571 -6.86745 125.71 12.3018C106.018 6.65633 88.1664 3.3762 71.6273 4.82066C55.0882 6.26512 42.082 16.6171 28.4379 17.7727C14.7937 18.9282 7.00564 15.8588 7.00564 15.8588L15.7988 31.7178L15.8048 31.7117Z" fill="white"/>
<path d="M75.7441 14.3544C75.7441 14.3544 85.8012 20.5596 122.822 18.742C159.842 16.9244 176.532 14.8901 191.62 27.3004C191.62 27.3004 183.345 13.3915 146.842 14.3544C110.339 15.3174 94.4018 18.8985 75.7441 14.3544Z" fill="white"/>
<path d="M29.4499 23.9478C31.1953 23.9478 32.6939 24.0982 33.9518 24.4052C35.2097 24.7121 36.2027 25.1515 36.925 25.7353C37.6532 26.3131 38.1829 26.9871 38.5139 27.7455C38.8449 28.5098 39.0074 29.3946 39.0074 30.3997H34.2647C34.2527 30.3335 34.2286 30.2432 34.1925 30.1349C34.1564 30.0265 34.0421 29.84 33.8434 29.5751C33.6448 29.3103 33.386 29.0696 33.067 28.8589C32.7481 28.6483 32.2726 28.4557 31.6286 28.2872C30.9846 28.1186 30.2443 28.0344 29.3957 28.0344C28.6434 28.0344 27.9813 28.0946 27.4216 28.221C26.8619 28.3473 26.4165 28.4978 26.0915 28.6904C25.7665 28.883 25.5077 29.1237 25.3151 29.4126C25.1225 29.7075 24.9961 29.9904 24.9299 30.2733C24.8637 30.5502 24.8336 30.8631 24.8336 31.2002C24.8336 31.6756 24.9058 32.0969 25.0503 32.4641C25.1947 32.8312 25.4355 33.1682 25.7665 33.4752C26.0975 33.7821 26.567 34.0169 27.1748 34.1794C27.7827 34.3419 28.523 34.4261 29.3957 34.4261C30.2684 34.4261 31.0749 34.3599 31.7369 34.2215C32.399 34.0831 32.8805 33.9206 33.1874 33.734C33.4944 33.5414 33.7351 33.3488 33.9096 33.1502C34.0902 32.9516 34.1925 32.7891 34.2166 32.6506L34.2587 32.446H39.0014C39.0014 33.1381 38.9171 33.7701 38.7426 34.3358C38.568 34.9016 38.2671 35.4493 37.8278 35.9789C37.3884 36.5086 36.8287 36.9539 36.1305 37.309C35.4384 37.6641 34.5356 37.947 33.4221 38.1577C32.3087 38.3683 31.0207 38.4766 29.5522 38.4766C27.7526 38.4766 26.248 38.3382 25.0262 38.0553C23.8104 37.7785 22.8354 37.3331 22.1012 36.7252C21.3669 36.1174 20.8433 35.3891 20.5243 34.5284C20.2053 33.6678 20.0488 32.6145 20.0488 31.3627C20.0488 30.0145 20.2474 28.8589 20.6567 27.902C21.06 26.945 21.6678 26.1746 22.4743 25.5968C23.2808 25.0191 24.2558 24.5978 25.3933 24.339C26.5309 24.0802 27.879 23.9538 29.4378 23.9538L29.4499 23.9478Z" fill="white"/>
<path d="M51.6108 24.1104L57.8581 38.4045H52.5015L51.4483 35.9971H44.563L43.5097 38.4045H38.1953L44.4246 24.1104H51.6047H51.6108ZM46.2121 31.8683H49.8052L47.9996 28.1127L46.2121 31.8683Z" fill="white"/>
<path d="M58.514 24.068H68.7516C69.0164 24.068 69.2692 24.074 69.5039 24.0861C69.7447 24.0981 70.0757 24.1463 70.503 24.2185C70.9303 24.2907 71.3216 24.393 71.6706 24.5254C72.0197 24.6579 72.3929 24.8504 72.7901 25.1153C73.1873 25.3801 73.5183 25.6931 73.7952 26.0542C74.066 26.4153 74.2887 26.8727 74.4693 27.4324C74.6498 27.9922 74.7341 28.6241 74.7341 29.3343C74.7341 31.5973 73.8795 33.2103 72.1762 34.1732L75.035 38.3983L69.6965 38.3802L67.3132 35.0098H63.1242V38.3983H58.502V24.062L58.514 24.068ZM68.3123 30.8269C69.4618 30.8269 70.0396 30.3755 70.0396 29.4787C70.0396 28.6602 69.4377 28.251 68.234 28.251H63.1363V30.8269H68.3123Z" fill="white"/>
<path d="M85.5316 24.068H95.7692C96.034 24.068 96.2868 24.074 96.5215 24.0861C96.7623 24.0981 97.0933 24.1463 97.5206 24.2185C97.9479 24.2907 98.3391 24.393 98.6882 24.5254C99.0373 24.6579 99.4104 24.8504 99.8077 25.1153C100.205 25.3801 100.536 25.6931 100.813 26.0542C101.084 26.4153 101.306 26.8727 101.487 27.4324C101.667 27.9922 101.752 28.6241 101.752 29.3343C101.752 31.5973 100.897 33.2103 99.1938 34.1732L102.053 38.3983L96.7141 38.3802L94.3308 35.0098H90.1418V38.3983H85.5195V24.062L85.5316 24.068ZM95.3298 30.8269C96.4794 30.8269 97.0572 30.3755 97.0572 29.4787C97.0572 28.6602 96.4553 28.251 95.2516 28.251H90.1538V30.8269H95.3298Z" fill="white"/>
<path d="M102.854 24.0684H118.231V28.0527H107.476V29.3166H117.551V33.1324H107.476V34.4203H118.231V38.4046H102.854V24.0684Z" fill="white"/>
<path d="M137.015 38.4046H130.707L123.882 29.768V38.4046H119.26V24.0684H125.706L132.41 32.5666V24.0684H137.015V38.4046Z" fill="white"/>
<path d="M138.104 24.0684H156.496V28.805H149.611V38.4046H145.007V28.805H138.104V24.0684Z" fill="white"/>
<path d="M167.072 24.1104L173.319 38.4045H167.962L166.909 35.9971H160.024L158.971 38.4045H153.656L159.885 24.1104H167.066H167.072ZM161.673 31.8683H165.266L163.461 28.1127L161.673 31.8683Z" fill="white"/>
<path d="M178.597 33.6498H188.696V38.4105H173.975V24.0742H178.597V33.6498Z" fill="white"/>
<path d="M30.7965 55.3412H20.9922V40.71H30.7363C31.6571 40.71 32.4757 40.7641 33.1919 40.8664C33.9081 40.9688 34.6363 41.1794 35.3646 41.4924C36.0928 41.8053 36.7067 42.2266 37.1942 42.7442C37.6817 43.2618 38.079 43.972 38.3799 44.8628C38.6869 45.7535 38.8373 46.8068 38.8373 48.0165C38.8373 49.1059 38.6748 50.0809 38.3498 50.9416C38.0248 51.8082 37.5975 52.5064 37.0679 53.0421C36.5382 53.5777 35.9183 54.0231 35.2021 54.3782C34.4859 54.7333 33.7636 54.98 33.0414 55.1185C32.3192 55.2569 31.5669 55.3291 30.7965 55.3291V55.3412ZM30.4715 51.3508C31.2178 51.3508 31.8497 51.2004 32.3794 50.8994C32.909 50.5985 33.2942 50.2073 33.5349 49.7198C33.7757 49.2323 33.9021 48.6726 33.9021 48.0466C33.9021 47.0415 33.6252 46.241 33.0775 45.6332C32.5298 45.0253 31.6571 44.7244 30.4715 44.7244H25.7228V51.3508H30.4715Z" fill="white"/>
<path d="M51.3026 40.71L57.7004 55.3412H52.2175L51.1401 52.8735H44.0924L43.015 55.3412H37.5742L43.9479 40.71H51.2966H51.3026ZM45.7776 48.6545H49.4549L47.6072 44.8086L45.7776 48.6545Z" fill="white"/>
<path d="M65.7763 40.7101C67.0462 40.7101 68.1356 40.7402 69.0444 40.8064C69.9532 40.8666 70.7536 40.987 71.4578 41.1495C72.162 41.312 72.7277 41.5226 73.1551 41.7634C73.5824 42.0101 73.9315 42.3351 74.2083 42.7564C74.4852 43.1717 74.6778 43.6352 74.7861 44.1467C74.8944 44.6583 74.9486 45.2782 74.9486 46.0185H69.911C69.911 45.7958 69.8749 45.6213 69.7967 45.4949C69.7245 45.3685 69.5559 45.2481 69.2971 45.1278C69.0383 45.0074 68.6351 44.9292 68.0814 44.875C67.5277 44.8268 66.7934 44.8028 65.8906 44.8028C64.6869 44.8028 63.8082 44.8329 63.2485 44.887C62.6947 44.9412 62.3396 45.0134 62.1952 45.0977C62.0447 45.1819 61.9725 45.3264 61.9725 45.537C61.9846 45.7176 62.1711 45.838 62.5322 45.9042C62.8934 45.9644 63.9707 46.0727 65.7702 46.2292C65.7943 46.2292 65.8184 46.2352 65.8304 46.2472C69.4055 46.5421 71.6685 46.807 72.6314 47.0417C73.8893 47.3486 74.7018 47.8722 75.069 48.6065C75.3097 49.1061 75.4361 49.8343 75.4361 50.7792C75.4361 51.4473 75.394 52.001 75.3037 52.4283C75.2134 52.8617 75.0389 53.2589 74.7741 53.62C74.5092 53.9811 74.1662 54.264 73.7509 54.4686C73.3296 54.6733 72.7518 54.8418 72.0055 54.9802C71.2592 55.1186 70.4106 55.2149 69.4596 55.2631C68.5027 55.3112 67.317 55.3353 65.8966 55.3353C64.9216 55.3353 64.079 55.3233 63.3688 55.2932C62.6586 55.2631 61.9966 55.2149 61.3767 55.1487C60.7628 55.0765 60.2512 54.9862 59.8419 54.8779C59.4387 54.7696 59.0716 54.6131 58.7465 54.4205C58.4215 54.2279 58.1688 54.0112 57.9882 53.7825C57.8076 53.5538 57.6512 53.2589 57.5308 52.8918C57.4104 52.5306 57.3262 52.1455 57.29 51.7422C57.2479 51.339 57.2299 50.8575 57.2299 50.2977H62.123C62.123 50.5325 62.1591 50.713 62.2373 50.8394C62.3096 50.9658 62.4901 51.0681 62.773 51.1524C63.0559 51.2366 63.4531 51.2908 63.9586 51.3209C64.4642 51.351 65.1864 51.363 66.1193 51.363H66.6068C68.1476 51.363 69.0865 51.3329 69.4175 51.2788C69.7485 51.2246 69.9171 51.044 69.9171 50.7371C69.9171 50.5565 69.8027 50.4362 69.574 50.382C69.3453 50.3278 68.7073 50.2616 67.6661 50.1954C66.9078 50.1413 66.2758 50.0931 65.7763 50.051C64.9758 49.9788 64.3679 49.9246 63.9406 49.8825C63.5133 49.8403 62.9836 49.7801 62.3577 49.7019C61.7258 49.6237 61.2503 49.5514 60.9253 49.4732C60.6003 49.395 60.2151 49.2987 59.7697 49.1783C59.3243 49.0579 58.9873 48.9255 58.7646 48.769C58.5419 48.6186 58.2952 48.432 58.0364 48.2273C57.7776 48.0227 57.585 47.782 57.4706 47.5171C57.3563 47.2523 57.2539 46.9514 57.1637 46.6083C57.0734 46.2653 57.0312 45.8921 57.0312 45.4889C57.0312 45.0014 57.0674 44.562 57.1336 44.1708C57.1998 43.7796 57.2961 43.4305 57.4164 43.1236C57.5368 42.8166 57.7053 42.5458 57.922 42.3111C58.1387 42.0763 58.3674 41.8717 58.6141 41.6972C58.8549 41.5226 59.1739 41.3782 59.5591 41.2578C59.9442 41.1374 60.3294 41.0472 60.7146 40.9749C61.0998 40.9027 61.5753 40.8486 62.1471 40.8064C62.7128 40.7643 63.2725 40.7342 63.8202 40.7222C64.3679 40.7101 65.0239 40.7041 65.7823 40.7041L65.7763 40.7101Z" fill="white"/>
<path d="M89.3282 40.668H94.0588V55.3413H89.3282V50.2436H80.8419V55.3413H76.1113V40.668H80.8419V45.7477H89.3282V40.668Z" fill="white"/>
<path d="M111.843 51.2243C111.843 51.9224 111.771 52.5122 111.632 52.9877C111.488 53.4692 111.241 53.8905 110.88 54.2636C110.519 54.6308 110.019 54.9016 109.369 55.0762C108.719 55.2507 107.913 55.335 106.956 55.335H95.1836V40.6616H105.337C106.3 40.6616 107.112 40.7399 107.781 40.8903C108.449 41.0468 108.984 41.2815 109.387 41.6126C109.785 41.9376 110.074 42.3228 110.248 42.7621C110.423 43.2015 110.513 43.7251 110.513 44.339C110.513 45.6631 110.188 46.62 109.538 47.2038C109.821 47.2881 110.092 47.4145 110.338 47.589C110.591 47.7636 110.838 47.9983 111.079 48.2992C111.319 48.6001 111.512 48.9974 111.644 49.5029C111.777 50.0025 111.849 50.5742 111.849 51.2182L111.843 51.2243ZM99.9262 44.7482V46.1506H105.265C105.451 46.1506 105.614 46.0784 105.74 45.9399C105.867 45.8015 105.933 45.633 105.933 45.4404C105.933 45.2478 105.867 45.0793 105.74 44.9469C105.614 44.8145 105.451 44.7482 105.265 44.7482H99.9262ZM106.872 51.2905C107.076 51.2905 107.245 51.2182 107.377 51.0798C107.51 50.9414 107.582 50.7668 107.582 50.5682C107.582 50.3696 107.516 50.1951 107.377 50.0566C107.239 49.9182 107.07 49.846 106.872 49.846H99.9262V51.2905H106.872Z" fill="white"/>
<path d="M121.748 40.4391C123.036 40.4391 124.168 40.5113 125.161 40.6558C126.148 40.8002 127.063 41.047 127.899 41.3961C128.736 41.7452 129.428 42.2026 129.958 42.7623C130.487 43.322 130.909 44.0382 131.204 44.8929C131.499 45.7475 131.649 46.7586 131.649 47.9142C131.649 49.0698 131.517 50.0448 131.252 50.8814C130.987 51.718 130.608 52.4221 130.114 52.9999C129.621 53.5777 128.971 54.0472 128.164 54.4023C127.358 54.7574 126.449 55.0101 125.432 55.1666C124.415 55.3171 123.235 55.3953 121.881 55.3953C118.523 55.3953 116.085 54.7634 114.562 53.5055C113.04 52.2476 112.281 50.2916 112.281 47.6434C112.281 45.1938 113.058 43.3762 114.616 42.1966C116.175 41.0169 118.547 40.4331 121.742 40.4331L121.748 40.4391ZM121.929 51.5555C123.361 51.5555 124.475 51.2545 125.257 50.6587C126.04 50.0568 126.437 49.148 126.437 47.9202C126.437 46.6924 126.022 45.8318 125.197 45.2119C124.373 44.592 123.259 44.279 121.869 44.279C121.141 44.279 120.497 44.3572 119.943 44.5197C119.389 44.6822 118.932 44.923 118.571 45.242C118.21 45.5609 117.945 45.9461 117.77 46.3915C117.596 46.8369 117.505 47.3485 117.505 47.9142C117.505 49.0156 117.879 49.8943 118.625 50.5564C119.371 51.2184 120.473 51.5494 121.935 51.5494L121.929 51.5555Z" fill="white"/>
<path d="M144.512 40.71L150.909 55.3412H145.426L144.349 52.8735H137.301L136.224 55.3412H130.783L137.157 40.71H144.506H144.512ZM138.987 48.6545H142.664L140.816 44.8086L138.987 48.6545Z" fill="white"/>
<path d="M151.578 40.668H162.056C162.327 40.668 162.586 40.674 162.827 40.686C163.068 40.6981 163.411 40.7462 163.85 40.8245C164.289 40.9027 164.687 41.005 165.048 41.1374C165.409 41.2698 165.788 41.4745 166.197 41.7453C166.601 42.0161 166.944 42.3351 167.22 42.7083C167.497 43.0754 167.726 43.5509 167.913 44.1166C168.093 44.6884 168.189 45.3384 168.189 46.0606C168.189 48.3718 167.317 50.0269 165.571 51.0139L168.496 55.3413L163.038 55.3232L160.6 51.8746H156.315V55.3413H151.584V40.668H151.578ZM161.605 47.5833C162.785 47.5833 163.369 47.1259 163.369 46.2051C163.369 45.3685 162.755 44.9532 161.521 44.9532H156.303V47.5894H161.599L161.605 47.5833Z" fill="white"/>
<path d="M179.168 55.3412H169.363V40.71H179.107C180.028 40.71 180.847 40.7641 181.563 40.8664C182.279 40.9688 183.007 41.1794 183.736 41.4924C184.464 41.8053 185.078 42.2266 185.565 42.7442C186.053 43.2618 186.45 43.972 186.751 44.8628C187.058 45.7535 187.208 46.8068 187.208 48.0165C187.208 49.1059 187.046 50.0809 186.721 50.9416C186.396 51.8082 185.969 52.5064 185.439 53.0421C184.909 53.5777 184.289 54.0231 183.573 54.3782C182.857 54.7333 182.135 54.98 181.413 55.1185C180.69 55.2569 179.938 55.3291 179.168 55.3291V55.3412ZM178.843 51.3508C179.589 51.3508 180.221 51.2004 180.75 50.8994C181.28 50.5985 181.665 50.2073 181.906 49.7198C182.147 49.2323 182.273 48.6726 182.273 48.0466C182.273 47.0415 181.996 46.241 181.449 45.6332C180.901 45.0253 180.028 44.7244 178.843 44.7244H174.094V51.3508H178.843Z" fill="white"/>
</g>
<defs>
<clipPath id="clip0_1529_1641">
<rect width="191.62" height="55.4012" fill="white"/>
</clipPath>
</defs>
</svg>
