<svg width="22" height="23" viewBox="0 0 22 23" fill="none" xmlns="http://www.w3.org/2000/svg">
<path d="M10.0418 22.9988C9.6946 22.6898 9.3468 22.3814 8.97786 22.0538C9.37306 21.6848 9.7215 21.3476 10.0847 21.0248C10.1499 20.9716 10.2012 20.905 10.2346 20.8302C10.2679 20.7554 10.2824 20.6743 10.2768 20.5934C10.2653 19.9749 10.2723 19.3557 10.2723 18.7089L8.63262 20.2478L7.57063 19.2567C7.6097 19.2183 7.66479 19.1595 7.72436 19.1037C8.52052 18.3573 9.32053 17.6145 10.109 16.8603C10.2006 16.7643 10.2548 16.6421 10.2627 16.5135C10.2807 16.0797 10.2627 15.6453 10.273 15.2115C10.2762 15.0717 10.2256 15.0003 10.0904 14.9391C9.48707 14.6659 8.88776 14.386 8.2925 14.0992C8.16439 14.0362 8.07152 14.0338 7.94854 14.1124C7.57896 14.3482 7.20553 14.5791 6.8225 14.7951C6.73379 14.8413 6.6576 14.9059 6.59985 14.984C6.54209 15.0622 6.5043 15.1517 6.48943 15.2457C6.2582 16.3143 6.01032 17.3799 5.75924 18.4857L4.32318 18.1989C4.48652 17.4789 4.64345 16.7763 4.80998 16.0425C4.72799 16.0833 4.66907 16.1085 4.61783 16.1409C4.10156 16.4535 3.59299 16.7745 3.06776 17.0769C2.99705 17.116 2.93677 17.1696 2.89149 17.2338C2.84621 17.2979 2.81712 17.3709 2.80643 17.4471C2.71099 17.9013 2.60402 18.3525 2.49642 18.8271L1.06421 18.5421L1.33387 17.3145L0.0259243 17.0469C0.125205 16.6077 0.222565 16.1739 0.32697 15.7089C0.625453 15.7653 0.923935 15.7869 1.19359 15.8799C1.79376 16.0875 2.30234 16.0035 2.7981 15.6153C3.15039 15.3399 3.56673 15.1353 4.01509 14.8635L1.69064 14.3938C1.79056 13.948 1.88728 13.519 1.99104 13.057C2.28697 13.1122 2.57264 13.1638 2.85767 13.2202C3.77106 13.4002 4.68252 13.5892 5.59718 13.7638C5.70306 13.7791 5.81135 13.7594 5.90335 13.708C6.33122 13.4608 6.75461 13.2058 7.16774 12.9376C7.21058 12.905 7.24582 12.8646 7.27128 12.8188C7.29673 12.773 7.31185 12.7227 7.3157 12.6712C7.32723 11.8912 7.3189 11.1142 7.32595 10.336C7.33071 10.2776 7.31673 10.2191 7.28581 10.1681C7.25489 10.1171 7.20843 10.0759 7.15237 10.0498C6.75204 9.81823 6.35364 9.58243 5.96292 9.33584C5.90002 9.29254 5.82744 9.26318 5.75066 9.24998C5.67388 9.23678 5.5949 9.24008 5.51968 9.25964C4.39108 9.49964 3.2612 9.72823 2.13132 9.96043C2.09353 9.96823 2.05382 9.96943 1.99233 9.97663L1.68039 8.64585L4.00356 8.16586C3.45848 7.83826 2.94414 7.55267 2.45927 7.22927C2.17423 7.03908 1.91226 6.98508 1.57406 7.08108C1.17182 7.19448 0.751635 7.25327 0.313518 7.34147C0.207832 6.89268 0.105991 6.45829 -0.000976562 6.0035L1.30441 5.7299C1.21217 5.32371 1.12186 4.92592 1.02578 4.50412L2.4535 4.20833C2.55278 4.62532 2.67192 5.02731 2.73917 5.43711C2.78785 5.7305 2.93133 5.9093 3.20355 6.0575C3.72622 6.34249 4.22839 6.66228 4.79397 7.00248C4.62039 6.25129 4.45961 5.5553 4.2918 4.83112L5.71824 4.53472C5.79831 4.86412 5.87965 5.18811 5.95588 5.51331C6.13778 6.29329 6.312 7.07748 6.50608 7.85326C6.54346 7.97723 6.62479 8.08557 6.73667 8.16046C7.137 8.41965 7.55654 8.65305 7.96199 8.90565C8.00428 8.93773 8.05639 8.95636 8.11074 8.95884C8.1651 8.96132 8.21889 8.94752 8.26432 8.91945C8.87473 8.62605 9.48771 8.33685 10.1052 8.05666C10.1604 8.03781 10.2069 8.00178 10.2371 7.95459C10.2673 7.90741 10.2793 7.85194 10.2711 7.79747C10.264 7.35587 10.2788 6.91368 10.2615 6.47269C10.2524 6.35124 10.1998 6.23622 10.1122 6.14629C9.32886 5.39811 8.53525 4.65952 7.74229 3.92033C7.68243 3.87103 7.61814 3.82667 7.55013 3.78773L8.62813 2.77915C9.14503 3.26394 9.68691 3.77333 10.2698 4.32113C10.2698 3.73194 10.2422 3.19434 10.2794 2.66095C10.3044 2.28956 10.1865 2.02497 9.88676 1.78797C9.58699 1.55097 9.30388 1.25878 9.03614 1.01158L10.0898 0.0192001L10.9724 0.895785C11.2965 0.57659 11.597 0.281395 11.8839 0L12.9613 1.01158C12.6231 1.32658 12.2676 1.67157 11.8986 1.99677C11.84 2.04584 11.7941 2.10681 11.7645 2.17502C11.7349 2.24323 11.7222 2.31689 11.7276 2.39036C11.7366 3.01615 11.7315 3.64254 11.7315 4.30133L13.3667 2.76295L14.4268 3.75534C14.3813 3.79973 14.323 3.85973 14.2615 3.91673C13.4654 4.66312 12.666 5.40711 11.8762 6.15949C11.7937 6.24435 11.7448 6.35326 11.7379 6.46789C11.7225 6.90888 11.7379 7.35107 11.7289 7.79267C11.7289 7.91686 11.7564 7.99546 11.889 8.05546C12.5135 8.33866 13.1304 8.63805 13.7561 8.91945C13.8003 8.93468 13.8475 8.94091 13.8944 8.9377C13.9414 8.93449 13.987 8.92193 14.0284 8.90085C14.4554 8.65445 14.8773 8.39805 15.294 8.13166C15.3797 8.07267 15.4412 7.98797 15.4683 7.89166C15.7296 6.78288 15.9807 5.6717 16.2433 4.52272L17.6781 4.80532C17.5141 5.5307 17.3578 6.23029 17.1906 6.96528C17.2726 6.92568 17.3328 6.90528 17.3828 6.86928C17.9189 6.54469 18.4589 6.22429 18.9841 5.8859C19.0842 5.80802 19.1534 5.70089 19.1807 5.5817C19.2973 5.12511 19.3927 4.66372 19.501 4.17893L20.9345 4.46212C20.8435 4.87672 20.7558 5.27511 20.6648 5.6915L21.9753 5.9591C21.8741 6.40729 21.7761 6.83628 21.6724 7.29647C21.313 7.22747 20.953 7.19328 20.62 7.08648C20.1357 6.93108 19.7437 7.01508 19.3441 7.30727C18.9444 7.59947 18.4819 7.84306 17.9906 8.14246L20.3106 8.61105C20.2088 9.06104 20.1114 9.49004 20.0096 9.93823C19.9314 9.92923 19.8622 9.92683 19.795 9.91303C18.6709 9.69103 17.5474 9.46424 16.422 9.24884C16.3096 9.231 16.194 9.24985 16.0947 9.30224C15.6655 9.54823 15.2437 9.80463 14.829 10.0714C14.7879 10.1007 14.7537 10.1375 14.7285 10.1798C14.7034 10.222 14.6879 10.2687 14.683 10.3168C14.6715 11.1104 14.6715 11.9038 14.683 12.697C14.6867 12.742 14.7004 12.7858 14.7233 12.8256C14.7461 12.8654 14.7775 12.9002 14.8156 12.928C15.246 13.1992 15.683 13.4612 16.1267 13.714C16.2146 13.7566 16.3154 13.7697 16.4124 13.7512C17.5589 13.5226 18.7042 13.2856 19.8501 13.051C19.8885 13.0432 19.9282 13.0378 20.0038 13.0246L20.3209 14.359L18.022 14.8389C18.0982 14.8923 18.1501 14.9319 18.2039 14.9649C18.7272 15.2805 19.2473 15.6015 19.7796 15.9039C19.9004 15.9663 20.04 15.9889 20.1761 15.9681C20.6699 15.8835 21.1587 15.7731 21.6858 15.6681C21.7909 16.1151 21.894 16.5537 22.0003 17.0085L20.6943 17.2779C20.7872 17.6871 20.8781 18.0849 20.9735 18.5043L19.5452 18.7989C19.4273 18.3003 19.3184 17.8203 19.1967 17.3427C19.1753 17.2513 19.1213 17.1694 19.0437 17.1105C18.4845 16.7637 17.9176 16.4277 17.3527 16.0905C17.3064 16.0682 17.2589 16.0482 17.2105 16.0305C17.3796 16.7607 17.5416 17.4591 17.7082 18.1791L16.2798 18.4791C16.1658 18.0021 16.0537 17.5383 15.9455 17.0733C15.7949 16.4307 15.6547 15.7863 15.4926 15.1467C15.4576 15.0295 15.3813 14.9267 15.2761 14.8551C14.8681 14.5929 14.4492 14.3452 14.0265 14.1046C13.9845 14.0846 13.9385 14.0732 13.8914 14.071C13.8444 14.0688 13.7975 14.076 13.7536 14.092C13.1278 14.374 12.5103 14.6715 11.8865 14.9565C11.8352 14.9742 11.7918 15.0075 11.7631 15.051C11.7345 15.0945 11.7222 15.1457 11.7283 15.1965C11.7359 15.6459 11.7225 16.0965 11.7379 16.5435C11.7454 16.6582 11.7949 16.7669 11.8781 16.8513C12.6679 17.6037 13.4673 18.3477 14.2641 19.0941C14.3249 19.1511 14.3826 19.2141 14.4293 19.2573L13.3923 20.2239L11.7552 18.6789C11.7436 18.7785 11.7321 18.8325 11.7321 18.8871C11.7321 19.4781 11.7244 20.0697 11.7372 20.6606C11.7442 20.7752 11.7925 20.8842 11.8743 20.9696C12.2317 21.3212 12.6051 21.6584 12.9907 22.0166L11.9595 22.9988H11.9114L11 22.094L10.0898 22.9988H10.0418ZM13.2053 11.5054C13.2053 11.1238 13.213 10.7422 13.1989 10.3612C13.1935 10.3179 13.1782 10.2762 13.1538 10.239C13.1295 10.2017 13.0968 10.17 13.058 10.1458C12.4213 9.83623 11.7808 9.53623 11.1364 9.24584C11.0952 9.2298 11.051 9.22154 11.0064 9.22154C10.9618 9.22154 10.9176 9.2298 10.8764 9.24584C10.2239 9.54223 9.57525 9.84663 8.93046 10.159C8.89437 10.1814 8.86412 10.211 8.84194 10.2458C8.81977 10.2806 8.80624 10.3197 8.80235 10.36C8.79339 11.1232 8.79339 11.8862 8.80235 12.649C8.80791 12.6916 8.82348 12.7326 8.84795 12.7689C8.87243 12.8052 8.9052 12.836 8.94391 12.859C9.58059 13.1694 10.2211 13.4708 10.8655 13.7632C10.9068 13.7794 10.9511 13.7877 10.9958 13.7877C11.0406 13.7877 11.0849 13.7794 11.1262 13.7632C11.7718 13.4704 12.4072 13.1632 13.0548 12.8698C13.1771 12.814 13.2079 12.745 13.2053 12.6298C13.2002 12.253 13.2053 11.8792 13.2053 11.5054Z" fill="#242E69"/>
</svg>
