<svg width="21" height="23" viewBox="0 0 21 23" fill="none" xmlns="http://www.w3.org/2000/svg">
<g clip-path="url(#clip0_335_3976)">
<path d="M6.97942 23.0007C6.97942 20.4247 6.98102 17.8495 6.98422 15.2748C6.98422 14.9683 6.98422 14.6618 6.98422 14.2803L1.65533 19.525L0.00480254 17.8945L3.24687 14.7064L6.49579 11.5095L0 5.11908L1.65602 3.48992L6.97599 8.72579V0.000697711C7.37113 0.000697711 7.74089 -0.00267862 8.10996 0.00542329C8.16004 0.00542329 8.2156 0.0587613 8.25607 0.0985957C10.4188 2.2258 12.5809 4.35413 14.7423 6.48358C14.7628 6.50451 14.7786 6.52882 14.8047 6.5619L9.81125 11.4534L14.8548 16.3956C14.7519 16.5023 14.6929 16.5664 14.6311 16.6272L8.31988 22.8387C8.26637 22.892 8.21629 22.9474 8.16415 23.002L6.97942 23.0007ZM9.33791 8.67245L11.4522 6.57473L9.33791 4.49659V8.67245ZM9.33791 18.5122L11.4268 16.4435L9.33791 14.4012V18.5122Z" fill="#242E69"/>
<path d="M19.2081 17.5011C18.7581 17.0589 18.3163 16.6349 17.8937 16.1994C17.8546 16.1596 17.8676 16.0326 17.9006 15.9665C18.3834 15.0069 18.7076 13.9776 18.861 12.9175C19.1128 11.2137 18.9085 9.47486 18.2683 7.87266C18.153 7.58099 18.0055 7.3008 17.8889 7.00913C17.8765 6.97157 17.873 6.9317 17.8787 6.8926C17.8844 6.85351 17.8992 6.81622 17.9218 6.78362C18.3643 6.33127 18.8178 5.88836 19.2705 5.44141C21.3759 8.59035 21.7937 13.5055 19.2081 17.5011Z" fill="#242E69"/>
<path d="M13.189 11.4877L15.8369 8.86133C16.4996 10.6255 16.4941 12.3776 15.8479 14.1046L13.189 11.4877Z" fill="#242E69"/>
</g>
<defs>
<clipPath id="clip0_335_3976">
<rect width="21" height="23" fill="white"/>
</clipPath>
</defs>
</svg>
