<svg width="26" height="24" viewBox="0 0 26 24" fill="none" xmlns="http://www.w3.org/2000/svg">
<g clip-path="url(#clip0_335_3968)">
<path d="M26.0012 22.7976C25.8202 23.3209 25.4374 23.5026 24.9044 23.5004C22.0199 23.4917 19.1343 23.5004 16.2487 23.5004H16.0085L15.9888 23.4468L24.2825 16.4961C24.3922 16.8574 24.4843 17.1858 24.5787 17.5153C25.0357 19.113 25.4926 20.7099 25.9496 22.306C25.9648 22.3538 25.9827 22.4005 26.0034 22.4462L26.0012 22.7976Z" fill="#242E69"/>
<path d="M12.8858 0.50003C16.356 0.489082 19.0277 3.48109 18.6526 6.80809C18.4782 8.3342 17.9002 9.70813 17.1171 11.0032C16.1643 12.5441 15.0032 13.9466 13.6667 15.171C13.228 15.5794 12.7695 15.5827 12.3385 15.1776C10.6265 13.565 9.14253 11.7761 8.15105 9.62602C7.55002 8.32215 7.18151 6.96245 7.35589 5.50312C7.50327 4.27304 8.05065 3.12513 8.91417 2.23531C9.77769 1.34548 10.9097 0.762836 12.1367 0.576662C12.412 0.53725 12.7048 0.518641 12.8858 0.50003ZM14.4684 6.17641C14.4641 5.88677 14.3742 5.60486 14.2099 5.36607C14.0456 5.12727 13.8144 4.94223 13.5451 4.83417C13.2759 4.72611 12.9807 4.69984 12.6965 4.75867C12.4124 4.8175 12.152 4.95879 11.948 5.16482C11.744 5.37085 11.6055 5.63244 11.5499 5.91674C11.4944 6.20105 11.5242 6.49541 11.6356 6.76287C11.747 7.03033 11.9351 7.25898 12.1763 7.42011C12.4174 7.58124 12.7009 7.66768 12.9911 7.66857C13.3847 7.66453 13.7608 7.50547 14.0375 7.22601C14.3141 6.94655 14.469 6.56931 14.4684 6.17641Z" fill="#242E69"/>
<path d="M1.94141 15.684L2.48979 13.7288C2.5545 13.5022 2.61702 13.2734 2.68502 13.0478C2.83089 12.5618 3.12372 12.3198 3.62494 12.3165C5.12313 12.3071 6.62205 12.3071 8.1217 12.3165C8.17575 12.3278 8.227 12.3498 8.27239 12.3812C8.31779 12.4127 8.35643 12.4528 8.38602 12.4994C9.28783 13.7893 10.3254 14.9792 11.4811 16.0486C12.4144 16.9135 13.5737 16.9124 14.5071 16.0486C15.6593 14.988 16.6894 13.8023 17.578 12.5136C17.6172 12.4461 17.6746 12.3911 17.7436 12.3547C17.8127 12.3183 17.8906 12.302 17.9685 12.3078C19.3822 12.3154 20.796 12.3078 22.2097 12.3078C22.8677 12.3078 23.1408 12.5114 23.324 13.1453C23.5072 13.7791 23.6794 14.413 23.8724 15.0425C23.9 15.1019 23.9051 15.1692 23.8867 15.232C23.8684 15.2948 23.8278 15.3488 23.7726 15.3841C22.4038 16.5029 21.0391 17.6262 19.6783 18.7538C19.6243 18.8047 19.5584 18.8413 19.4866 18.8605C19.4148 18.8796 19.3393 18.8805 19.2671 18.8633C15.8927 18.2414 12.5168 17.6236 9.1395 17.0098L2.12895 15.7289C2.07411 15.7246 2.01928 15.7092 1.94141 15.684Z" fill="#242E69"/>
<path d="M18.281 19.9261L15.6488 22.132C15.1552 22.5459 14.6617 22.9619 14.167 23.3669C14.0779 23.4399 13.9683 23.4835 13.8533 23.4917C11.1275 23.4983 8.40166 23.4983 5.67583 23.4917C5.6188 23.4917 5.56616 23.4808 5.49268 23.4742V17.5898L18.281 19.9261Z" fill="#242E69"/>
<path d="M1.60992 16.8809L4.24216 17.3615V23.4834C4.17745 23.49 4.12042 23.4998 4.06339 23.4998C3.03133 23.4998 1.99817 23.5064 0.965015 23.4998C0.244438 23.4944 -0.14601 22.9875 0.0481181 22.2956C0.544954 20.5341 1.05386 18.7748 1.55837 17.0155C1.57153 16.975 1.58908 16.9378 1.60992 16.8809Z" fill="#242E69"/>
</g>
<defs>
<clipPath id="clip0_335_3968">
<rect width="26" height="23" fill="white" transform="translate(0 0.5)"/>
</clipPath>
</defs>
</svg>
