<?xml version="1.0" encoding="UTF-8"?>
<svg id="Layer_1" data-name="Layer 1" xmlns="http://www.w3.org/2000/svg" xmlns:xlink="http://www.w3.org/1999/xlink" viewBox="0 0 758.12 462.71">
  <defs>
    <style>
      .cls-1 {
        fill: #0094da;
      }

      .cls-1, .cls-2, .cls-3, .cls-4, .cls-5, .cls-6, .cls-7, .cls-8, .cls-9, .cls-10, .cls-11, .cls-12, .cls-13, .cls-14, .cls-15, .cls-16, .cls-17, .cls-18, .cls-19, .cls-20, .cls-21, .cls-22, .cls-23, .cls-24, .cls-25, .cls-26, .cls-27, .cls-28, .cls-29 {
        stroke-width: 0px;
      }

      .cls-2 {
        fill: #353f5a;
      }

      .cls-3 {
        fill: url(#linear-gradient);
      }

      .cls-4 {
        fill: #2c3449;
      }

      .cls-5 {
        fill: #10c392;
      }

      .cls-6 {
        fill: #d6eef9;
      }

      .cls-6, .cls-8, .cls-16, .cls-17 {
        isolation: isolate;
        opacity: .5;
      }

      .cls-7 {
        fill: #f1f2f2;
      }

      .cls-8, .cls-27 {
        fill: #e0f2fb;
      }

      .cls-9 {
        fill: #fec40c;
      }

      .cls-30 {
        fill: none;
        stroke: #fff;
        stroke-linecap: round;
        stroke-miterlimit: 10;
      }

      .cls-10 {
        fill: #f9bf9d;
      }

      .cls-11 {
        fill: #e6e7e8;
      }

      .cls-12 {
        fill: #054b86;
      }

      .cls-13 {
        fill: url(#linear-gradient-2);
      }

      .cls-14 {
        fill: url(#linear-gradient-3);
      }

      .cls-15 {
        fill: #414e6e;
      }

      .cls-16 {
        fill: #cdd9ff;
      }

      .cls-17 {
        fill: url(#linear-gradient-5);
      }

      .cls-18 {
        fill: #231f20;
      }

      .cls-19 {
        fill: #6993b6;
      }

      .cls-20 {
        fill: #fff;
      }

      .cls-21 {
        fill: #006fa3;
      }

      .cls-22 {
        fill: #2d132c;
      }

      .cls-23 {
        fill: #b7c0e2;
      }

      .cls-24 {
        fill: #f3f7ff;
      }

      .cls-25 {
        fill: #8f9bc1;
      }

      .cls-26 {
        fill: url(#linear-gradient-4);
      }

      .cls-28 {
        fill: #f19381;
      }

      .cls-29 {
        fill: #cceaf8;
      }
    </style>
    <linearGradient id="linear-gradient" x1="2377.4" y1="1025.29" x2="2371.99" y2="1025.09" gradientTransform="translate(-23598.98 43681.88) scale(10.2 -42.34)" gradientUnits="userSpaceOnUse">
      <stop offset="0" stop-color="#801336"/>
      <stop offset="1" stop-color="#801336" stop-opacity="0"/>
    </linearGradient>
    <linearGradient id="linear-gradient-2" x1="2522.56" y1="1044.4" x2="2520.9" y2="1047.6" gradientTransform="translate(-52889.22 11169.93) scale(21.2 -10.43)" xlink:href="#linear-gradient"/>
    <linearGradient id="linear-gradient-3" x1="2516.56" y1="1028.31" x2="2517.76" y2="1027.5" gradientTransform="translate(-53569.25 33595.19) scale(21.33 -32.41)" xlink:href="#linear-gradient"/>
    <linearGradient id="linear-gradient-4" x1="2445.38" y1="1030.31" x2="2447.49" y2="1029.18" gradientTransform="translate(-34556.12 28467.29) scale(14.2 -27.38)" xlink:href="#linear-gradient"/>
    <linearGradient id="linear-gradient-5" x1="2437.74" y1="1031.62" x2="2435.74" y2="1033.56" gradientTransform="translate(-32523.13 22546.05) scale(13.44 -21.58)" gradientUnits="userSpaceOnUse">
      <stop offset="0" stop-color="#b7c0e2"/>
      <stop offset="1" stop-color="#b7c0e2" stop-opacity="0"/>
    </linearGradient>
  </defs>
  <path id="Path_1" data-name="Path 1" class="cls-8" d="M758.12,415.34c-.13.09-.24.18-.37.27-37.55,26.92-192.55,47.1-378.05,47.1S39.19,442.53,1.64,415.61c-.13-.09-.25-.18-.38-.27,11.97-1.02,176.82-1.83,378.43-1.83s366.47.81,378.43,1.83Z"/>
  <path id="Path_2" data-name="Path 2" class="cls-27" d="M758.12,416.22c0,.19-.36.36-1.07.55-14.65,3.76-178.28,6.76-377.99,6.76s-363.34-2.98-378-6.76c-.71-.19-1.07-.36-1.07-.55s.23-.29.7-.45c11.97-3.83,176.79-6.84,378.37-6.84s366.4,3.02,378.36,6.84c.46.15.69.29.69.45Z"/>
  <path id="Path_11" data-name="Path 11" class="cls-16" d="M538.29,319.42c0,7.84.96,15.65,2.86,23.25,28.83-31.11,48.24-69.76,55.98-111.46-35.63,14.82-58.84,49.62-58.84,88.21Z"/>
  <g>
    <path id="Path_12" data-name="Path 12" class="cls-12" d="M441.75,6.36l-14.21-6.07-6.7,13.29c-4.66-.88-9.44-.93-14.11-.15l-6.41-13.43-14.34,5.76,4.66,14.13c-3.92,2.67-7.33,6.01-10.08,9.87l-14.03-4.96-6.06,14.21,13.28,6.7c-.88,4.66-.93,9.44-.15,14.11l-13.43,6.42,5.76,14.34,14.13-4.66c2.67,3.92,6.01,7.33,9.87,10.08l-4.96,14.03,14.21,6.06,6.7-13.28c4.66.88,9.43.93,14.11.15l6.41,13.43,14.34-5.76-4.66-14.13c3.92-2.67,7.33-6.01,10.08-9.87l14.03,4.96,6.06-14.21-13.28-6.7c.88-4.66.93-9.43.15-14.11l13.43-6.41-5.76-14.34-14.13,4.66c-2.67-3.92-6.01-7.33-9.87-10.08l4.96-14.03ZM432.28,61.27c-4.46,10.44-16.54,15.29-26.99,10.83-10.44-4.46-15.29-16.54-10.83-26.99,4.46-10.44,16.53-15.29,26.97-10.84h0c10.45,4.45,15.31,16.53,10.86,26.98,0,0,0,.01,0,.02Z"/>
    <path id="Path_13" data-name="Path 13" class="cls-1" d="M321.28,46.44h-11.23l-.69,10.79c-3.36.74-6.57,2.07-9.47,3.92l-8.11-7.14-7.94,7.94,7.14,8.11c-1.86,2.9-3.18,6.11-3.92,9.47l-10.79.69v11.23l10.79.69c.74,3.36,2.07,6.57,3.92,9.47l-7.14,8.11,7.94,7.94,8.11-7.14c2.9,1.86,6.11,3.19,9.47,3.92l.69,10.79h11.23l.69-10.79c3.36-.74,6.57-2.07,9.47-3.92l8.11,7.14,7.94-7.94-7.14-8.11c1.86-2.9,3.18-6.11,3.92-9.47l10.79-.69v-11.23l-10.79-.69c-.74-3.36-2.07-6.57-3.92-9.47l7.14-8.11-7.94-7.94-8.11,7.14c-2.9-1.86-6.11-3.19-9.47-3.92l-.69-10.79ZM330.62,85.83c0,8.25-6.69,14.94-14.94,14.94s-14.94-6.69-14.94-14.94,6.69-14.94,14.94-14.94h0c8.25,0,14.94,6.69,14.94,14.94h0Z"/>
  </g>
  <g id="Monitor">
    <path id="Rectangle_1" data-name="Rectangle 1" class="cls-21" d="M188.64,156.48h381.15c6.97,0,12.61,5.65,12.61,12.61v245.8H176.02v-245.8c0-6.97,5.65-12.61,12.61-12.61Z"/>
    <path id="Rectangle_2" data-name="Rectangle 2" class="cls-29" d="M573.99,184.28v222.19H184.44v-222.19c0-10.63,8.62-19.25,19.25-19.25h0s351.05,0,351.05,0c10.63,0,19.25,8.62,19.25,19.25h0Z"/>
    <path id="Path_17" data-name="Path 17" class="cls-19" d="M565.26,165.03H193.17c-4.82,0-8.73,3.91-8.73,8.73v12.5h389.55v-12.5c0-4.82-3.91-8.73-8.73-8.73Z"/>
    <g id="Group_4" data-name="Group 4">
      <circle id="Ellipse_1" data-name="Ellipse 1" class="cls-1" cx="205.49" cy="175.65" r="3.95"/>
      <circle id="Ellipse_2" data-name="Ellipse 2" class="cls-9" cx="220.07" cy="175.65" r="3.95"/>
      <circle id="Ellipse_3" data-name="Ellipse 3" class="cls-5" cx="234.66" cy="175.65" r="3.95"/>
    </g>
    <path id="Rectangle_3" data-name="Rectangle 3" class="cls-24" d="M277.34,171.39h203.75c2.35,0,4.26,1.91,4.26,4.26h0c0,2.35-1.91,4.26-4.26,4.26h-203.75c-2.35,0-4.26-1.91-4.26-4.26h0c0-2.35,1.91-4.26,4.26-4.26Z"/>
    <path id="Rectangle_4" data-name="Rectangle 4" class="cls-24" d="M510.34,171.39h43.69c2.35,0,4.26,1.91,4.26,4.26h0c0,2.35-1.91,4.26-4.26,4.26h-43.69c-2.35,0-4.26-1.91-4.26-4.26h0c0-2.35,1.91-4.26,4.26-4.26Z"/>
  </g>
  <path id="Path_18" data-name="Path 18" class="cls-1" d="M608.7,85.66c2.56-4.26,1.18-9.79-3.08-12.35-1.4-.84-3.01-1.29-4.65-1.28,0-9.96-8.07-18.03-18.03-18.03s-18.03,8.07-18.03,18.03h0c-4.97,0-9.01,4.02-9.01,8.99,0,1.64.44,3.24,1.28,4.64-12.18.6-20.18,1.61-20.18,2.75,0,1.84,20.57,3.32,45.94,3.32s45.94-1.49,45.94-3.32c0-1.14-8.01-2.15-20.19-2.75Z"/>
  <path id="Path_19" data-name="Path 19" class="cls-12" d="M703.62,174.14c1.52-2.53.7-5.81-1.83-7.32-.83-.5-1.78-.76-2.75-.76,0-5.9-4.78-10.69-10.69-10.69s-10.69,4.78-10.69,10.69c-2.95,0-5.34,2.38-5.34,5.33,0,.97.26,1.92.76,2.75-7.22.35-11.97.95-11.97,1.63,0,1.09,12.19,1.97,27.23,1.97s27.24-.88,27.24-1.97c0-.68-4.75-1.28-11.97-1.63Z"/>
  <path id="Path_20" data-name="Path 20" class="cls-1" d="M83.29,205.65c1.11-1.85.51-4.24-1.34-5.34-.61-.36-1.3-.55-2.01-.55,0-4.31-3.49-7.8-7.8-7.8s-7.8,3.49-7.8,7.8c-2.15,0-3.9,1.74-3.9,3.89,0,.71.19,1.4.55,2.01-5.27.26-8.73.7-8.73,1.19,0,.79,8.9,1.44,19.88,1.44s19.88-.64,19.88-1.44c0-.49-3.46-.93-8.73-1.19Z"/>
  <path id="Path_21" data-name="Path 21" class="cls-12" d="M161.32,116.15c1.8-2.99.83-6.86-2.16-8.66-.99-.59-2.11-.9-3.26-.9,0-6.98-5.66-12.64-12.64-12.64s-12.64,5.66-12.64,12.64c-3.49,0-6.32,2.82-6.32,6.3,0,1.15.31,2.27.9,3.26-8.54.42-14.16,1.13-14.16,1.93,0,1.29,14.42,2.33,32.22,2.33s32.22-1.04,32.22-2.33c0-.81-5.62-1.52-14.16-1.93Z"/>
  <g id="Woman">
    <path id="Hair" class="cls-18" d="M348.4,389.31s-9.74-7.23-7.37-21.97,16.98-9.61,17.9-25.67,5.79-25.4,16.45-26.06c10.66-.66,12.37,6.18,12.37,6.18,0,0,5.27-4.21,9.87,2.37s-1.19,21.59,9.61,30.27c10.8,8.69,9.61,24.75-1.58,33.43-11.19,8.68-57.26,1.44-57.26,1.44Z"/>
    <g id="Body">
      <ellipse id="Ellipse_4" data-name="Ellipse 4" class="cls-6" cx="375.02" cy="439.29" rx="56.76" ry="6.1"/>
      <g id="Body-2">
        <path id="Path_24" data-name="Path 24" class="cls-1" d="M404.59,360.11c-3.17-1.8-6.57-3.16-10.12-4.02-2.56-.69-5.16-1.24-7.79-1.64h-14.73c-2.62.4-5.22.95-7.79,1.64-3.54.86-6.95,2.22-10.12,4.02-6.58,4.07-8.55,37.51-8.42,42.51s12.64,11.19,14.22,11.84c6.31,1.87,12.85,2.85,19.43,2.9h.09c6.58-.05,13.12-1.03,19.43-2.9,1.58-.65,14.09-6.85,14.22-11.84s-1.84-38.44-8.42-42.51Z"/>
        <circle id="Ellipse_5" data-name="Ellipse 5" class="cls-20" cx="379.65" cy="371.03" r="1.2"/>
        <circle id="Ellipse_6" data-name="Ellipse 6" class="cls-20" cx="379.65" cy="384.71" r="1.2"/>
      </g>
      <g id="Legs">
        <path id="Path_23" data-name="Path 23" class="cls-22" d="M361.21,416.84s2.33,14.22,19.64,10.66,12.77-12.9,12.41-13.16-32.04,2.5-32.04,2.5Z"/>
        <path id="Path_27" data-name="Path 27" class="cls-12" d="M345.96,410.75l45.62,22.94-2.5,6.58-49.66-11.97c-4.95-1.13-8.49-5.49-8.59-10.57,0-3.96,2.01-7.79,9.6-8.17,1.91-.09,3.82.32,5.53,1.19Z"/>
        <path id="Path_28" data-name="Path 28" class="cls-22" d="M389.08,440.27l4.18,1.05s1.78,2.77,8.5,3.46,10.95-1.68,10.95-5.73-3.26-2.95-8.19-2.37c-2.73.13-5.46-.28-8.04-1.18-1.66-.51-3.3-1.11-4.9-1.81l-2.5,6.59Z"/>
        <path id="Path_29" data-name="Path 29" class="cls-10" d="M389.08,440.27l4.18,1.05s3.23-.42,3.22-5.83c-1.66-.51-3.3-1.11-4.9-1.81l-2.5,6.59Z"/>
        <path id="Path_30" data-name="Path 30" class="cls-1" d="M395.28,439.97c1.61.7,3.31,1.15,5.05,1.35,5.01.59,5.8-1.32,3.23-2.03-1.59-.44-4.92-1.27-7.25-1.84-.14.91-.49,1.77-1.03,2.52Z"/>
        <path id="Path_31" data-name="Path 31" class="cls-12" d="M408.5,410.75l-45.62,22.94,2.5,6.58,49.66-11.97c4.95-1.13,8.49-5.49,8.59-10.57,0-3.96-2.01-7.79-9.6-8.17-1.91-.09-3.82.32-5.53,1.19Z"/>
        <path id="Path_32" data-name="Path 32" class="cls-22" d="M365.38,440.27l-4.18,1.05s-1.78,2.77-8.5,3.46-10.95-1.68-10.95-5.73,3.26-2.95,8.19-2.37c2.73.13,5.46-.28,8.04-1.18,1.66-.51,3.3-1.11,4.9-1.81l2.5,6.59Z"/>
        <path id="Path_33" data-name="Path 33" class="cls-10" d="M365.38,440.27l-4.18,1.05s-3.23-.42-3.22-5.83c1.66-.51,3.3-1.11,4.9-1.81l2.5,6.59Z"/>
        <path id="Path_34" data-name="Path 34" class="cls-1" d="M359.17,439.97c-1.61.7-3.31,1.15-5.05,1.35-5.01.59-5.8-1.32-3.23-2.03,1.59-.44,4.92-1.27,7.25-1.84.14.91.49,1.77,1.03,2.52Z"/>
      </g>
      <g id="Laptop">
        <path id="Rectangle_5" data-name="Rectangle 5" class="cls-19" d="M362.44,392.15h33.76c3.76,0,6.81,3.05,6.81,6.81h0v22.81h-47.39v-22.81c0-3.76,3.05-6.81,6.81-6.81Z"/>
        <circle id="Ellipse_7" data-name="Ellipse 7" class="cls-24" cx="379.32" cy="406.96" r="4.41"/>
      </g>
      <g id="Collar">
        <path id="Path_25" data-name="Path 25" class="cls-20" d="M379.37,354.45v8.2l-2.1,4.68c-.31.69-1.12.99-1.81.68-.16-.07-.31-.18-.43-.31l-10.85-11.61c2.56-.69,5.16-1.24,7.79-1.64h7.41Z"/>
        <path id="Path_26" data-name="Path 26" class="cls-20" d="M379.28,354.45v8.2l2.1,4.68c.31.69,1.12.99,1.81.68.16-.07.31-.18.43-.31l10.85-11.61c-2.56-.69-5.16-1.24-7.79-1.64h-7.4Z"/>
      </g>
    </g>
    <g id="Head">
      <g id="Head-2">
        <path id="Path_35" data-name="Path 35" class="cls-10" d="M390.72,341.87s-.59,6.05-4.11,9.97v2.91l-7.23,7.88-7.41-8.2v-2.57s-3.15-2.5-4.04-10.2c0,0-3.92.39-3.46-3.48s3.62-2.84,3.62-2.84c0,0,1.65,4.34,7.83,4.42s14.81-9.08,14.81-9.08v5c.89-.99,2.41-1.08,3.4-.19.26.24.47.53.61.85,1.84,2.9-4.02,5.53-4.02,5.53Z"/>
        <path id="Path_36" data-name="Path 36" class="cls-28" d="M386.6,351.85v2.91l-7.23,7.88-7.41-8.2v-2.57c1.67,2.13,4.21,3.38,6.91,3.41,2.9-.18,5.65-1.4,7.73-3.43Z"/>
      </g>
      <g id="Headset">
        <g id="Group_9" data-name="Group 9">
          <path id="Path_37" data-name="Path 37" class="cls-22" d="M379.32,311.46c-9.87,0-17.9,8.34-17.9,18.59,0,.59.03,1.16.08,1.74.35,4.08,2.02,7.93,4.76,10.97.54.59,1.11,1.15,1.72,1.67v-3.27c-.64-.7-1.22-1.46-1.72-2.27-1.39-2.21-2.24-4.72-2.47-7.32-.05-.5-.07-1.01-.07-1.53-.32-8.61,6.4-15.85,15.01-16.17,8.61-.32,15.85,6.4,16.17,15.01.01.39.01.77,0,1.16,0,.51-.02,1.02-.07,1.53-.22,2.52-1.03,4.96-2.35,7.11-.5.83-1.07,1.61-1.72,2.33v3.29c.61-.53,1.18-1.09,1.72-1.7,2.67-3.03,4.3-6.85,4.65-10.88.05-.56.07-1.13.07-1.7,0-10.24-8.03-18.58-17.9-18.58Z"/>
        </g>
        <g id="Group_10" data-name="Group 10">
          <rect id="Rectangle_6" data-name="Rectangle 6" class="cls-20" x="366.37" y="332.15" width="1.71" height="13.84"/>
          <path id="Rectangle_7" data-name="Rectangle 7" class="cls-1" d="M366.21,332.15h.17v13.85h-.17c-3.82,0-6.92-3.1-6.92-6.92h0c0-3.82,3.1-6.92,6.92-6.92Z"/>
        </g>
        <g id="Group_11" data-name="Group 11">
          <rect id="Rectangle_8" data-name="Rectangle 8" class="cls-20" x="390.69" y="332.15" width="1.71" height="13.84"/>
          <path id="Rectangle_9" data-name="Rectangle 9" class="cls-1" d="M392.56,346h-.17v-13.85h.17c3.82,0,6.92,3.1,6.92,6.92h0c0,3.82-3.1,6.92-6.92,6.92Z"/>
        </g>
      </g>
    </g>
    <g>
      <path class="cls-12" d="M254.55,260.06h5.82v19.61h12.5v5.26h-18.33v-24.86Z"/>
      <path class="cls-12" d="M276.18,260.06h5.82v24.86h-5.82v-24.86Z"/>
      <path class="cls-12" d="M303.85,260.06h5.79v24.86h-5.22l-11.26-15.38.07,6.71v8.67h-5.79v-24.86h5.22l11.26,15.45-.07-6.64v-8.81Z"/>
      <path class="cls-12" d="M337.13,284.92h-7.57l-8.74-9.87v9.87h-5.79v-24.86h5.79v9.73l8.17-9.73h7.17l-10.48,12.18,11.44,12.68Z"/>
      <path class="cls-12" d="M352.83,280.02h13.71v4.9h-19.36v-24.86h18.97v4.87h-13.32v5.04h12.61v4.69h-12.61v5.36Z"/>
      <path class="cls-12" d="M384.29,272.24l8.56,12.68h-7.07l-2.88-4.33-2.45-4.01-2.38,3.98-2.88,4.37h-7.14l8.42-12.43-7.96-12.43h6.85l2.63,4.19,2.34,4.05,2.45-4.05,2.7-4.19h6.89l-8.1,12.18Z"/>
      <path class="cls-12" d="M412.4,261.14c1.43.72,2.54,1.76,3.32,3.11.78,1.35,1.17,2.92,1.17,4.72s-.39,3.37-1.17,4.72c-.78,1.35-1.89,2.39-3.32,3.11-1.43.72-3.11,1.08-5.03,1.08h-6.07v7.03h-5.82v-24.86h11.9c1.92,0,3.59.36,5.03,1.08ZM410.02,271.78c.72-.69,1.08-1.61,1.08-2.77s-.36-2.08-1.08-2.77c-.72-.69-1.7-1.03-2.93-1.03h-5.82v7.6h5.82c1.23,0,2.21-.34,2.93-1.03Z"/>
      <path class="cls-12" d="M420.27,260.06h5.82v24.86h-5.82v-24.86Z"/>
      <path class="cls-12" d="M440.73,276.72h-3.37v8.2h-5.82v-24.86h12.11c1.8,0,3.37.35,4.72,1.05,1.35.7,2.39,1.69,3.13,2.97.73,1.28,1.1,2.75,1.1,4.4,0,1.89-.49,3.52-1.47,4.87-.98,1.35-2.37,2.31-4.17,2.88l7.03,8.7h-6.93l-6.32-8.2ZM445.82,265.96c-.67-.62-1.63-.92-2.86-.92h-5.65v7h5.65c1.25,0,2.21-.3,2.88-.91.66-.6.99-1.46.99-2.58s-.34-1.98-1.01-2.59Z"/>
      <path class="cls-12" d="M462.89,280.02h13.71v4.9h-19.36v-24.86h18.97v4.87h-13.32v5.04h12.61v4.69h-12.61v5.36Z"/>
      <path class="cls-12" d="M497.82,261.59c1.93,1.02,3.42,2.47,4.47,4.35,1.05,1.88,1.58,4.07,1.58,6.55s-.53,4.67-1.58,6.55c-1.05,1.88-2.55,3.33-4.47,4.35-1.93,1.02-4.17,1.53-6.73,1.53h-10.19v-24.86h10.19c2.56,0,4.8.51,6.73,1.53ZM496.13,277.85c1.28-1.33,1.92-3.11,1.92-5.36,0-1.49-.29-2.79-.87-3.89-.58-1.1-1.4-1.95-2.45-2.56-1.05-.6-2.27-.91-3.64-.91h-4.37v14.7h4.37c2.08,0,3.76-.66,5.04-1.99Z"/>
    </g>
  </g>
  <g id="Plant_2" data-name="Plant 2">
    <g id="Group_13" data-name="Group 13">
      <path id="Path_39" data-name="Path 39" class="cls-7" d="M655.56,248.45s32,45.21-3.95,107.06c-8.37,7.86-62.43,28.65-71.53,37.23l-4.02-56.56s7.2-72.61,79.5-87.74Z"/>
      <path id="Path_40" data-name="Path 40" class="cls-11" d="M617.14,355.15l1.36.87c.29-.45,28.74-45.38,29.94-88.46l-1.62-.05c-1.19,42.62-29.4,87.19-29.69,87.63Z"/>
    </g>
    <g id="Group_14" data-name="Group 14">
      <path id="Path_41" data-name="Path 41" class="cls-11" d="M701.51,339.97s-7.99,54.81-76.67,74.83c-11.48-.08-23.49-.16-36.02-.23l-5.39-65.87s55.28-47.62,118.08-8.74Z"/>
      <path id="Path_42" data-name="Path 42" class="cls-7" d="M583.08,385.43c9.3-.6,70.59-5.52,97.32-33.04l-1.16-1.13c-26.36,27.13-87.25,31.98-96.29,32.55l.13,1.62Z"/>
    </g>
  </g>
  <g id="Plant_1" data-name="Plant 1">
    <path id="Path_43" data-name="Path 43" class="cls-11" d="M178.43,327.56s-43.6-19.95-51.31,14.18-43,9.95-60.35,34.39c-17.34,24.44-13.56,40.09-40.81,40.09h150.33v-88.66"/>
    <g id="Group_15" data-name="Group 15">
      <path id="Path_44" data-name="Path 44" class="cls-7" d="M80.86,416.23S3.97,394.19,7.75,341.75c3.78-52.44,70.68-14.41,73.11,74.48Z"/>
      <path id="Path_45" data-name="Path 45" class="cls-11" d="M80.86,416.23h0c-.01-.41-.03-.81-.05-1.22-55.19-57.77-57.27-88.17-57.28-88.47l-1.62.07c.06,1.25,2,31.07,57.37,89.13,1.01.32,1.58.49,1.58.49Z"/>
    </g>
    <g id="Group_24" data-name="Group 24">
      <g id="Group_16" data-name="Group 16">
        <path id="Path_46" data-name="Path 46" class="cls-11" d="M97.87,405.15l2.23-2.25c-.1-.1-10.07-10.07-20.52-27.84-9.63-16.38-23.47-42.8-26.07-76.3l-1.35.1c2.26,27.5,10.71,54.14,24.74,77.9,10.66,18.1,20.56,27.98,20.97,28.39Z"/>
      </g>
      <g id="Group_23" data-name="Group 23">
        <path id="Path_47" data-name="Path 47" class="cls-11" d="M53.51,298.76s7.43-5.3-1.35-17.35c0,0-7.08,10.18,0,17.46l1.35-.1Z"/>
        <g id="Group_17" data-name="Group 17">
          <path id="Path_48" data-name="Path 48" class="cls-11" d="M53.76,311.98s9,1.5,11.32-13.22c0,0-11.18,3.08-11.32,13.22Z"/>
          <path id="Path_49" data-name="Path 49" class="cls-11" d="M53.76,311.98s-9,1.5-11.32-13.22c0,0,11.18,3.08,11.32,13.22Z"/>
        </g>
        <g id="Group_18" data-name="Group 18">
          <path id="Path_50" data-name="Path 50" class="cls-11" d="M57.28,326.25s9.12.31,9.49-14.59c0,0-10.68,4.51-9.49,14.59Z"/>
          <path id="Path_51" data-name="Path 51" class="cls-11" d="M57.28,326.25s-8.73,2.67-12.95-11.63c0,0,11.48,1.59,12.95,11.63Z"/>
        </g>
        <g id="Group_19" data-name="Group 19">
          <path id="Path_52" data-name="Path 52" class="cls-11" d="M60.3,338.94s9.12.31,9.49-14.59c0,0-10.68,4.51-9.49,14.59Z"/>
          <path id="Path_53" data-name="Path 53" class="cls-11" d="M60.3,338.94s-8.73,2.67-12.95-11.63c0,0,11.48,1.59,12.95,11.63Z"/>
        </g>
        <g id="Group_20" data-name="Group 20">
          <path id="Path_54" data-name="Path 54" class="cls-11" d="M65.94,352.52s9.02-1.41,6.57-16.12c0,0-9.64,6.44-6.57,16.12h0Z"/>
          <path id="Path_55" data-name="Path 55" class="cls-11" d="M65.94,352.52s-8.07,4.27-14.91-8.98c0,0,11.58-.61,14.91,8.98Z"/>
        </g>
        <g id="Group_21" data-name="Group 21">
          <path id="Path_56" data-name="Path 56" class="cls-11" d="M72.25,365.66s8.99-1.61,6.22-16.26c0,0-9.5,6.65-6.22,16.26Z"/>
          <path id="Path_57" data-name="Path 57" class="cls-11" d="M72.25,365.66s-7.98,4.44-15.1-8.66c0,0,11.56-.86,15.1,8.66Z"/>
        </g>
        <g id="Group_22" data-name="Group 22">
          <path id="Path_58" data-name="Path 58" class="cls-11" d="M80.86,381.7s8.88-2.13,5.27-16.59c0,0-9.09,7.19-5.27,16.59h0Z"/>
          <path id="Path_59" data-name="Path 59" class="cls-11" d="M80.86,381.7s-7.7,4.9-15.58-7.77c0,0,11.49-1.53,15.58,7.77Z"/>
        </g>
      </g>
    </g>
    <g id="Group_26" data-name="Group 26">
      <path id="Path_60" data-name="Path 60" class="cls-7" d="M105.04,415.11s-26.5-21.61-9.07-42.85c17.43-21.24-33.59-40.42-17.4-62.09s-16.19-57.49,9.31-59.2,33.15,17.09,21.83,36.01,29.38,30.3,20.57,64.47c-8.81,34.17-29.92,35.3-25.24,63.67Z"/>
      <g id="Group_25" data-name="Group 25">
        <path id="Path_61" data-name="Path 61" class="cls-11" d="M104.38,415.59c-.11-.16-11.32-16.02-.07-39.04,11.19-22.91,5.33-45.9-4.84-57.57-10.69-12.27-8.28-41.77-2.57-51.07l1.38.85c-5.36,8.73-7.67,37.59,2.41,49.16,10.52,12.06,16.59,35.78,5.08,59.34-10.8,22.11-.18,37.23-.07,37.38l-1.31.95Z"/>
      </g>
    </g>
  </g>
  <g id="Man_2" data-name="Man 2">
    <g id="Head-3">
      <path id="Path_69" data-name="Path 69" class="cls-18" d="M600.13,225.03c1.5-1.94,3.18-3.75,5.01-5.39,2.95-2.83,3.39-7.38,1.05-10.73-1.81-2.19-3.1-1.24-3.1-1.24,0,0,.62-5.3-4.29-5.34s-5.1-1.33-6.34-1.57-2.43.76-4.58.52-1.96-2.81-3.96-2.86-1.96,4.91-.76,8.87,6.1,6.68,6.1,6.68l10.86,11.06Z"/>
      <path id="Path_70" data-name="Path 70" class="cls-10" d="M589.81,232.11v-3.31s-3.46.1-3.6-2.9,1.24-16.98,1.24-16.98c2.24.5,4.52.85,6.81,1.05,3.58.29,4.62-.91,5.2-.38s-.38,5.86,1,7.2c0,0,1.72-1.81,2.81.14.73,1.58.04,3.46-1.55,4.18-.19.09-.39.15-.59.2,0,0-.19,3.35-.54,5.9-.22,1.84-.34,3.69-.36,5.54.67,1.46.04,3.18-1.42,3.85-.19.09-.4.16-.61.2-3.34,1.05-9.63-.62-9.63-.62l1.22-4.09Z"/>
      <path id="Path_72" data-name="Path 72" class="cls-28" d="M593.81,213.17l-7.05,3.23c-.23,2.68-.44,5.51-.53,7.49l5.09-4.57s3.91-.54,4.27-2.99c.26-1.35-.5-2.68-1.79-3.15Z"/>
      <path id="Path_73" data-name="Path 73" class="cls-28" d="M591.78,236.12l4.61-8.87c-1.99,1.16-4.28,1.7-6.58,1.55v3.31l-.77,2.57,2.73,1.44Z"/>
    </g>
    <g id="Legs-2">
      <path id="Path_71" data-name="Path 71" class="cls-12" d="M573.24,305.56s.19,26.03,1.72,55.4c1.53,29.37,4.2,44.63,4.2,44.63h5.86s5.2-33.95,7.68-63.13,2.29-35.47,2.29-35.47l-21.74-1.43Z"/>
      <path id="Path_75" data-name="Path 75" class="cls-12" d="M588.31,304.13s5.44,63.32,12.3,101.46h6.15s3.67-56.26,5.77-73.43c2.1-17.17,0-26.61,0-26.61l-24.22-1.43Z"/>
      <path id="Path_84" data-name="Path 84" class="cls-22" d="M579.15,405.6v2.43l-14.49,6.86h20.36v-9.3h-5.87Z"/>
      <path id="Path_85" data-name="Path 85" class="cls-22" d="M600.61,405.6v2.43l-14.21,6.87h20.36v-9.3h-6.15Z"/>
    </g>
    <g id="Body-3">
      <path id="Path_63" data-name="Path 63" class="cls-28" d="M614.41,292.76c-.36.59-.94,1.02-1.61,1.18-1.07.21-1.15,3.33.66,3.43s3.42-1.86,3.42-1.86l-.97-3.11-1.5.36Z"/>
      <path id="Path_64" data-name="Path 64" class="cls-10" d="M571.93,219.04c-.56,1.05-1.3,2-2.19,2.8-1.12.81-2.07.64-2.5,1.05-.36.62-.59,1.31-.67,2.03l-5.81-1.53,1.55-4.32,8.42-2.12,1.21,2.09Z"/>
      <path id="Path_67" data-name="Path 67" class="cls-10" d="M565.09,209.87s2.08,1.04,2.92.64,1.87,1.04,2.91.82.29-1.45-.86-1.99-1.21-.27-2.71-.43-2.3.17-2.26.95Z"/>
      <path id="Path_76" data-name="Path 76" class="cls-1" d="M621.63,272.38c.93-4.01-7.87-9.59-7.87-9.59,0,0-1.05,22.74-.86,29.52.14,5.05.38,9.51.49,11.45.03.54.32,1.02.77,1.31.02.01.04.03.06.05.73.54.88,1.57.34,2.29-.27.36-.68.6-1.13.65-7.37.86-14.79,1.25-22.22,1.16-16.66,0-21.46-1.58-18.52-5.8.78-7.78,1.14-15.59,1.1-23.41.09-15.35.19-28.51.19-28.51,0,0-12.11,3.53-19.64,3.53s-7.44-3.82-6.87-7.44,12.42-25.63,12.42-25.63l7.44,2.21s-4.44,14.02-4.37,15.59,8.15-2,12.23-4.15c.53-.28,1.01-.54,1.45-.79.26-.16.52-.3.77-.44,2.06-1.15,3.8-1.93,8.48-2.18.28-.01.56-.02.86-.04.43-.02.88-.03,1.36-.04.28,0,.56-.01.86-.01.26,0,.53,0,.81,0,0,0,.65,3.15,4.86,3.3s5.58-2.65,5.58-2.65c0,0,.81.23,2.09.63l.83.27c3.9,1.2,7.67,2.82,11.23,4.82,5.22,3.22,16.71,20.31,19.1,27.1s-12.02,31.69-12.02,31.69l-7.08-4.51s6.29-16.38,7.23-20.38Z"/>
      <path id="Path_78" data-name="Path 78" class="cls-3" d="M614.24,305.11l-.07-.04c-.45-.28-.74-.77-.77-1.3-.11-1.95-.35-6.41-.49-11.46-.19-6.77.86-29.52.86-29.52l-11.73-7.49s6.68,22.51,7.44,31.85.47,10.68-1.58,12.68.14,5.53,2.24,4.86c2.02-.64,3.59,3.38-3.34,4.01,3.07-.22,5.26-.47,6.65-.65.9-.11,1.54-.92,1.44-1.82-.05-.45-.29-.86-.65-1.13Z"/>
      <path id="Path_82" data-name="Path 82" class="cls-10" d="M615.24,293.29c-.54,1.26-1.28,2.43-2.17,3.48-1.37,1.5-4.34,3.47-3.41,4.94s4.76,1.14,7.37-.25c1.73-1.09,3.05-2.71,3.78-4.62l-5.57-3.54Z"/>
      <path id="Path_83" data-name="Path 83" class="cls-13" d="M574,251.5v-9.63s-8.58,5.91-16.97,7.25c-6.61,1.05-8.19-2.1-7.59-6.56-.81,1.61-1.47,3.29-1.95,5.03-.57,3.62-.67,7.44,6.87,7.44s19.64-3.53,19.64-3.53Z"/>
    </g>
    <path id="Path_77" data-name="Path 77" class="cls-1" d="M589.29,232.11h-.3c-.3,0-.58,0-.86.01-.48,0-.93.02-1.36.04l-.51.02,1.09,3.82c-.38.37-.82.66-1.31.86-2.08.72-4.39.07-5.78-1.63-.46-.52-.83-1.1-1.12-1.72h0c-.26.12-.52.24-.77.37.32.71.75,1.36,1.26,1.94,1.21,1.37,2.93,2.18,4.75,2.23.68,0,1.36-.13,1.99-.39.45-.19.87-.44,1.25-.75l.17.61.46-.13c.3-.11.53-.92.7-1.89.15.23.3.45.47.67,1.76,2.26,4.44,3.6,7.31,3.63.79,0,1.57-.11,2.32-.33,2.11-.62,3.39-3.34,4.14-5.82h0l-.81-.27c-.68,2.29-1.8,4.75-3.57,5.27-3.25.85-6.69-.34-8.71-3.02-.27-.35-.52-.72-.74-1.11.28-.74.45-1.52.49-2.31h0c-.02-.06-.03-.11-.03-.11h-.52Z"/>
    <g id="Binoculars">
      <path id="Path_62" data-name="Path 62" class="cls-4" d="M575.82,220.36h-1.55l.75,2.13h1.6l.75-2.13h-1.55Z"/>
      <path id="Path_66" data-name="Path 66" class="cls-15" d="M563.63,209.34l12.57,1.88c.94.13,1.79.63,2.35,1.39.4.56.61,1.23.61,1.92,0,.7-.18,1.39-.51,2.01-.54.97-1.49,1.63-2.58,1.8l-12.43,2.02v-11.02Z"/>
      <g id="Group_29" data-name="Group 29">
        <circle id="Ellipse_8" data-name="Ellipse 8" class="cls-23" cx="563.63" cy="214.85" r="5.51"/>
        <circle id="Ellipse_9" data-name="Ellipse 9" class="cls-15" cx="563.63" cy="214.85" r="4.19"/>
        <circle id="Ellipse_10" data-name="Ellipse 10" class="cls-4" cx="563.63" cy="214.85" r="3.73"/>
        <path id="Path_68" data-name="Path 68" class="cls-30" d="M566.56,214.85c0,1.62-1.32,2.94-2.94,2.94"/>
        <circle id="Ellipse_11" data-name="Ellipse 11" class="cls-20" cx="561.84" cy="213.21" r="1.02"/>
      </g>
      <path id="Path_74" data-name="Path 74" class="cls-2" d="M585.8,219.07h-1.55l.75,2.13h1.6l.75-2.13h-1.55Z"/>
      <g id="Group_31" data-name="Group 31">
        <path id="Path_79" data-name="Path 79" class="cls-2" d="M589.78,211.85h2.33c1.75,0,3.17,1.4,3.18,3.14,0,.43-.08.86-.26,1.26-.02.03-.03.07-.05.1-.53,1.08-1.63,1.75-2.83,1.74h-4.81l2.43-6.25Z"/>
        <path id="Path_80" data-name="Path 80" class="cls-15" d="M575.53,208.92l13.82,2.07c1.03.14,1.96.69,2.58,1.52.44.62.67,1.36.66,2.11,0,.77-.2,1.53-.57,2.21-.59,1.06-1.64,1.79-2.84,1.98l-13.66,2.22v-12.11Z"/>
        <g id="Group_30" data-name="Group 30">
          <circle id="Ellipse_12" data-name="Ellipse 12" class="cls-23" cx="575.53" cy="214.97" r="6.05"/>
          <circle id="Ellipse_13" data-name="Ellipse 13" class="cls-15" cx="575.53" cy="214.97" r="4.6"/>
          <circle id="Ellipse_14" data-name="Ellipse 14" class="cls-4" cx="575.53" cy="214.97" r="4.1"/>
          <path id="Path_81" data-name="Path 81" class="cls-30" d="M578.76,214.97c0,1.78-1.45,3.23-3.23,3.23"/>
          <circle id="Ellipse_15" data-name="Ellipse 15" class="cls-20" cx="573.57" cy="213.17" r="1.12"/>
        </g>
      </g>
      <g id="Group_32" data-name="Group 32">
        <path id="Path_86" data-name="Path 86" class="cls-12" d="M585.58,241.08c-.63.26-1.3.39-1.99.39-1.83-.05-3.55-.86-4.76-2.23-1.05-1.29-1.79-2.8-2.17-4.42-.95-4.04-1.38-8.19-1.28-12.34l.86.02c-.08,3.99.32,7.98,1.19,11.88.34,1.56,1.03,3.03,2.03,4.27,1.4,1.7,3.71,2.35,5.78,1.63,1.93-.79,3.04-2.87,2.96-5.56l-.07-2.6c.28,0,.56-.01.86-.01l.07,2.58c.09,3.07-1.21,5.45-3.49,6.39Z"/>
      </g>
      <g id="Group_33" data-name="Group 33">
        <path id="Path_87" data-name="Path 87" class="cls-12" d="M603.18,233.65c-.39,2.4-1.69,8.29-4.93,9.24-.75.22-1.54.33-2.32.33-2.86-.03-5.55-1.37-7.31-3.63-1.55-2.17-2.49-4.72-2.71-7.39-.14-1.05-.23-2.08-.31-3.08-.23-2.65-.24-5.37-.22-7.91h.86c-.02,2.52,0,5.22.22,7.83.09,1.04.18,2.09.32,3.12.2,2.48,1.07,4.86,2.52,6.89,2.03,2.67,5.47,3.87,8.71,3.02,2.8-.82,3.99-6.53,4.34-8.69l.83.28Z"/>
      </g>
    </g>
  </g>
  <g id="Man_1" data-name="Man 1">
    <g id="Legs-3">
      <path id="Path_92" data-name="Path 92" class="cls-22" d="M135.77,404.68v2.35l15.47,7.87h-23.33v-10.22h7.87Z"/>
      <path id="Path_93" data-name="Path 93" class="cls-22" d="M157.41,404.68v2.35l15.47,7.87h-23.33v-10.22h7.86Z"/>
      <path id="Path_94" data-name="Path 94" class="cls-12" d="M166.09,316.83s10.33,32.94,11.64,43.1-20.32,44.75-20.32,44.75h-7.87s7.1-26.55,7.87-33.27-10.82-31.47-10.82-31.47l-5.41-20.49,5.02-6.13,19.89,3.5Z"/>
      <path id="Path_95" data-name="Path 95" class="cls-12" d="M123.75,304.38s-4.26,8.3-2.95,22.51c1.31,14.2,16.17,30.16,16.61,35.95s-9.51,41.85-9.51,41.85h7.87s18.02-32.09,23.16-42.36-12.5-36.31-13.49-55l-21.69-2.95Z"/>
    </g>
    <g id="Head-4">
      <ellipse id="Ellipse_16" data-name="Ellipse 16" class="cls-18" cx="182.61" cy="227.06" rx="21.59" ry="18.89"/>
      <path id="Path_90" data-name="Path 90" class="cls-10" d="M168.12,246.96l5.3-9.78s-3.22-1.37-1.8-5.46,7.1-1.8,6.61,2.4c2.02-.51,3.62-2.05,4.21-4.05.82-3.28,1.53-3.71,2.29-3.22s2.79,6.56,6.28,7.16,4.42-.22,4.48.98-5.46,11.85-8.25,14.64c-1.46,1.62-3.67,2.33-5.79,1.86l-2.36,4.78-9.46,2.13s-6.33-7.89-1.5-11.44Z"/>
      <path id="Path_91" data-name="Path 91" class="cls-28" d="M174.21,246.96l1.05,10.18,3.83-.87,2.36-4.78s-5.8-1.06-7.24-4.53Z"/>
    </g>
    <g id="Body-4">
      <path id="Path_96" data-name="Path 96" class="cls-1" d="M124.08,300.88c-1.72,1.19-2.54,3.31-2.08,5.35.65,3.71,31.8,14.1,39.23,14.86,5.94.61,7.62-.87,7.61-2,.05-1.46.34-2.9.86-4.27l9.18-28.32s5.08,15.68,9.78,20.6,29.06-14.97,29.06-14.97l-2.07-8.44s-16.06,8.88-18.68,8.99-3.71-15.41-4.05-22.29-.66-8.85-2.3-10.6-10.23-6.18-10.23-6.18c-1.89,2.14-4.89,2.92-7.58,1.98-4.7-1.59-4.7-8.63-4.7-8.63,0,0-17.92.03-23.82,0s-29.94,19.18-35.51,25.4-15.3,25.02-15.3,25.02l5.57,4.37s16.39-17.59,22.4-21.85c6.01-4.26,18.14-7.21,18.14-7.21l-15.52,28.2Z"/>
      <path id="Path_126" data-name="Path 126" class="cls-10" d="M220.96,282.61s1.68-.04,1.88,3.04c.19,2.95-1.73,5.63-4.59,6.39-2.75.74-4.63.16-3.57-3.44.66-2.43,2.47-4.38,4.86-5.2.53-.13,1.02-.4,1.42-.78Z"/>
      <path id="Path_127" data-name="Path 127" class="cls-10" d="M93.49,297.38s-11.53,12.4-10.6,15.51,9.67-3.93,10.6-4.21,1.09,2.35,2.79.98.33-6.23,2.79-7.92l-5.57-4.37Z"/>
      <path id="Path_128" data-name="Path 128" class="cls-14" d="M152.71,268.32l-13.11,4.37-15.52,28.19c-1.72,1.19-2.54,3.31-2.08,5.35.34,1.94,8.96,5.68,18.2,8.94-13.59-5.76-10.82-12.27-4.59-21.77s17.1-25.07,17.1-25.07Z"/>
      <path id="Path_129" data-name="Path 129" class="cls-26" d="M199.4,304.81c-.3.11-7.83,2.89-10.09-3.93-2.3-6.96-4.62-32.56-4.62-32.56l-5.82,18.19s5.08,15.68,9.78,20.6c1.7,1.78,5.98.3,10.74-2.29Z"/>
    </g>
    <g id="Loop">
      <path id="Path_88" data-name="Path 88" class="cls-17" d="M242.53,254.73c-1.06,4.88-3.4,10.35-7.72,13.88-.21.17-.42.33-.64.48-.03.02-.05.05-.09.07-.18.13-.35.25-.53.37-.06.04-.12.07-.18.11-.14.09-.3.18-.43.27-.09.04-.16.09-.25.13l-.35.2c-.1.05-.2.1-.31.14l-.29.14c-.12.05-.24.1-.35.14-.08.03-.16.07-.24.09-.13.05-.26.1-.39.14-.07.03-.14.05-.21.07-.13.05-.27.09-.4.12-.01,0-.03,0-.03.01-.6-.17-1.18-.4-1.73-.68-2.25-1.17-3.83-3.32-4.26-5.81-1.11-6.23.22-15.81,7.67-21.5,1.55-1.22,3.31-2.14,5.19-2.75,1.04-.33,2.13-.48,3.23-.45l.04.04c.2.24.4.48.58.73.01,0,.02.02.03.03.97,1.39,1.66,2.95,2.02,4.6,0,0,0,.01,0,.03.07.32.13.63.18.94,0,.01,0,.03,0,.04.05.32.09.62.11.92.13,2.51-.09,5.03-.65,7.49Z"/>
      <path id="Path_89" data-name="Path 89" class="cls-23" d="M219.15,278.31l4.24-8.77,2.48,1.13-4.24,8.77-2.49-1.13Z"/>
      <path id="Path_97" data-name="Path 97" class="cls-15" d="M211.21,292.9l6.68-13.81,3.91,1.79-6.68,13.81-3.91-1.79Z"/>
      <path id="Path_98" data-name="Path 98" class="cls-4" d="M214.88,297.08l-4.81-2.19c-.6-.27-.87-.98-.59-1.59.02-.04.04-.07.06-.11h0c.31-.53.97-.74,1.53-.48l4.81,2.19c.6.27.87.98.59,1.59-.02.04-.04.07-.06.11h0c-.31.53-.97.74-1.53.48Z"/>
      <path id="Path_99" data-name="Path 99" class="cls-4" d="M222.08,281.28l-4.81-2.19c-.6-.27-.87-.98-.59-1.59.02-.04.04-.07.06-.11h0c.31-.53.97-.74,1.53-.48l4.81,2.19c.6.27.87.98.59,1.59-.02.04-.04.07-.06.11h0c-.31.53-.97.74-1.53.48Z"/>
      <path id="Path_123" data-name="Path 123" class="cls-25" d="M223.3,269.72l-3.76,7.77h0l6.08-6.31-1.22-1.18-.72-.33-.39.05Z"/>
      <path id="Path_124" data-name="Path 124" class="cls-23" d="M240.21,239.89c-1.09-.03-2.18.12-3.23.45-1.88.6-3.64,1.53-5.19,2.75-7.45,5.7-8.79,15.27-7.67,21.5.43,2.5,2.01,4.65,4.26,5.81.55.29,1.13.51,1.73.68-4.54,1.36-9.33-1.22-10.69-5.76-.12-.41-.22-.84-.28-1.27-1.11-6.72.21-17.05,7.67-23.2,2.6-2.14,6.4-4.13,9.85-3.22.87.23,1.68.63,2.39,1.18.42.32.8.68,1.15,1.07Z"/>
      <path id="Path_125" data-name="Path 125" class="cls-25" d="M242.53,254.73c-1.06,4.88-3.4,10.35-7.72,13.88-.21.17-.42.33-.64.48-.03.02-.05.05-.09.07-.18.13-.35.25-.53.37-.06.04-.12.07-.18.11-.14.09-.3.18-.43.27-.09.04-.16.09-.25.13l-.35.2c-.1.05-.2.1-.31.14l-.29.14c-.12.05-.24.1-.35.14-.08.03-.16.07-.24.09-.13.05-.26.1-.39.14-.07.03-.14.05-.21.07-.13.05-.27.09-.4.12-.01,0-.03,0-.03.01-.6-.17-1.18-.4-1.73-.68,1.01-.48,1.96-1.08,2.83-1.8,6.88-5.61,8.75-16.19,8.37-21.38-.19-2.5-1.09-4.89-2.6-6.89,1.04-.33,2.13-.48,3.23-.45l.04.04c.2.24.4.48.58.73.01,0,.02.02.03.03.97,1.39,1.66,2.95,2.02,4.6,0,0,0,.01,0,.03.07.32.13.63.18.94,0,.01,0,.03,0,.04.05.32.09.62.11.92.13,2.51-.09,5.03-.64,7.49Z"/>
    </g>
  </g>
</svg>