<svg width="17" height="17" viewBox="0 0 17 17" fill="none" xmlns="http://www.w3.org/2000/svg">
<g clip-path="url(#clip0_263_120)">
<path d="M15.3572 8.48958C15.2781 8.59774 15.2077 8.71359 15.1188 8.81279C13.9594 10.105 12.7965 11.394 11.6377 12.6868C11.5106 12.8286 11.3679 12.8955 11.1778 12.8945C10.4156 12.8901 9.6533 12.8933 8.89104 12.8923C8.63215 12.8923 8.47246 12.7825 8.42126 12.571C8.38126 12.4065 8.44942 12.2772 8.5563 12.1588C9.18993 11.4564 9.82195 10.753 10.4549 10.05C10.9167 9.53666 11.3788 9.02368 11.8406 8.51038C11.8723 8.47486 11.9033 8.4387 11.9417 8.39422C11.9097 8.35678 11.8799 8.32094 11.8486 8.28637C10.7516 7.06681 9.65426 5.84789 8.55726 4.628C8.3579 4.40656 8.35566 4.14351 8.56782 3.99278C8.64943 3.93486 8.76591 3.89998 8.86704 3.89902C9.65298 3.89198 10.4393 3.8955 11.2255 3.89486C11.3785 3.89486 11.5014 3.95182 11.6044 4.06638C12.8077 5.40499 14.0125 6.742 15.2151 8.08125C15.2721 8.14461 15.3101 8.22525 15.3572 8.29789V8.48958Z" fill="black"/>
<path d="M6.62965 8.39325C6.42932 8.1702 6.23508 7.95388 6.04083 7.73787C5.1064 6.69975 4.17228 5.66131 3.23721 4.62384C3.10953 4.48175 3.04968 4.32495 3.13129 4.14222C3.21257 3.95981 3.3697 3.89517 3.55978 3.89517C4.34189 3.89517 5.12432 3.89581 5.90643 3.89453C6.06419 3.89453 6.18964 3.95309 6.29524 4.07086C7.4956 5.40659 8.69757 6.74103 9.89857 8.07612C10.0935 8.29245 10.0928 8.49598 9.89729 8.71294C8.69885 10.0452 7.49944 11.3764 6.30228 12.7096C6.19028 12.8344 6.05875 12.8936 5.89203 12.8929C5.1176 12.891 4.34349 12.8917 3.56906 12.8923C3.37482 12.8923 3.21353 12.8305 3.13033 12.643C3.04648 12.4539 3.11593 12.2971 3.24585 12.1527C4.33357 10.9463 5.42001 9.7389 6.50677 8.53182C6.54613 8.48798 6.58485 8.44349 6.62965 8.39261V8.39325Z" fill="black"/>
</g>
<g clip-path="url(#clip1_263_120)">
<path d="M15.3572 8.48958C15.2781 8.59774 15.2077 8.71359 15.1188 8.81279C13.9594 10.105 12.7965 11.394 11.6377 12.6868C11.5106 12.8286 11.3679 12.8955 11.1778 12.8945C10.4156 12.8901 9.6533 12.8933 8.89104 12.8923C8.63215 12.8923 8.47246 12.7825 8.42126 12.571C8.38126 12.4065 8.44942 12.2772 8.5563 12.1588C9.18993 11.4564 9.82195 10.753 10.4549 10.05C10.9167 9.53666 11.3788 9.02368 11.8406 8.51038C11.8723 8.47486 11.9033 8.4387 11.9417 8.39422C11.9097 8.35678 11.8799 8.32094 11.8486 8.28637C10.7516 7.06681 9.65426 5.84789 8.55726 4.628C8.3579 4.40656 8.35566 4.14351 8.56782 3.99278C8.64943 3.93486 8.76591 3.89998 8.86704 3.89902C9.65298 3.89198 10.4393 3.8955 11.2255 3.89486C11.3785 3.89486 11.5014 3.95182 11.6044 4.06638C12.8077 5.40499 14.0125 6.742 15.2151 8.08125C15.2721 8.14461 15.3101 8.22525 15.3572 8.29789V8.48958Z" fill="black"/>
<path d="M6.62965 8.39325C6.42932 8.1702 6.23508 7.95388 6.04083 7.73787C5.1064 6.69975 4.17228 5.66131 3.23721 4.62384C3.10953 4.48175 3.04968 4.32495 3.13129 4.14222C3.21257 3.95981 3.3697 3.89517 3.55978 3.89517C4.34189 3.89517 5.12432 3.89581 5.90643 3.89453C6.06419 3.89453 6.18964 3.95309 6.29524 4.07086C7.4956 5.40659 8.69757 6.74103 9.89857 8.07612C10.0935 8.29245 10.0928 8.49598 9.89729 8.71294C8.69885 10.0452 7.49944 11.3764 6.30228 12.7096C6.19028 12.8344 6.05875 12.8936 5.89203 12.8929C5.1176 12.891 4.34349 12.8917 3.56906 12.8923C3.37482 12.8923 3.21353 12.8305 3.13033 12.643C3.04648 12.4539 3.11593 12.2971 3.24585 12.1527C4.33357 10.9463 5.42001 9.7389 6.50677 8.53182C6.54613 8.48798 6.58485 8.44349 6.62965 8.39261V8.39325Z" fill="black"/>
</g>
<defs>
<clipPath id="clip0_263_120">
<rect width="12.2635" height="9" fill="white" transform="translate(3.09375 3.89453)"/>
</clipPath>
<clipPath id="clip1_263_120">
<rect width="12.2635" height="9" fill="white" transform="translate(3.09375 3.89453)"/>
</clipPath>
</defs>
</svg>
