<svg width="26" height="26" viewBox="0 0 26 26" fill="none" xmlns="http://www.w3.org/2000/svg">
<g clip-path="url(#clip0_1070_5109)">
<path d="M14.3569 0.402344C14.7548 0.517106 15.1089 0.695119 15.3659 1.04006C15.6392 1.40652 15.6627 1.84014 15.7188 2.26528C15.7749 2.69042 15.8186 3.12144 15.8838 3.54658C15.8973 3.59617 15.921 3.64241 15.9533 3.68237C15.9857 3.72233 16.0259 3.75514 16.0716 3.77871C16.4401 3.94825 16.8158 4.10474 17.1954 4.24754C17.2408 4.2612 17.2884 4.26518 17.3354 4.25923C17.3824 4.25328 17.4276 4.23752 17.4681 4.21299C17.9311 3.86805 18.3812 3.50811 18.8377 3.15534C19.5454 2.60957 20.3613 2.65847 20.9979 3.28576C21.5197 3.80001 22.0374 4.31775 22.5509 4.83896C23.1809 5.47472 23.2305 6.28263 22.6813 6.99794C22.3409 7.44394 21.9971 7.888 21.6462 8.32553C21.5491 8.44681 21.5256 8.53941 21.5986 8.69199C21.763 9.03563 21.9032 9.39165 22.0376 9.74833C22.0865 9.87874 22.1472 9.94721 22.29 9.96285C22.847 10.0281 23.4034 10.1011 23.9604 10.167C24.8637 10.2732 25.4318 10.9005 25.4344 11.8056C25.437 12.5376 25.437 13.2699 25.4344 14.0024C25.4344 14.85 24.925 15.4643 24.0902 15.6019C23.5031 15.6984 22.9161 15.7616 22.3246 15.8275C22.257 15.8282 22.1916 15.8512 22.1385 15.8929C22.0854 15.9347 22.0476 15.9928 22.0311 16.0583C21.9006 16.4156 21.7513 16.7684 21.5934 17.1153C21.5354 17.2457 21.5334 17.3279 21.6247 17.4413C21.9861 17.8913 22.3422 18.3484 22.6892 18.8074C23.2253 19.511 23.1751 20.3215 22.5587 20.9481C22.0369 21.475 21.5134 21.9986 20.9881 22.5189C20.3594 23.1384 19.5474 23.1853 18.8475 22.6493C18.3962 22.3024 17.9455 21.9549 17.5007 21.5995C17.4561 21.5549 17.3978 21.5264 17.3351 21.5187C17.2725 21.511 17.2091 21.5246 17.155 21.5571C16.8093 21.7182 16.4558 21.8636 16.0977 21.994C15.9431 22.0501 15.887 22.1336 15.8688 22.2894C15.797 22.903 15.7318 23.5179 15.6281 24.1263C15.5685 24.4833 15.3832 24.8073 15.1058 25.04C14.8284 25.2726 14.477 25.3986 14.1149 25.3952C13.3323 25.403 12.5513 25.403 11.7721 25.3952C11.0005 25.3886 10.3731 24.8696 10.2466 24.1113C10.1461 23.5107 10.0783 22.9036 10.0105 22.2979C10.0093 22.2265 9.98473 22.1575 9.94055 22.1014C9.89636 22.0454 9.835 22.0053 9.76586 21.9875C9.41496 21.8597 9.06993 21.7173 8.73077 21.5604C8.59446 21.4952 8.50315 21.4991 8.38444 21.5943C7.94049 21.9512 7.49153 22.3011 7.03758 22.6441C6.311 23.1958 5.5081 23.1377 4.86044 22.4922C4.353 21.9871 3.84665 21.4809 3.34139 20.9735C2.69503 20.3215 2.64155 19.5227 3.19594 18.7983C3.53706 18.3529 3.87948 17.9082 4.23038 17.47C4.2781 17.4229 4.30845 17.3611 4.3165 17.2945C4.32456 17.228 4.30983 17.1607 4.27473 17.1036C4.11102 16.7599 3.96949 16.4039 3.83709 16.0466C3.78752 15.9162 3.72295 15.851 3.58272 15.8347C3.02506 15.7695 2.47001 15.6932 1.91235 15.6312C1.1949 15.5517 0.69203 15.137 0.487882 14.4497C0.474185 14.4034 0.455271 14.3597 0.438965 14.3147V11.4352C0.45959 11.4114 0.477122 11.3851 0.491143 11.357C0.697247 10.6566 1.17142 10.2713 1.88692 10.1761C2.44197 10.1017 2.99571 10.0307 3.55597 9.97133C3.62348 9.97067 3.68883 9.94755 3.74174 9.90564C3.79465 9.86373 3.8321 9.8054 3.84817 9.73985C3.97862 9.38969 4.11624 9.04214 4.27539 8.70503C4.34061 8.55962 4.34452 8.46572 4.24147 8.33792C3.88926 7.90169 3.54815 7.45633 3.20703 7.01098C2.65068 6.28458 2.69894 5.48059 3.33748 4.83505C3.84752 4.32123 4.3593 3.80958 4.87283 3.3001C5.52049 2.65717 6.32209 2.605 7.04802 3.16056C7.4998 3.50615 7.94875 3.85566 8.39487 4.20907C8.49206 4.28536 8.56967 4.31732 8.69751 4.25863C9.06667 4.09105 9.44757 3.9502 9.81608 3.78263C9.85954 3.76151 9.89808 3.7315 9.92921 3.69454C9.96033 3.65759 9.98334 3.61451 9.99675 3.5681C10.062 3.14361 10.1057 2.71455 10.1624 2.28745C10.2185 1.87078 10.2316 1.44368 10.4885 1.07918C10.7455 0.714681 11.1062 0.51515 11.5256 0.402344H14.3569ZM22.0676 5.97746C21.9769 5.83466 21.9124 5.68338 21.8067 5.57318C21.3136 5.06523 20.8094 4.56836 20.3066 4.06888C19.9935 3.75654 19.7848 3.74285 19.4345 4.01476C18.8814 4.44316 18.3257 4.87092 17.7785 5.30388C17.5555 5.47994 17.3389 5.49298 17.0774 5.37496C16.5158 5.12196 15.949 4.87743 15.3711 4.66486C15.0685 4.55336 14.9276 4.37339 14.893 4.06432C14.8154 3.3777 14.7267 2.69499 14.6374 2.00706C14.5845 1.60279 14.3967 1.44108 13.9851 1.43977C13.2938 1.43977 12.6022 1.43977 11.9104 1.43977C11.4708 1.43977 11.294 1.60083 11.2393 2.04097C11.1532 2.72629 11.0651 3.4103 10.9836 4.09822C10.9497 4.38839 10.8016 4.55467 10.5231 4.65899C9.9537 4.87222 9.38887 5.09718 8.83969 5.358C8.55011 5.49233 8.32313 5.47994 8.07724 5.28302C7.53719 4.85135 6.98801 4.43143 6.44014 4.00954C6.09837 3.74872 5.88835 3.7598 5.58767 4.05975C5.09807 4.54836 4.60911 5.03762 4.12081 5.52754C3.79469 5.85357 3.78295 6.05962 4.0608 6.41825C4.4841 6.96468 4.9087 7.51241 5.33591 8.05362C5.51919 8.28445 5.53158 8.5055 5.41222 8.77545C5.15851 9.33688 4.91783 9.90547 4.7026 10.4825C4.59367 10.7734 4.41822 10.9142 4.11885 10.9488C3.4327 11.0277 2.74917 11.1157 2.06172 11.2037C1.64037 11.2578 1.48253 11.4398 1.48123 11.8688C1.48123 12.5609 1.48123 13.2525 1.48123 13.9437C1.48123 14.3675 1.64298 14.5468 2.06824 14.601C2.75373 14.689 3.43792 14.777 4.12602 14.8559C4.42735 14.8911 4.59628 15.0411 4.7026 15.3306C4.91001 15.8933 5.13568 16.4509 5.3907 16.9934C5.53093 17.2914 5.51658 17.5235 5.31308 17.7758C4.87478 18.321 4.44953 18.8765 4.02297 19.4314C3.78947 19.7346 3.80513 19.9602 4.07189 20.2289C4.56585 20.7249 5.06067 21.2196 5.55636 21.713C5.89096 22.0462 6.09315 22.0605 6.46949 21.7723C7.01606 21.3491 7.56328 20.9246 8.10594 20.4975C8.329 20.3215 8.54619 20.3091 8.80708 20.4265C9.36931 20.6788 9.93675 20.922 10.514 21.1359C10.8146 21.2474 10.9575 21.4267 10.9921 21.7365C11.0684 22.4231 11.1577 23.109 11.2477 23.7937C11.3012 24.1999 11.4871 24.359 11.9 24.361C12.5922 24.361 13.284 24.361 13.9754 24.361C14.413 24.361 14.5904 24.1986 14.6452 23.7585C14.7313 23.0732 14.8193 22.3892 14.9002 21.7013C14.9348 21.4104 15.0828 21.2448 15.3627 21.1424C15.9321 20.9299 16.4962 20.699 17.0474 20.4434C17.337 20.3091 17.5646 20.3241 17.8105 20.521C18.3564 20.9579 18.9121 21.3837 19.4658 21.8101C19.7796 22.0514 20.0033 22.0371 20.2831 21.7593C20.7853 21.2607 21.2853 20.7608 21.7832 20.2595C22.0839 19.9576 22.0982 19.7451 21.8374 19.406C21.4056 18.8452 20.9708 18.2866 20.5329 17.7302C20.3633 17.5144 20.3496 17.3038 20.4631 17.0508C20.7149 16.4887 20.9627 15.9227 21.174 15.3443C21.2882 15.0326 21.4708 14.8879 21.791 14.854C22.4778 14.779 23.1607 14.689 23.8482 14.5977C24.2395 14.5462 24.4006 14.3558 24.4026 13.9587C24.4052 13.2505 24.4052 12.5426 24.4026 11.8349C24.4026 11.4502 24.2421 11.2631 23.8612 11.2115C23.1686 11.1177 22.4746 11.029 21.78 10.9507C21.4701 10.9162 21.2901 10.774 21.1799 10.4721C20.9738 9.90939 20.7449 9.35253 20.4905 8.81001C20.3509 8.51202 20.3666 8.27989 20.5707 8.02754C21.0044 7.48959 21.4251 6.9399 21.8439 6.38956C21.928 6.27089 21.9815 6.13656 22.0676 5.97746Z" fill="white"/>
<path d="M12.7862 18.1083C9.87137 17.9778 7.60813 15.5652 7.73401 12.734C7.86446 9.83948 10.2777 7.57161 13.0947 7.6942C16.0036 7.82005 18.2799 10.2411 18.1469 13.0678C18.0112 15.9695 15.5993 18.2374 12.7862 18.1083ZM12.9382 17.065C13.7618 17.0657 14.5671 16.8222 15.2522 16.3653C15.9373 15.9083 16.4715 15.2584 16.787 14.4978C17.1025 13.7373 17.1853 12.9002 17.0248 12.0926C16.8643 11.285 16.4678 10.5431 15.8854 9.96092C15.3031 9.3787 14.561 8.98228 13.7532 8.82183C12.9454 8.66139 12.1081 8.74413 11.3473 9.05958C10.5866 9.37504 9.93651 9.90903 9.47942 10.594C9.02233 11.2789 8.77876 12.084 8.77954 12.9074C8.77937 13.4533 8.88683 13.9939 9.09579 14.4983C9.30475 15.0026 9.61111 15.4608 9.99734 15.8467C10.3836 16.2326 10.8421 16.5386 11.3467 16.7472C11.8513 16.9558 12.3921 17.0629 12.9382 17.0624V17.065Z" fill="white"/>
</g>
<defs>
<clipPath id="clip0_1070_5109">
<rect width="25" height="25" fill="white" transform="translate(0.441406 0.402344)"/>
</clipPath>
</defs>
</svg>
