<svg width="12" height="10" viewBox="0 0 12 10" fill="none" xmlns="http://www.w3.org/2000/svg">
<path d="M3.60418 7.46524C4.24426 6.59182 4.81958 5.72599 5.47109 4.92093C6.7512 3.36213 8.30727 2.05057 10.0621 1.05132C10.5308 0.781698 10.9651 0.865237 11.2051 1.26017C11.2599 1.35478 11.2935 1.46004 11.3037 1.56876C11.3139 1.67749 11.3005 1.78715 11.2643 1.89023C11.2282 1.99332 11.1701 2.08741 11.0942 2.16611C11.0182 2.2448 10.9261 2.30625 10.8241 2.34626C8.12696 3.8992 5.95251 6.21456 4.57575 8.99943C4.27095 9.60702 3.72993 9.68676 3.24225 9.20448C2.29483 8.26524 1.34865 7.32347 0.403765 6.37916C0.312177 6.31609 0.235555 6.23378 0.179314 6.13802C0.123072 6.04226 0.0885963 5.93539 0.0782497 5.82491C0.0679031 5.71443 0.0819674 5.60304 0.119457 5.49857C0.156946 5.39409 0.21692 5.29906 0.295214 5.22018C0.373507 5.1413 0.468227 5.08047 0.572639 5.04199C0.677052 5.0035 0.788649 4.98827 0.899597 4.99739C1.01054 5.00651 1.11811 5.03976 1.21479 5.09478C1.31146 5.14981 1.39488 5.22528 1.45914 5.31588C2.16781 6.0336 2.88409 6.75511 3.60418 7.46524Z" fill="white"/>
</svg>
